<svg 
 xmlns="http://www.w3.org/2000/svg"
 xmlns:xlink="http://www.w3.org/1999/xlink"
 width="16px" height="16px">
<path fill-rule="evenodd"  fill="rgb(158, 204, 59)"
 d="M8.000,16.000 C3.582,16.000 -0.000,12.418 -0.000,8.000 C-0.000,3.582 3.582,-0.000 8.000,-0.000 C12.418,-0.000 16.000,3.582 16.000,8.000 C16.000,12.418 12.418,16.000 8.000,16.000 ZM8.000,2.969 C5.221,2.969 2.969,5.221 2.969,8.000 C2.969,10.779 5.221,13.031 8.000,13.031 C10.779,13.031 13.031,10.779 13.031,8.000 C13.031,5.221 10.779,2.969 8.000,2.969 ZM8.000,10.000 C6.895,10.000 6.000,9.105 6.000,8.000 C6.000,6.895 6.895,6.000 8.000,6.000 C9.105,6.000 10.000,6.895 10.000,8.000 C10.000,9.105 9.105,10.000 8.000,10.000 Z"/>
</svg>