<svg 
 xmlns="http://www.w3.org/2000/svg"
 xmlns:xlink="http://www.w3.org/1999/xlink"
 width="32px" height="60px">
<path fill-rule="evenodd"  fill="rgb(252, 252, 252)"
 d="M27.625,59.999 L4.377,59.999 C1.966,59.999 -0.003,58.002 -0.003,55.537 L-0.003,4.461 C-0.003,2.005 1.958,-0.000 4.377,-0.000 L27.618,-0.000 C30.036,-0.000 31.997,1.997 32.005,4.461 L32.005,55.537 C32.005,57.994 30.044,59.999 27.625,59.999 ZM30.662,4.461 C30.662,2.751 29.296,1.360 27.618,1.360 L4.369,1.360 C2.691,1.360 1.325,2.751 1.325,4.461 L1.325,8.347 L30.662,8.347 L30.662,4.461 ZM30.662,9.700 L1.325,9.700 L1.325,50.260 L30.662,50.260 L30.662,9.700 ZM30.669,51.613 L1.333,51.613 L1.333,55.530 C1.333,57.240 2.698,58.631 4.377,58.631 L27.625,58.631 C29.304,58.631 30.669,57.240 30.669,55.530 L30.669,51.613 ZM16.585,55.740 L15.402,55.740 C15.036,55.740 14.738,55.437 14.738,55.063 C14.738,54.690 15.036,54.387 15.402,54.387 L16.585,54.387 C16.951,54.387 17.249,54.690 17.249,55.063 C17.249,55.437 16.951,55.740 16.585,55.740 ZM7.070,20.613 L8.138,20.613 L8.138,19.245 C8.138,18.872 8.436,18.569 8.802,18.569 C9.169,18.569 9.466,18.872 9.466,19.245 L9.466,20.613 L12.938,20.613 L12.938,19.245 C12.938,18.872 13.235,18.569 13.601,18.569 C13.968,18.569 14.265,18.872 14.265,19.245 L14.265,20.613 L17.744,20.613 L17.744,19.245 C17.744,18.872 18.042,18.569 18.408,18.569 C18.775,18.569 19.072,18.872 19.072,19.245 L19.072,20.613 L22.551,20.613 L22.551,19.245 C22.551,18.872 22.849,18.569 23.215,18.569 C23.581,18.569 23.879,18.872 23.879,19.245 L23.879,20.613 L24.924,20.613 C26.656,20.613 28.068,22.052 28.068,23.816 L28.068,37.512 C28.068,39.277 26.656,40.715 24.924,40.715 L7.070,40.715 C5.338,40.715 3.934,39.277 3.927,37.520 L3.927,23.816 C3.927,22.052 5.338,20.613 7.070,20.613 ZM5.262,37.512 C5.262,38.530 6.071,39.354 7.070,39.354 L24.917,39.354 C25.916,39.354 26.725,38.530 26.725,37.512 L26.725,27.011 L5.262,27.011 L5.262,37.512 ZM5.262,25.650 L26.732,25.650 L26.732,23.816 C26.732,22.798 25.924,21.974 24.924,21.974 L23.856,21.974 L23.856,23.684 C23.856,24.057 23.558,24.360 23.192,24.360 C22.826,24.360 22.528,24.057 22.528,23.684 L22.528,21.974 L19.049,21.974 L19.049,23.684 C19.049,24.057 18.752,24.360 18.385,24.360 C18.019,24.360 17.722,24.057 17.722,23.684 L17.722,21.974 L14.242,21.974 L14.242,23.684 C14.242,24.057 13.945,24.360 13.579,24.360 C13.212,24.360 12.915,24.057 12.915,23.684 L12.915,21.974 L9.443,21.974 L9.443,23.684 C9.443,24.057 9.146,24.360 8.779,24.360 C8.413,24.360 8.116,24.057 8.116,23.684 L8.116,21.974 L7.070,21.974 C6.071,21.974 5.262,22.798 5.262,23.816 L5.262,25.650 ZM24.283,35.103 L22.132,35.103 C21.765,35.103 21.468,34.799 21.468,34.426 C21.468,34.053 21.765,33.750 22.132,33.750 L24.283,33.750 C24.657,33.750 24.955,34.053 24.947,34.426 C24.947,34.799 24.650,35.103 24.283,35.103 ZM24.283,32.537 L22.132,32.537 C21.765,32.537 21.468,32.226 21.468,31.861 C21.468,31.488 21.765,31.185 22.132,31.185 L24.283,31.185 C24.650,31.185 24.947,31.488 24.947,31.861 C24.947,32.234 24.650,32.537 24.283,32.537 ZM24.283,29.964 L22.132,29.964 C21.765,29.964 21.468,29.661 21.468,29.288 C21.468,28.915 21.765,28.612 22.132,28.612 L24.283,28.612 C24.650,28.612 24.947,28.915 24.947,29.288 C24.947,29.661 24.650,29.964 24.283,29.964 ZM19.476,37.675 L17.325,37.675 C16.959,37.675 16.661,37.372 16.661,36.999 C16.661,36.626 16.959,36.323 17.325,36.323 L19.476,36.323 C19.843,36.323 20.140,36.626 20.140,36.999 C20.140,37.372 19.843,37.675 19.476,37.675 ZM19.476,35.103 L17.325,35.103 C16.959,35.103 16.661,34.799 16.661,34.426 C16.661,34.053 16.959,33.750 17.325,33.750 L19.476,33.750 C19.843,33.750 20.140,34.053 20.140,34.426 C20.140,34.799 19.843,35.103 19.476,35.103 ZM19.476,32.537 L17.325,32.537 C16.959,32.537 16.661,32.226 16.661,31.861 C16.661,31.488 16.959,31.185 17.325,31.185 L19.476,31.185 C19.843,31.185 20.140,31.488 20.140,31.861 C20.140,32.234 19.843,32.537 19.476,32.537 ZM19.476,29.964 L17.325,29.964 C16.959,29.964 16.661,29.661 16.661,29.288 C16.661,28.915 16.959,28.612 17.325,28.612 L19.476,28.612 C19.843,28.612 20.140,28.915 20.140,29.288 C20.140,29.661 19.843,29.964 19.476,29.964 ZM14.670,37.675 L12.518,37.675 C12.144,37.675 11.854,37.372 11.854,36.999 C11.854,36.626 12.152,36.323 12.518,36.323 L14.670,36.323 C15.036,36.323 15.333,36.626 15.333,36.999 C15.333,37.372 15.036,37.675 14.670,37.675 ZM14.670,35.103 L12.518,35.103 C12.144,35.103 11.847,34.799 11.854,34.426 C11.854,34.053 12.152,33.750 12.518,33.750 L14.670,33.750 C15.036,33.750 15.333,34.053 15.333,34.426 C15.333,34.799 15.036,35.103 14.670,35.103 ZM14.670,32.537 L12.518,32.537 C12.144,32.537 11.847,32.226 11.854,31.861 C11.854,31.488 12.152,31.185 12.518,31.185 L14.670,31.185 C15.036,31.185 15.333,31.488 15.333,31.861 C15.333,32.234 15.036,32.537 14.670,32.537 ZM14.670,29.964 L12.518,29.964 C12.144,29.964 11.854,29.661 11.854,29.288 C11.854,28.915 12.152,28.612 12.518,28.612 L14.670,28.612 C15.036,28.612 15.333,28.915 15.333,29.288 C15.333,29.661 15.036,29.964 14.670,29.964 ZM9.863,37.675 L7.711,37.675 C7.345,37.675 7.047,37.372 7.047,36.999 C7.047,36.626 7.345,36.323 7.711,36.323 L9.863,36.323 C10.229,36.323 10.527,36.626 10.527,36.999 C10.527,37.372 10.229,37.675 9.863,37.675 ZM9.863,35.103 L7.711,35.103 C7.345,35.103 7.047,34.799 7.047,34.426 C7.047,34.053 7.345,33.750 7.711,33.750 L9.863,33.750 C10.229,33.750 10.527,34.053 10.527,34.426 C10.527,34.799 10.229,35.103 9.863,35.103 ZM9.863,32.537 L7.711,32.537 C7.337,32.537 7.040,32.226 7.047,31.861 C7.047,31.488 7.345,31.185 7.711,31.185 L9.863,31.185 C10.229,31.185 10.527,31.488 10.527,31.861 C10.527,32.234 10.229,32.537 9.863,32.537 ZM9.863,29.964 L7.711,29.964 C7.337,29.964 7.047,29.661 7.047,29.288 C7.047,28.915 7.345,28.612 7.711,28.612 L9.863,28.612 C10.229,28.612 10.527,28.915 10.527,29.288 C10.527,29.661 10.229,29.964 9.863,29.964 ZM13.113,4.220 L18.889,4.220 C19.255,4.220 19.553,4.523 19.553,4.897 C19.553,5.269 19.255,5.573 18.889,5.573 L13.113,5.573 C12.747,5.573 12.449,5.269 12.449,4.897 C12.449,4.523 12.747,4.220 13.113,4.220 Z"/>
</svg>