<svg 
 xmlns="http://www.w3.org/2000/svg"
 xmlns:xlink="http://www.w3.org/1999/xlink"
 width="27px" height="50px">
<path fill-rule="evenodd"  fill="rgb(252, 252, 252)"
 d="M23.309,49.998 L3.693,49.998 C1.659,49.998 -0.002,48.334 -0.002,46.280 L-0.002,3.717 C-0.002,1.670 1.652,-0.001 3.693,-0.001 L23.302,-0.001 C25.343,-0.001 26.997,1.663 27.004,3.717 L27.004,46.280 C27.004,48.328 25.349,49.998 23.309,49.998 ZM25.871,3.717 C25.871,2.292 24.718,1.132 23.302,1.132 L3.686,1.132 C2.270,1.132 1.118,2.292 1.118,3.717 L1.118,6.955 L25.871,6.955 L25.871,3.717 ZM25.871,8.082 L1.118,8.082 L1.118,41.882 L25.871,41.882 L25.871,8.082 ZM25.877,43.010 L1.124,43.010 L1.124,46.274 C1.124,47.699 2.277,48.858 3.693,48.858 L23.309,48.858 C24.725,48.858 25.877,47.699 25.877,46.274 L25.877,43.010 ZM13.993,46.449 L12.995,46.449 C12.686,46.449 12.435,46.196 12.435,45.885 C12.435,45.575 12.686,45.322 12.995,45.322 L13.993,45.322 C14.302,45.322 14.553,45.575 14.553,45.885 C14.553,46.196 14.302,46.449 13.993,46.449 ZM5.965,17.177 L6.867,17.177 L6.867,16.037 C6.867,15.726 7.118,15.473 7.427,15.473 C7.736,15.473 7.987,15.726 7.987,16.037 L7.987,17.177 L10.916,17.177 L10.916,16.037 C10.916,15.726 11.167,15.473 11.476,15.473 C11.785,15.473 12.036,15.726 12.036,16.037 L12.036,17.177 L14.972,17.177 L14.972,16.037 C14.972,15.726 15.223,15.473 15.532,15.473 C15.841,15.473 16.092,15.726 16.092,16.037 L16.092,17.177 L19.028,17.177 L19.028,16.037 C19.028,15.726 19.279,15.473 19.588,15.473 C19.897,15.473 20.148,15.726 20.148,16.037 L20.148,17.177 L21.030,17.177 C22.491,17.177 23.682,18.375 23.682,19.846 L23.682,31.260 C23.682,32.729 22.491,33.928 21.030,33.928 L5.965,33.928 C4.504,33.928 3.320,32.729 3.313,31.265 L3.313,19.846 C3.313,18.375 4.504,17.177 5.965,17.177 ZM4.440,31.260 C4.440,32.107 5.122,32.795 5.965,32.795 L21.023,32.795 C21.867,32.795 22.549,32.107 22.549,31.260 L22.549,22.508 L4.440,22.508 L4.440,31.260 ZM4.440,21.374 L22.555,21.374 L22.555,19.846 C22.555,18.997 21.873,18.311 21.030,18.311 L20.128,18.311 L20.128,19.735 C20.128,20.046 19.877,20.299 19.568,20.299 C19.259,20.299 19.008,20.046 19.008,19.735 L19.008,18.311 L16.073,18.311 L16.073,19.735 C16.073,20.046 15.822,20.299 15.513,20.299 C15.203,20.299 14.952,20.046 14.952,19.735 L14.952,18.311 L12.017,18.311 L12.017,19.735 C12.017,20.046 11.766,20.299 11.457,20.299 C11.148,20.299 10.897,20.046 10.897,19.735 L10.897,18.311 L7.968,18.311 L7.968,19.735 C7.968,20.046 7.716,20.299 7.407,20.299 C7.098,20.299 6.847,20.046 6.847,19.735 L6.847,18.311 L5.965,18.311 C5.122,18.311 4.440,18.997 4.440,19.846 L4.440,21.374 ZM20.489,29.251 L18.673,29.251 C18.364,29.251 18.113,28.998 18.113,28.687 C18.113,28.377 18.364,28.124 18.673,28.124 L20.489,28.124 C20.804,28.124 21.055,28.377 21.049,28.687 C21.049,28.998 20.798,29.251 20.489,29.251 ZM20.489,27.114 L18.673,27.114 C18.364,27.114 18.113,26.854 18.113,26.550 C18.113,26.239 18.364,25.986 18.673,25.986 L20.489,25.986 C20.798,25.986 21.049,26.239 21.049,26.550 C21.049,26.861 20.798,27.114 20.489,27.114 ZM20.489,24.969 L18.673,24.969 C18.364,24.969 18.113,24.717 18.113,24.406 C18.113,24.095 18.364,23.842 18.673,23.842 L20.489,23.842 C20.798,23.842 21.049,24.095 21.049,24.406 C21.049,24.717 20.798,24.969 20.489,24.969 ZM16.433,31.395 L14.618,31.395 C14.309,31.395 14.058,31.142 14.058,30.832 C14.058,30.521 14.309,30.268 14.618,30.268 L16.433,30.268 C16.742,30.268 16.993,30.521 16.993,30.832 C16.993,31.142 16.742,31.395 16.433,31.395 ZM16.433,29.251 L14.618,29.251 C14.309,29.251 14.058,28.998 14.058,28.687 C14.058,28.377 14.309,28.124 14.618,28.124 L16.433,28.124 C16.742,28.124 16.993,28.377 16.993,28.687 C16.993,28.998 16.742,29.251 16.433,29.251 ZM16.433,27.114 L14.618,27.114 C14.309,27.114 14.058,26.854 14.058,26.550 C14.058,26.239 14.309,25.986 14.618,25.986 L16.433,25.986 C16.742,25.986 16.993,26.239 16.993,26.550 C16.993,26.861 16.742,27.114 16.433,27.114 ZM16.433,24.969 L14.618,24.969 C14.309,24.969 14.058,24.717 14.058,24.406 C14.058,24.095 14.309,23.842 14.618,23.842 L16.433,23.842 C16.742,23.842 16.993,24.095 16.993,24.406 C16.993,24.717 16.742,24.969 16.433,24.969 ZM12.377,31.395 L10.562,31.395 C10.246,31.395 10.002,31.142 10.002,30.832 C10.002,30.521 10.253,30.268 10.562,30.268 L12.377,30.268 C12.686,30.268 12.937,30.521 12.937,30.832 C12.937,31.142 12.686,31.395 12.377,31.395 ZM12.377,29.251 L10.562,29.251 C10.246,29.251 9.995,28.998 10.002,28.687 C10.002,28.377 10.253,28.124 10.562,28.124 L12.377,28.124 C12.686,28.124 12.937,28.377 12.937,28.687 C12.937,28.998 12.686,29.251 12.377,29.251 ZM12.377,27.114 L10.562,27.114 C10.246,27.114 9.995,26.854 10.002,26.550 C10.002,26.239 10.253,25.986 10.562,25.986 L12.377,25.986 C12.686,25.986 12.937,26.239 12.937,26.550 C12.937,26.861 12.686,27.114 12.377,27.114 ZM12.377,24.969 L10.562,24.969 C10.246,24.969 10.002,24.717 10.002,24.406 C10.002,24.095 10.253,23.842 10.562,23.842 L12.377,23.842 C12.686,23.842 12.937,24.095 12.937,24.406 C12.937,24.717 12.686,24.969 12.377,24.969 ZM8.322,31.395 L6.506,31.395 C6.197,31.395 5.946,31.142 5.946,30.832 C5.946,30.521 6.197,30.268 6.506,30.268 L8.322,30.268 C8.631,30.268 8.882,30.521 8.882,30.832 C8.882,31.142 8.631,31.395 8.322,31.395 ZM8.322,29.251 L6.506,29.251 C6.197,29.251 5.946,28.998 5.946,28.687 C5.946,28.377 6.197,28.124 6.506,28.124 L8.322,28.124 C8.631,28.124 8.882,28.377 8.882,28.687 C8.882,28.998 8.631,29.251 8.322,29.251 ZM8.322,27.114 L6.506,27.114 C6.191,27.114 5.940,26.854 5.946,26.550 C5.946,26.239 6.197,25.986 6.506,25.986 L8.322,25.986 C8.631,25.986 8.882,26.239 8.882,26.550 C8.882,26.861 8.631,27.114 8.322,27.114 ZM8.322,24.969 L6.506,24.969 C6.191,24.969 5.946,24.717 5.946,24.406 C5.946,24.095 6.197,23.842 6.506,23.842 L8.322,23.842 C8.631,23.842 8.882,24.095 8.882,24.406 C8.882,24.717 8.631,24.969 8.322,24.969 ZM11.064,3.516 L15.937,3.516 C16.246,3.516 16.498,3.768 16.498,4.079 C16.498,4.390 16.246,4.643 15.937,4.643 L11.064,4.643 C10.755,4.643 10.504,4.390 10.504,4.079 C10.504,3.768 10.755,3.516 11.064,3.516 Z"/>
</svg>