<svg 
 xmlns="http://www.w3.org/2000/svg"
 xmlns:xlink="http://www.w3.org/1999/xlink"
 width="24px" height="24px">
<path fill-rule="evenodd"  fill="rgb(39, 210, 207)"
 d="M12.000,23.999 C5.365,23.999 -0.000,18.634 -0.000,11.999 C-0.000,5.364 5.365,-0.001 12.000,-0.001 C18.635,-0.001 24.000,5.364 24.000,11.999 C24.000,18.634 18.635,23.999 12.000,23.999 ZM12.000,1.411 C6.212,1.411 1.412,6.211 1.412,11.999 C1.412,17.787 6.212,22.587 12.000,22.587 C17.788,22.587 22.588,17.787 22.588,11.999 C22.588,6.211 17.788,1.411 12.000,1.411 ZM11.428,17.334 C11.047,17.715 10.476,17.715 10.094,17.334 C10.094,17.334 9.904,16.953 9.904,16.762 C9.904,16.572 9.904,16.190 10.094,16.001 L13.715,12.381 C13.906,12.189 13.906,11.809 13.715,11.427 L10.094,7.807 C9.714,7.426 9.714,6.855 10.094,6.473 C10.476,6.092 11.047,6.092 11.428,6.473 L15.049,10.094 C16.001,11.046 16.001,12.761 15.049,13.714 L11.428,17.334 Z"/>
</svg>