<svg 
 xmlns="http://www.w3.org/2000/svg"
 xmlns:xlink="http://www.w3.org/1999/xlink"
 width="70px" height="70px">
<path fill-rule="evenodd"  fill="rgb(41, 182, 246)"
 d="M51.389,48.600 C48.930,60.795 38.457,69.999 25.956,69.999 C11.650,69.999 -0.004,57.942 -0.004,43.116 C-0.004,28.619 25.956,-0.001 25.956,-0.001 C25.956,-0.001 33.276,8.047 39.263,16.342 C44.249,8.446 51.931,-0.001 51.931,-0.001 C51.931,-0.001 70.321,19.911 70.001,29.928 C69.515,44.728 57.236,48.903 51.389,48.600 ZM25.956,3.362 C21.650,8.240 2.246,30.934 2.246,43.116 C2.246,56.702 12.886,67.753 25.956,67.753 C39.041,67.753 49.680,56.702 49.666,43.116 C49.666,30.934 30.262,8.240 25.956,3.362 ZM40.680,18.326 C46.499,26.635 51.931,36.240 51.931,43.116 C51.931,44.218 51.861,45.307 51.736,46.367 C60.528,46.588 67.737,38.995 67.737,29.928 C67.737,21.964 55.306,7.220 51.931,3.362 C49.889,5.690 44.583,11.960 40.680,18.326 ZM25.970,57.680 C17.872,57.680 11.288,51.149 11.288,43.116 C11.288,35.082 17.872,28.550 25.970,28.550 C34.068,28.550 40.652,35.082 40.652,43.116 C40.652,51.149 34.068,57.680 25.970,57.680 ZM25.970,30.797 C19.122,30.797 13.552,36.322 13.552,43.116 C13.552,49.909 19.122,55.434 25.970,55.434 C32.818,55.434 38.388,49.909 38.388,43.116 C38.388,36.322 32.818,30.797 25.970,30.797 ZM27.095,50.956 L24.831,50.956 L24.831,44.232 L18.053,44.232 L18.053,41.999 L24.831,41.999 L24.831,35.275 L27.095,35.275 L27.095,41.999 L33.873,41.999 L33.873,44.232 L27.095,44.232 L27.095,50.956 ZM24.831,19.594 L27.095,19.594 L27.095,21.840 L24.831,21.840 L24.831,19.594 ZM24.831,15.115 L27.095,15.115 L27.095,17.361 L24.831,17.361 L24.831,15.115 ZM24.831,10.624 L27.095,10.624 L27.095,12.869 L24.831,12.869 L24.831,10.624 Z"/>
</svg>