<svg 
 xmlns="http://www.w3.org/2000/svg"
 xmlns:xlink="http://www.w3.org/1999/xlink"
 width="80px" height="45px">
<path fill-rule="evenodd"  fill="rgb(255, 255, 255)"
 d="M79.998,23.815 L79.998,44.012 C79.998,44.556 79.560,44.999 79.023,44.999 C78.485,44.999 78.048,44.556 78.048,44.012 L78.048,35.129 L1.948,35.129 L1.948,44.012 C1.948,44.556 1.510,44.999 0.973,44.999 C0.436,44.999 -0.001,44.556 -0.001,44.012 L-0.001,0.984 C-0.001,0.441 0.436,-0.001 0.973,-0.001 C1.510,-0.001 1.948,0.441 1.948,0.984 L1.948,22.801 L21.900,22.801 L21.950,22.399 C22.638,16.873 27.304,12.706 32.805,12.706 L69.049,12.706 C75.077,12.706 79.984,17.662 80.000,23.759 L79.998,23.815 ZM1.948,24.772 L1.948,33.157 L39.022,33.157 L39.022,24.772 L1.948,24.772 ZM32.806,14.677 C28.404,14.677 24.675,17.868 23.940,22.264 L23.850,22.800 L39.022,22.800 L39.023,14.677 L32.806,14.677 ZM69.049,14.678 L40.971,14.678 L40.971,33.157 L78.047,33.157 L78.050,23.765 C78.040,18.755 74.001,14.678 69.049,14.678 ZM13.044,20.596 C9.151,20.596 5.984,17.390 5.983,13.448 C5.983,9.508 9.151,6.304 13.044,6.304 C16.939,6.304 20.107,9.508 20.107,13.448 C20.107,17.390 16.939,20.596 13.044,20.596 ZM13.044,8.277 C10.226,8.277 7.933,10.597 7.932,13.449 C7.932,16.304 10.225,18.625 13.044,18.625 C15.864,18.625 18.159,16.304 18.159,13.449 C18.159,10.597 15.864,8.277 13.044,8.277 Z"/>
</svg>