<svg 
 xmlns="http://www.w3.org/2000/svg"
 xmlns:xlink="http://www.w3.org/1999/xlink"
 width="76px" height="70px">
<path fill-rule="evenodd"  fill="rgb(41, 182, 246)"
 d="M69.408,38.519 L38.006,69.995 L8.764,40.685 L12.215,40.685 L38.006,66.535 L67.683,36.789 C71.468,32.995 73.553,27.943 73.553,22.563 C73.553,17.183 71.468,12.131 67.683,8.339 C63.891,4.539 58.851,2.446 53.490,2.446 C48.722,2.446 44.061,4.225 40.365,7.456 L38.006,9.666 L35.666,7.474 C31.953,4.227 27.291,2.448 22.521,2.448 C17.159,2.448 12.119,4.540 8.328,8.339 C3.312,13.367 1.385,20.674 3.187,27.610 L0.671,27.610 C-1.095,19.939 1.102,12.125 6.603,6.609 C10.855,2.347 16.508,0.000 22.521,0.000 C28.007,0.000 33.336,2.083 37.526,5.866 L38.006,6.299 L38.485,5.866 C42.674,2.083 48.003,0.000 53.490,0.000 C59.503,0.000 65.156,2.347 69.408,6.609 C78.184,15.407 78.184,29.721 69.408,38.519 ZM1.230,32.921 L15.886,32.921 L23.325,14.289 C23.509,13.823 23.961,13.523 24.476,13.523 L24.564,13.526 C25.091,13.569 25.531,13.953 25.649,14.480 L31.735,41.933 L33.122,41.975 L38.770,22.166 C38.916,21.648 39.376,21.293 39.916,21.280 L40.000,21.273 C40.033,21.269 40.066,21.267 40.099,21.267 C40.509,21.267 40.938,21.631 41.100,22.116 L44.691,32.921 L59.297,32.921 C59.969,32.921 60.516,33.469 60.516,34.143 C60.516,34.818 59.969,35.366 59.297,35.366 L43.812,35.366 C43.286,35.366 42.820,35.030 42.653,34.530 L40.032,26.640 L33.370,50.003 C33.222,50.524 32.740,50.888 32.199,50.888 L32.142,50.888 C31.604,50.871 31.128,50.477 31.007,49.930 L24.124,18.872 L17.846,34.598 C17.664,35.058 17.211,35.366 16.718,35.366 L1.230,35.366 C0.557,35.366 0.010,34.818 0.010,34.143 C0.010,33.469 0.557,32.921 1.230,32.921 Z"/>
</svg>