<svg 
 xmlns="http://www.w3.org/2000/svg"
 xmlns:xlink="http://www.w3.org/1999/xlink"
 width="51px" height="60px">
<path fill-rule="evenodd"  fill="rgb(255, 255, 255)"
 d="M35.694,59.999 C29.048,59.999 23.407,55.695 21.299,49.714 L4.247,49.714 C1.907,49.714 -0.003,47.787 -0.003,45.428 L-0.003,4.285 C-0.003,1.926 1.907,-0.000 4.247,-0.000 L31.445,-0.000 C33.784,-0.000 35.694,1.926 35.694,4.285 L35.694,29.142 C44.134,29.142 50.993,36.060 50.993,44.571 C50.993,53.082 44.134,59.999 35.694,59.999 ZM33.994,4.285 C33.994,2.845 32.872,1.714 31.445,1.714 L4.247,1.714 C2.819,1.714 1.697,2.845 1.697,4.285 L1.697,45.428 C1.697,46.867 2.819,48.000 4.247,48.000 L20.794,48.000 C20.544,46.895 20.395,45.750 20.395,44.571 C20.395,36.639 26.352,30.104 33.994,29.250 L33.994,4.285 ZM35.694,30.856 C28.174,30.856 22.095,36.986 22.095,44.571 C22.095,52.155 28.174,58.285 35.694,58.285 C43.215,58.285 49.293,52.155 49.293,44.571 C49.293,36.986 43.215,30.856 35.694,30.856 ZM33.543,43.714 L37.846,43.714 C39.956,43.714 41.644,45.510 41.644,47.571 C41.644,49.640 39.902,51.428 37.739,51.428 L36.544,51.428 L36.544,54.000 C36.544,54.008 36.544,54.016 36.544,54.023 C36.538,54.497 36.152,54.875 35.682,54.869 C35.213,54.862 34.838,54.473 34.844,54.000 L34.844,51.428 L31.445,51.428 C31.437,51.428 31.429,51.428 31.421,51.428 C30.951,51.422 30.576,51.032 30.583,50.559 C30.589,50.085 30.975,49.707 31.445,49.714 L37.739,49.714 C38.967,49.714 39.944,48.636 39.944,47.571 C39.944,46.498 38.932,45.428 37.846,45.428 L33.543,45.428 C31.432,45.428 29.745,43.604 29.745,41.544 C29.745,39.475 31.487,37.713 33.649,37.713 L34.844,37.713 L34.844,35.142 C34.827,34.697 35.150,34.313 35.588,34.259 C35.634,34.252 35.681,34.251 35.728,34.252 C36.197,34.270 36.563,34.669 36.544,35.142 L36.544,37.713 L39.944,37.713 C39.952,37.713 39.960,37.713 39.968,37.713 C40.437,37.720 40.813,38.109 40.806,38.583 C40.799,39.056 40.413,39.435 39.944,39.428 L33.649,39.428 C32.421,39.428 31.445,40.479 31.445,41.544 C31.445,42.618 32.456,43.714 33.543,43.714 ZM13.941,23.908 C13.897,23.435 14.242,23.015 14.712,22.971 C14.765,22.965 14.818,22.965 14.871,22.971 L28.895,22.971 C28.903,22.971 28.911,22.971 28.919,22.971 C29.388,22.977 29.763,23.367 29.757,23.840 C29.750,24.314 29.364,24.692 28.895,24.685 L14.871,24.685 C14.401,24.729 13.985,24.382 13.941,23.908 ZM28.895,16.628 L14.871,16.628 C14.401,16.672 13.985,16.325 13.941,15.851 C13.897,15.378 14.242,14.958 14.712,14.913 C14.765,14.908 14.818,14.908 14.871,14.913 L28.895,14.913 C28.903,14.913 28.911,14.913 28.919,14.913 C29.388,14.920 29.763,15.309 29.757,15.783 C29.750,16.256 29.364,16.635 28.895,16.628 ZM28.895,8.571 L14.871,8.571 C14.401,8.615 13.985,8.267 13.941,7.794 C13.897,7.321 14.242,6.901 14.712,6.857 C14.765,6.852 14.818,6.852 14.871,6.857 L28.895,6.857 C28.903,6.857 28.911,6.857 28.919,6.857 C29.388,6.863 29.763,7.252 29.757,7.726 C29.750,8.199 29.364,8.578 28.895,8.571 ZM8.741,24.421 L7.488,24.421 C7.431,24.421 7.385,24.467 7.385,24.526 L7.385,25.806 C7.385,26.143 7.105,26.415 6.767,26.399 C6.451,26.383 6.208,26.108 6.208,25.789 L6.208,24.526 C6.208,24.467 6.162,24.421 6.105,24.421 L4.852,24.421 C4.535,24.421 4.263,24.176 4.247,23.858 C4.231,23.518 4.501,23.235 4.835,23.235 L6.105,23.235 C6.162,23.235 6.208,23.188 6.208,23.130 L6.208,21.850 C6.208,21.513 6.488,21.241 6.826,21.257 C7.142,21.273 7.385,21.548 7.385,21.867 L7.385,23.130 C7.385,23.188 7.431,23.235 7.488,23.235 L8.758,23.235 C9.092,23.235 9.362,23.518 9.346,23.857 C9.330,24.176 9.057,24.421 8.741,24.421 ZM8.741,16.364 L7.488,16.364 C7.431,16.364 7.385,16.410 7.385,16.468 L7.385,17.749 C7.385,18.086 7.105,18.359 6.767,18.341 C6.451,18.325 6.208,18.051 6.208,17.732 L6.208,16.468 C6.208,16.410 6.162,16.364 6.105,16.364 L4.852,16.364 C4.535,16.364 4.263,16.119 4.247,15.801 C4.231,15.460 4.501,15.178 4.835,15.178 L6.105,15.178 C6.162,15.178 6.208,15.131 6.208,15.073 L6.208,13.792 C6.208,13.456 6.488,13.183 6.826,13.200 C7.142,13.216 7.385,13.491 7.385,13.810 L7.385,15.073 C7.385,15.131 7.431,15.178 7.488,15.178 L8.758,15.178 C9.092,15.178 9.362,15.460 9.346,15.800 C9.330,16.119 9.057,16.364 8.741,16.364 ZM8.741,8.307 L7.488,8.307 C7.431,8.307 7.385,8.353 7.385,8.411 L7.385,9.692 C7.385,10.029 7.105,10.301 6.767,10.284 C6.451,10.268 6.208,9.994 6.208,9.675 L6.208,8.411 C6.208,8.353 6.162,8.307 6.105,8.307 L4.852,8.307 C4.535,8.307 4.263,8.062 4.247,7.743 C4.231,7.403 4.501,7.120 4.835,7.120 L6.105,7.120 C6.162,7.120 6.208,7.074 6.208,7.016 L6.208,5.735 C6.208,5.398 6.488,5.126 6.826,5.143 C7.142,5.159 7.385,5.434 7.385,5.752 L7.385,7.016 C7.385,7.074 7.431,7.120 7.488,7.120 L8.758,7.120 C9.092,7.120 9.362,7.403 9.346,7.743 C9.330,8.062 9.057,8.307 8.741,8.307 Z"/>
</svg>