<svg 
 xmlns="http://www.w3.org/2000/svg"
 xmlns:xlink="http://www.w3.org/1999/xlink"
 width="57px" height="70px">
<path fill-rule="evenodd"  fill="rgb(41, 182, 246)"
 d="M47.704,36.167 C42.965,36.167 39.051,39.733 38.477,44.330 L25.597,44.330 L25.597,37.187 C26.807,36.885 27.851,36.116 28.510,34.999 L43.544,9.507 C44.426,8.020 44.437,6.236 43.585,4.733 C42.733,3.229 41.192,2.336 39.466,2.336 L36.823,2.336 C36.164,0.956 34.778,-0.001 33.159,-0.001 C31.300,-0.001 26.754,1.429 26.754,4.084 C26.754,6.732 31.300,8.169 33.159,8.169 C35.204,8.169 36.885,6.642 37.170,4.665 L39.466,4.665 C40.340,4.665 41.124,5.121 41.562,5.890 C41.994,6.652 41.988,7.565 41.538,8.322 L26.506,33.815 C26.068,34.554 25.290,34.999 24.432,34.999 C23.568,34.999 22.795,34.554 22.346,33.803 L6.891,8.322 C6.443,7.565 6.438,6.652 6.870,5.890 C7.306,5.121 8.090,4.665 8.966,4.665 L11.687,4.665 C11.976,6.642 13.659,8.169 15.704,8.169 C17.562,8.169 22.102,6.732 22.102,4.084 C22.102,1.429 17.562,-0.001 15.704,-0.001 C14.085,-0.001 12.692,0.956 12.039,2.336 L8.966,2.336 C7.243,2.336 5.705,3.229 4.846,4.733 C3.994,6.236 4.011,8.020 4.897,9.518 L20.352,35.005 C21.011,36.116 22.056,36.885 23.267,37.187 L23.267,44.330 L12.795,44.330 C5.738,44.330 -0.006,50.090 -0.006,57.164 C-0.006,64.240 5.738,69.999 12.795,69.999 C19.851,69.999 25.597,64.240 25.597,57.164 L25.597,46.666 L38.477,46.666 C39.051,51.263 42.965,54.836 47.704,54.836 C52.834,54.836 57.010,50.648 57.010,45.498 C57.010,40.354 52.834,36.167 47.704,36.167 L47.704,36.167 ZM23.267,57.164 C23.267,62.959 18.568,67.663 12.795,67.663 C7.022,67.663 2.324,62.959 2.324,57.164 C2.324,51.376 7.022,46.666 12.795,46.666 L23.267,46.666 L23.267,57.164 ZM47.704,50.163 C45.135,50.163 43.051,48.074 43.051,45.498 C43.051,42.924 45.135,40.833 47.704,40.833 C50.271,40.833 52.357,42.924 52.357,45.498 C52.357,48.074 50.271,50.163 47.704,50.163 L47.704,50.163 Z"/>
</svg>