<svg xmlns="http://www.w3.org/2000/svg" xmlns:xlink="http://www.w3.org/1999/xlink" width="36px" height="36px">
<path fill-rule="evenodd"  fill="rgb(255, 255, 255)"
 d="M34.563,24.991 C32.664,29.419 29.439,32.660 24.977,34.563 C22.749,35.515 20.411,35.999 17.971,35.999 C15.529,35.999 13.210,35.519 10.984,34.563 C6.559,32.664 3.319,29.426 1.416,24.991 C0.465,22.769 -0.000,20.422 -0.000,17.981 C-0.000,15.538 0.465,13.211 1.416,10.989 C3.319,6.555 6.559,3.337 10.984,1.437 C13.210,0.482 15.529,-0.001 17.971,-0.001 C20.411,-0.001 22.749,0.486 24.977,1.437 C29.441,3.341 32.666,6.562 34.563,10.989 C35.520,13.217 36.000,15.538 36.000,17.981 C36.000,20.422 35.518,22.763 34.563,24.991 ZM31.690,10.064 C30.271,7.642 28.340,5.715 25.902,4.293 C23.478,2.880 20.826,2.166 17.971,2.166 C15.117,2.166 12.478,2.876 10.059,4.293 C7.638,5.711 5.702,7.637 4.291,10.064 C2.887,12.481 2.185,15.125 2.185,17.981 C2.185,20.126 2.590,22.199 3.426,24.144 C4.262,26.099 5.384,27.798 6.791,29.206 C8.199,30.614 9.880,31.726 11.830,32.574 C13.778,33.421 15.826,33.835 17.971,33.835 C20.826,33.835 23.480,33.121 25.902,31.708 C28.342,30.286 30.278,28.362 31.690,25.937 C33.111,23.498 33.814,20.836 33.814,17.981 C33.814,15.125 33.107,12.485 31.690,10.064 ZM23.107,24.913 L17.223,19.025 C16.987,18.788 16.889,18.492 16.928,18.137 C16.928,18.080 16.889,17.999 16.889,17.981 L16.889,7.620 C16.889,7.010 17.399,6.517 17.971,6.517 C18.580,6.517 19.111,7.010 19.111,7.620 L19.111,17.823 L24.623,23.376 C25.047,23.803 25.076,24.460 24.623,24.913 C24.231,25.307 23.501,25.307 23.107,24.913 Z"/>
</svg>