<svg 
 xmlns="http://www.w3.org/2000/svg"
 xmlns:xlink="http://www.w3.org/1999/xlink"
 width="16px" height="14px">
<path fill-rule="evenodd"  fill="rgb(87, 113, 136)"
 d="M14.927,2.902 C14.213,2.006 13.243,1.299 12.017,0.779 C10.791,0.259 9.452,-0.000 7.999,-0.000 C6.547,-0.000 5.208,0.259 3.982,0.779 C2.755,1.299 1.785,2.006 1.071,2.902 C0.357,3.799 -0.000,4.776 -0.000,5.833 C-0.000,6.744 0.269,7.598 0.808,8.394 C1.347,9.191 2.083,9.859 3.018,10.400 C2.952,10.643 2.875,10.874 2.785,11.092 C2.696,11.311 2.616,11.490 2.544,11.630 C2.473,11.770 2.376,11.925 2.254,12.094 C2.132,12.265 2.040,12.385 1.977,12.455 C1.915,12.524 1.812,12.640 1.669,12.801 C1.526,12.962 1.434,13.067 1.393,13.116 C1.387,13.119 1.363,13.147 1.321,13.198 C1.280,13.250 1.259,13.275 1.259,13.275 L1.205,13.357 C1.175,13.402 1.162,13.432 1.165,13.444 C1.168,13.456 1.162,13.486 1.147,13.535 C1.132,13.583 1.134,13.620 1.151,13.644 L1.151,13.653 C1.175,13.757 1.223,13.840 1.294,13.904 C1.366,13.968 1.446,13.999 1.535,13.999 L1.580,13.999 C1.967,13.951 2.306,13.884 2.598,13.799 C4.157,13.392 5.527,12.657 6.705,11.593 C7.151,11.642 7.583,11.666 7.999,11.666 C9.452,11.666 10.791,11.406 12.017,10.887 C13.243,10.367 14.213,9.660 14.927,8.763 C15.642,7.867 15.999,6.890 15.999,5.833 C15.999,4.776 15.642,3.799 14.927,2.902 L14.927,2.902 ZM13.923,8.157 C13.301,8.874 12.462,9.444 11.405,9.866 C10.349,10.288 9.213,10.500 7.999,10.500 C7.636,10.500 7.249,10.475 6.839,10.427 L6.330,10.372 L5.945,10.719 C5.213,11.375 4.395,11.894 3.491,12.277 C3.764,11.785 3.973,11.262 4.116,10.710 L4.356,9.834 L3.580,9.379 C2.806,8.929 2.206,8.396 1.781,7.779 C1.355,7.162 1.143,6.514 1.143,5.833 C1.143,5.001 1.454,4.226 2.075,3.508 C2.698,2.792 3.537,2.222 4.593,1.800 C5.650,1.378 6.785,1.166 7.999,1.166 C9.214,1.166 10.349,1.377 11.405,1.800 C12.462,2.222 13.301,2.792 13.923,3.508 C14.545,4.226 14.856,5.001 14.856,5.833 C14.856,6.666 14.545,7.440 13.923,8.157 L13.923,8.157 Z"/>
</svg>