<svg 
 xmlns="http://www.w3.org/2000/svg"
 xmlns:xlink="http://www.w3.org/1999/xlink"
 width="16px" height="16px">
<path fill-rule="evenodd"  fill="rgb(134, 160, 185)"
 d="M15.361,11.105 C14.517,13.074 13.084,14.514 11.101,15.359 C10.110,15.783 9.072,15.998 7.987,15.998 C6.902,15.998 5.871,15.785 4.882,15.359 C2.915,14.516 1.475,13.077 0.629,11.105 C0.207,10.118 -0.000,9.075 -0.000,7.990 C-0.000,6.905 0.207,5.870 0.629,4.883 C1.475,2.912 2.915,1.482 4.882,0.637 C5.871,0.212 6.902,-0.001 7.987,-0.001 C9.072,-0.001 10.110,0.215 11.101,0.637 C13.085,1.484 14.518,2.915 15.361,4.883 C15.787,5.872 16.000,6.905 16.000,7.990 C16.000,9.075 15.786,10.115 15.361,11.105 ZM14.084,4.471 C13.454,3.394 12.595,2.539 11.512,1.907 C10.435,1.278 9.256,0.960 7.987,0.960 C6.719,0.960 5.546,1.277 4.470,1.907 C3.394,2.537 2.534,3.392 1.907,4.471 C1.283,5.545 0.971,6.721 0.971,7.990 C0.971,8.943 1.151,9.864 1.522,10.729 C1.894,11.598 2.393,12.353 3.018,12.979 C3.644,13.605 4.391,14.098 5.258,14.476 C6.124,14.852 7.034,15.037 7.987,15.037 C9.256,15.037 10.436,14.720 11.512,14.090 C12.596,13.459 13.457,12.603 14.084,11.526 C14.716,10.442 15.029,9.259 15.029,7.990 C15.029,6.721 14.714,5.547 14.084,4.471 ZM10.270,11.071 L7.654,8.454 C7.550,8.348 7.506,8.217 7.523,8.059 C7.523,8.034 7.506,7.998 7.506,7.990 L7.506,3.385 C7.506,3.114 7.733,2.895 7.987,2.895 C8.258,2.895 8.494,3.114 8.494,3.385 L8.494,7.920 L10.943,10.388 C11.132,10.578 11.145,10.869 10.943,11.071 C10.769,11.246 10.445,11.246 10.270,11.071 Z"/>
</svg>