<svg 
 xmlns="http://www.w3.org/2000/svg"
 xmlns:xlink="http://www.w3.org/1999/xlink"
 width="82px" height="70px">
<path fill-rule="evenodd"  fill="rgb(41, 182, 246)"
 d="M72.429,69.999 L9.569,69.999 C4.297,69.994 0.005,65.698 -0.001,60.421 L-0.001,21.650 C0.005,16.374 4.297,12.077 9.570,12.071 L27.568,12.071 L27.568,6.782 C27.568,2.852 30.213,-0.001 33.858,-0.001 L47.524,-0.001 C51.333,-0.001 54.431,3.043 54.431,6.782 L54.431,12.071 L72.430,12.071 C77.701,12.077 81.994,16.374 82.000,21.651 L82.000,60.421 C81.994,65.698 77.701,69.994 72.429,69.999 ZM51.691,6.782 C51.691,4.554 49.822,2.741 47.524,2.741 L33.858,2.741 C31.406,2.741 30.308,4.771 30.308,6.782 L30.308,12.071 L51.691,12.071 L51.691,6.782 ZM79.260,21.650 C79.256,17.885 76.193,14.818 72.431,14.813 L9.568,14.813 C5.806,14.818 2.742,17.885 2.739,21.650 L2.739,60.421 C2.742,64.187 5.806,67.254 9.569,67.257 L72.430,67.257 C76.195,67.254 79.259,64.185 79.260,60.416 L79.260,21.650 ZM58.230,49.305 L49.262,49.305 L49.262,58.281 C49.262,59.037 48.647,59.652 47.891,59.652 L34.107,59.652 C33.352,59.652 32.737,59.037 32.737,58.281 L32.737,49.305 L23.768,49.305 C23.013,49.305 22.399,48.690 22.399,47.934 L22.399,34.137 C22.399,33.381 23.013,32.766 23.768,32.766 L32.737,32.766 L32.737,23.790 C32.737,23.034 33.352,22.420 34.107,22.420 L47.891,22.420 C48.647,22.420 49.262,23.034 49.262,23.790 L49.262,32.766 L58.230,32.766 C58.986,32.766 59.600,33.381 59.600,34.137 L59.600,47.934 C59.600,48.690 58.986,49.305 58.230,49.305 ZM56.860,35.508 L47.891,35.508 C47.136,35.508 46.522,34.893 46.522,34.137 L46.522,25.161 L35.477,25.161 L35.477,34.137 C35.477,34.893 34.863,35.508 34.107,35.508 L25.139,35.508 L25.139,46.563 L34.107,46.563 C34.863,46.563 35.477,47.178 35.477,47.934 L35.477,56.910 L46.522,56.910 L46.522,47.934 C46.522,47.178 47.136,46.563 47.891,46.563 L56.860,46.563 L56.860,35.508 Z"/>
</svg>