<svg 
 xmlns="http://www.w3.org/2000/svg"
 xmlns:xlink="http://www.w3.org/1999/xlink"
 width="41px" height="50px">
<path fill-rule="evenodd"  fill="rgb(252, 252, 252)"
 d="M38.683,49.998 L2.307,49.998 C2.067,49.998 1.830,49.961 1.602,49.887 C0.386,49.496 -0.287,48.184 0.102,46.963 L1.226,43.421 C2.695,39.431 6.536,36.744 10.780,36.744 L13.303,36.744 L13.358,36.564 C13.871,34.875 13.974,33.064 13.656,31.327 C13.552,30.425 13.397,29.503 13.198,28.602 L13.183,28.536 L13.138,28.487 C12.122,27.368 11.484,25.922 11.341,24.415 L11.312,24.110 L11.021,24.196 C10.932,24.222 10.840,24.238 10.748,24.242 C10.630,24.242 10.503,24.220 10.382,24.178 C9.312,23.820 8.770,21.887 8.770,18.429 C8.700,17.553 8.945,16.703 9.460,16.018 L9.564,15.880 L9.473,15.733 C8.700,14.478 8.208,13.099 8.012,11.634 C7.945,11.181 7.912,10.719 7.915,10.260 C7.915,3.162 15.095,2.342 20.495,2.342 L20.609,2.342 C22.374,2.342 24.200,2.342 25.835,1.439 C27.174,0.698 28.439,-0.001 29.567,-0.001 C30.004,-0.001 30.393,0.103 30.755,0.319 C32.260,1.213 33.076,3.063 33.076,10.259 C33.071,12.194 32.531,14.086 31.515,15.729 L31.424,15.877 L31.528,16.015 C32.045,16.702 32.291,17.551 32.221,18.409 C32.220,21.887 31.679,23.820 30.610,24.177 C30.487,24.220 30.360,24.242 30.230,24.242 C30.150,24.238 30.058,24.222 29.969,24.196 L29.678,24.110 L29.649,24.414 C29.506,25.922 28.868,27.369 27.852,28.487 L27.807,28.536 L27.792,28.602 C27.594,29.505 27.438,30.424 27.332,31.337 C27.016,33.061 27.120,34.873 27.633,36.564 L27.687,36.744 L30.211,36.744 C30.664,36.746 31.123,36.781 31.575,36.845 L31.638,36.854 C35.326,37.364 38.443,39.870 39.754,43.392 L40.889,46.963 C40.962,47.192 40.999,47.430 40.999,47.670 C40.999,48.954 39.960,49.998 38.683,49.998 ZM10.598,22.826 L10.750,23.093 L10.981,22.891 C11.131,22.758 11.267,22.611 11.386,22.452 L11.434,22.387 L11.437,22.308 C11.488,20.618 11.324,18.925 10.948,17.276 L10.928,17.192 L10.861,17.137 C10.812,17.097 10.761,17.061 10.708,17.028 L10.664,17.002 L10.613,16.993 C10.570,16.986 10.527,16.974 10.487,16.959 L10.241,16.860 L10.156,17.111 C10.009,17.543 9.950,17.991 9.979,18.446 C9.979,21.505 10.452,22.572 10.598,22.826 ZM31.867,10.259 C31.867,3.000 30.975,1.861 30.139,1.363 C29.975,1.266 29.777,1.217 29.552,1.217 C28.748,1.217 27.617,1.842 26.419,2.502 C24.656,3.476 22.611,3.557 20.495,3.557 C10.416,3.557 9.123,7.139 9.123,10.259 C9.121,10.659 9.150,11.066 9.208,11.465 C9.381,12.751 9.814,13.966 10.492,15.074 L10.682,15.383 L14.797,10.098 C14.825,10.059 14.846,10.031 14.868,10.003 C15.257,9.506 15.841,9.221 16.471,9.221 C16.931,9.221 17.366,9.371 17.728,9.658 C18.519,10.269 19.501,10.604 20.495,10.604 C21.499,10.604 22.451,10.281 23.249,9.668 C23.282,9.642 23.312,9.619 23.343,9.597 C23.688,9.352 24.095,9.222 24.518,9.222 C25.180,9.222 25.804,9.546 26.185,10.088 L29.932,14.900 L30.595,14.920 L30.669,14.788 C31.450,13.411 31.864,11.845 31.867,10.259 ZM29.557,22.389 L29.605,22.454 C29.725,22.612 29.860,22.759 30.009,22.891 L30.240,23.093 L30.393,22.826 C30.538,22.572 31.012,21.505 31.012,18.429 C31.041,17.991 30.981,17.542 30.834,17.109 L30.755,16.875 L30.519,16.952 C30.485,16.962 30.451,16.970 30.416,16.975 L30.370,16.981 L30.329,17.004 C30.263,17.040 30.201,17.081 30.141,17.127 L30.070,17.182 L30.049,17.270 C29.670,18.921 29.504,20.616 29.555,22.310 L29.557,22.389 ZM28.445,24.381 C28.445,24.184 28.437,23.987 28.422,23.798 C28.181,21.327 28.372,18.859 28.987,16.461 C28.995,16.423 29.007,16.380 29.019,16.336 L29.067,16.163 C29.079,16.115 29.086,16.075 29.093,16.035 L29.134,15.845 L25.242,10.848 C25.244,10.848 25.229,10.824 25.212,10.802 C25.050,10.582 24.789,10.450 24.515,10.450 C24.327,10.450 24.148,10.510 23.998,10.623 C22.982,11.406 21.772,11.819 20.495,11.819 C19.223,11.819 18.016,11.408 17.005,10.632 C16.980,10.613 16.955,10.596 16.929,10.580 C16.794,10.497 16.637,10.452 16.477,10.452 C16.170,10.452 15.892,10.608 15.732,10.871 L11.851,15.850 L11.909,16.091 L11.940,16.201 C12.610,18.711 12.818,21.254 12.569,23.801 C12.553,23.986 12.545,24.183 12.545,24.381 C12.545,26.124 14.367,28.569 17.676,31.263 C18.471,31.911 19.472,32.268 20.495,32.268 C21.518,32.268 22.518,31.912 23.312,31.264 C26.622,28.569 28.445,26.124 28.445,24.381 ZM20.495,40.183 C22.095,40.183 23.682,39.774 25.085,39.000 L25.154,38.963 L25.189,38.891 C25.508,38.245 25.915,37.647 26.400,37.114 L26.495,37.010 L26.455,36.872 C25.922,35.045 25.809,33.087 26.129,31.211 C26.136,31.157 26.165,30.960 26.165,30.960 L26.249,30.274 L25.745,30.745 C25.153,31.296 24.623,31.761 24.076,32.206 C23.066,33.029 21.794,33.482 20.495,33.482 C19.195,33.482 17.923,33.029 16.913,32.205 C16.362,31.756 15.832,31.292 15.245,30.743 L14.741,30.274 L14.825,30.959 C14.825,30.959 14.854,31.161 14.859,31.200 C15.181,33.090 15.068,35.047 14.535,36.872 L14.495,37.010 L14.591,37.114 C15.075,37.647 15.483,38.245 15.801,38.891 L15.837,38.963 L15.905,39.000 C17.308,39.774 18.895,40.183 20.495,40.183 ZM16.757,40.768 L17.008,41.285 C18.486,44.322 19.585,46.203 20.495,46.203 C21.405,46.203 22.504,44.322 23.982,41.285 L24.234,40.768 L23.685,40.932 C22.649,41.241 21.576,41.398 20.495,41.398 C19.414,41.398 18.341,41.241 17.305,40.932 L16.757,40.768 ZM39.738,47.333 L38.612,43.790 C37.586,41.074 35.316,39.016 32.536,38.271 L32.220,38.187 L32.220,41.902 L32.471,41.903 C33.746,41.904 34.785,42.948 34.786,44.231 L34.786,45.951 C34.786,46.286 34.515,46.559 34.182,46.559 L33.327,46.559 C32.994,46.559 32.722,46.286 32.722,45.951 C32.722,45.616 32.994,45.343 33.327,45.343 L33.578,45.343 L33.578,44.231 C33.577,43.618 33.081,43.118 32.472,43.118 L30.760,43.118 C30.151,43.118 29.654,43.618 29.654,44.230 L29.654,45.343 L29.905,45.343 C30.238,45.343 30.509,45.616 30.509,45.951 C30.509,46.286 30.238,46.559 29.905,46.559 L29.050,46.559 C28.716,46.558 28.445,46.286 28.445,45.951 L28.445,44.231 C28.447,42.948 29.485,41.904 30.761,41.903 L31.012,41.902 L31.012,38.000 L30.657,37.977 C30.509,37.967 30.361,37.957 30.211,37.957 L27.231,37.957 L27.156,38.064 C26.379,39.171 25.712,40.361 25.174,41.600 C23.722,44.588 22.346,47.418 20.495,47.418 C18.644,47.418 17.268,44.588 15.812,41.591 C15.278,40.361 14.612,39.172 13.836,38.064 L13.761,37.957 L11.282,37.957 L11.212,38.017 C10.074,38.972 9.349,40.313 9.170,41.792 L9.146,41.990 L9.332,42.060 C9.983,42.304 10.486,42.824 10.711,43.486 C11.122,44.698 10.476,46.019 9.270,46.434 C9.028,46.517 8.777,46.559 8.524,46.559 C7.536,46.559 6.657,45.927 6.338,44.986 C5.927,43.774 6.573,42.451 7.778,42.037 L7.932,41.984 L7.947,41.822 C8.055,40.654 8.460,39.526 9.119,38.559 L9.478,38.034 L8.859,38.171 C5.868,38.825 3.442,40.937 2.368,43.818 L1.253,47.332 C1.218,47.442 1.201,47.556 1.201,47.671 C1.201,48.285 1.697,48.783 2.306,48.783 L38.683,48.783 C38.797,48.783 38.909,48.765 39.019,48.731 C39.601,48.544 39.923,47.917 39.738,47.333 ZM8.519,43.118 L8.519,43.118 C7.909,43.118 7.413,43.618 7.412,44.230 C7.412,44.844 7.909,45.343 8.519,45.343 C9.129,45.343 9.626,44.844 9.626,44.231 C9.626,43.618 9.129,43.118 8.519,43.118 ZM25.377,19.645 C25.377,19.979 25.106,20.253 24.772,20.253 C24.439,20.253 24.168,19.979 24.168,19.645 L24.168,19.037 L23.062,19.037 C22.728,19.037 22.457,18.765 22.457,18.429 C22.457,18.094 22.728,17.823 23.062,17.823 L26.483,17.823 C26.816,17.823 27.087,18.094 27.087,18.429 C27.087,18.765 26.816,19.037 26.483,19.037 L25.377,19.037 L25.377,19.645 ZM22.810,27.891 C22.810,28.225 22.539,28.498 22.206,28.498 L18.784,28.498 C18.451,28.498 18.180,28.225 18.180,27.891 C18.180,27.556 18.451,27.283 18.784,27.283 L22.206,27.283 C22.539,27.283 22.810,27.556 22.810,27.891 ZM21.351,25.057 L19.640,25.057 C19.306,25.057 19.035,24.784 19.035,24.450 C19.035,24.115 19.306,23.842 19.640,23.842 L21.351,23.842 C21.684,23.842 21.955,24.115 21.955,24.450 C21.955,24.784 21.684,25.057 21.351,25.057 ZM17.929,19.037 L16.822,19.037 L16.822,19.645 C16.822,19.979 16.551,20.253 16.218,20.253 C15.885,20.253 15.614,19.979 15.614,19.645 L15.614,19.037 L14.507,19.037 C14.174,19.037 13.903,18.765 13.903,18.429 C13.903,18.094 14.174,17.823 14.507,17.823 L17.929,17.823 C18.262,17.823 18.533,18.094 18.533,18.429 C18.533,18.765 18.262,19.037 17.929,19.037 Z"/>
</svg>