<svg 
 xmlns="http://www.w3.org/2000/svg"
 xmlns:xlink="http://www.w3.org/1999/xlink"
 width="49px" height="60px">
<path fill-rule="evenodd"  fill="rgb(252, 252, 252)"
 d="M46.231,59.999 L2.757,59.999 C2.471,59.999 2.187,59.954 1.914,59.866 C0.462,59.397 -0.342,57.822 0.122,56.356 L1.465,52.107 C3.221,47.319 7.811,44.093 12.883,44.093 L15.899,44.093 L15.964,43.878 C16.577,41.851 16.700,39.677 16.321,37.593 C16.196,36.511 16.011,35.405 15.773,34.324 L15.756,34.245 L15.702,34.186 C14.487,32.843 13.725,31.108 13.554,29.299 L13.520,28.934 L13.172,29.036 C13.065,29.068 12.955,29.086 12.845,29.092 C12.704,29.091 12.553,29.065 12.408,29.015 C11.129,28.586 10.482,26.265 10.482,22.117 C10.397,21.065 10.691,20.046 11.306,19.223 L11.430,19.057 L11.322,18.881 C10.397,17.374 9.810,15.720 9.575,13.963 C9.495,13.418 9.456,12.864 9.459,12.314 C9.459,3.796 18.040,2.811 24.494,2.811 L24.630,2.811 C26.740,2.811 28.923,2.811 30.876,1.728 C32.477,0.839 33.988,-0.000 35.337,-0.000 C35.858,-0.000 36.323,0.125 36.756,0.383 C38.554,1.457 39.529,3.677 39.529,12.313 C39.524,14.634 38.879,16.905 37.664,18.876 L37.555,19.053 L37.680,19.219 C38.298,20.043 38.592,21.063 38.508,22.092 C38.507,26.265 37.860,28.586 36.583,29.014 C36.436,29.065 36.284,29.091 36.129,29.091 C36.033,29.086 35.924,29.068 35.817,29.036 L35.469,28.934 L35.435,29.298 C35.264,31.108 34.501,32.844 33.287,34.186 L33.233,34.245 L33.215,34.324 C32.978,35.406 32.792,36.510 32.665,37.606 C32.288,39.674 32.411,41.849 33.025,43.878 L33.089,44.093 L36.106,44.093 C36.647,44.097 37.196,44.138 37.736,44.215 L37.811,44.226 C42.220,44.838 45.944,47.846 47.512,52.072 L48.868,56.356 C48.955,56.631 48.999,56.917 48.999,57.206 C48.999,58.747 47.757,59.999 46.231,59.999 ZM12.666,27.392 L12.848,27.714 L13.124,27.469 C13.303,27.311 13.466,27.135 13.608,26.944 L13.666,26.866 L13.668,26.771 C13.730,24.743 13.533,22.712 13.084,20.733 L13.061,20.631 L12.980,20.565 C12.922,20.518 12.861,20.475 12.797,20.435 L12.745,20.403 L12.684,20.393 C12.633,20.385 12.582,20.371 12.533,20.352 L12.240,20.234 L12.138,20.535 C11.963,21.052 11.892,21.591 11.926,22.137 C11.926,25.807 12.492,27.087 12.666,27.392 ZM38.085,12.313 C38.085,3.601 37.019,2.235 36.020,1.637 C35.824,1.520 35.588,1.462 35.318,1.462 C34.357,1.462 33.005,2.211 31.574,3.004 C29.467,4.172 27.023,4.269 24.494,4.269 C12.448,4.269 10.903,8.568 10.903,12.313 C10.901,12.793 10.935,13.280 11.005,13.758 C11.212,15.302 11.729,16.761 12.540,18.089 L12.766,18.461 L17.685,12.119 C17.718,12.072 17.743,12.038 17.769,12.005 C18.234,11.408 18.932,11.066 19.685,11.066 C20.235,11.066 20.754,11.247 21.188,11.591 C22.133,12.324 23.306,12.726 24.494,12.726 C25.694,12.726 26.832,12.338 27.785,11.603 C27.825,11.572 27.861,11.544 27.897,11.518 C28.311,11.223 28.797,11.067 29.302,11.067 C30.093,11.067 30.839,11.456 31.295,12.107 L35.773,17.881 L36.564,17.905 L36.654,17.747 C37.587,16.095 38.082,14.215 38.085,12.313 ZM35.324,26.868 L35.382,26.946 C35.525,27.135 35.687,27.312 35.865,27.469 L36.140,27.714 L36.323,27.392 C36.497,27.087 37.063,25.807 37.063,22.117 C37.097,21.591 37.026,21.052 36.851,20.533 L36.756,20.251 L36.474,20.343 C36.434,20.356 36.393,20.365 36.350,20.371 L36.296,20.379 L36.247,20.406 C36.169,20.449 36.094,20.499 36.023,20.554 L35.937,20.619 L35.913,20.726 C35.459,22.706 35.260,24.741 35.321,26.772 L35.324,26.868 ZM33.996,29.259 C33.996,29.022 33.986,28.786 33.968,28.558 C33.680,25.594 33.908,22.633 34.643,19.754 C34.653,19.709 34.667,19.657 34.682,19.606 L34.739,19.396 C34.753,19.339 34.762,19.292 34.770,19.245 L34.819,19.016 L30.167,13.018 C30.169,13.018 30.151,12.991 30.132,12.964 C29.938,12.701 29.626,12.542 29.298,12.542 C29.074,12.542 28.860,12.614 28.680,12.748 C27.466,13.688 26.020,14.184 24.494,14.184 C22.974,14.184 21.532,13.691 20.323,12.760 C20.293,12.738 20.264,12.717 20.233,12.697 C20.071,12.598 19.883,12.544 19.691,12.544 C19.326,12.544 18.993,12.732 18.802,13.047 L14.164,19.022 L14.233,19.310 L14.269,19.443 C15.070,22.454 15.319,25.506 15.021,28.562 C15.002,28.785 14.993,29.021 14.993,29.259 C14.993,31.350 17.171,34.283 21.125,37.517 C22.075,38.294 23.271,38.723 24.494,38.723 C25.717,38.723 26.912,38.295 27.861,37.519 C31.817,34.284 33.996,31.350 33.996,29.259 ZM24.494,48.221 C26.406,48.221 28.303,47.730 29.979,46.802 L30.062,46.756 L30.104,46.671 C30.485,45.896 30.972,45.178 31.551,44.539 L31.665,44.413 L31.617,44.249 C30.980,42.056 30.845,39.706 31.228,37.454 C31.235,37.389 31.270,37.153 31.270,37.153 L31.370,36.330 L30.768,36.895 C30.061,37.557 29.427,38.114 28.773,38.649 C27.567,39.636 26.047,40.179 24.494,40.179 C22.940,40.179 21.420,39.635 20.214,38.647 C19.555,38.108 18.921,37.551 18.220,36.893 L17.618,36.330 L17.717,37.152 C17.717,37.152 17.753,37.395 17.758,37.442 C18.143,39.710 18.009,42.057 17.371,44.249 L17.324,44.413 L17.438,44.539 C18.017,45.178 18.504,45.896 18.885,46.671 L18.927,46.756 L19.009,46.802 C20.686,47.730 22.582,48.221 24.494,48.221 ZM20.026,48.923 L20.327,49.543 C22.093,53.187 23.406,55.446 24.494,55.446 C25.582,55.446 26.895,53.187 28.662,49.543 L28.962,48.923 L28.307,49.120 C27.069,49.491 25.786,49.679 24.494,49.679 C23.203,49.679 21.920,49.491 20.682,49.120 L20.026,48.923 ZM47.492,56.801 L46.147,52.550 C44.920,49.291 42.207,46.821 38.885,45.927 L38.507,45.826 L38.507,50.284 L38.807,50.285 C40.331,50.287 41.573,51.539 41.574,53.078 L41.574,55.142 C41.574,55.544 41.250,55.871 40.852,55.871 L39.830,55.871 C39.431,55.871 39.107,55.544 39.107,55.142 C39.107,54.740 39.431,54.413 39.830,54.413 L40.130,54.413 L40.130,53.078 C40.129,52.343 39.536,51.744 38.808,51.743 L36.763,51.743 C36.034,51.744 35.441,52.343 35.440,53.077 L35.440,54.413 L35.740,54.413 C36.138,54.413 36.462,54.740 36.462,55.142 C36.462,55.544 36.138,55.871 35.740,55.871 L34.718,55.871 C34.320,55.871 33.996,55.544 33.996,55.142 L33.996,53.078 C33.997,51.539 35.239,50.287 36.763,50.285 L37.063,50.284 L37.063,45.601 L36.639,45.574 C36.462,45.562 36.285,45.550 36.106,45.550 L32.545,45.550 L32.455,45.679 C31.526,47.006 30.729,48.434 30.087,49.921 C28.351,53.507 26.707,56.903 24.494,56.903 C22.282,56.903 20.638,53.507 18.897,49.911 C18.259,48.435 17.463,47.007 16.535,45.679 L16.446,45.550 L13.483,45.550 L13.400,45.621 C12.040,46.768 11.174,48.377 10.959,50.152 L10.931,50.390 L11.153,50.473 C11.931,50.766 12.532,51.390 12.800,52.184 C13.292,53.638 12.520,55.224 11.079,55.722 C10.790,55.821 10.490,55.872 10.188,55.872 C9.006,55.872 7.956,55.113 7.575,53.984 C7.083,52.530 7.855,50.942 9.296,50.446 L9.480,50.382 L9.498,50.187 C9.627,48.786 10.111,47.433 10.899,46.273 L11.327,45.643 L10.588,45.806 C7.013,46.591 4.113,49.125 2.830,52.584 L1.498,56.799 C1.456,56.932 1.435,57.069 1.435,57.207 C1.435,57.943 2.028,58.541 2.756,58.541 L46.231,58.541 C46.367,58.541 46.501,58.520 46.632,58.478 C47.328,58.254 47.713,57.502 47.492,56.801 ZM10.181,51.743 L10.181,51.743 C9.453,51.744 8.860,52.343 8.859,53.077 C8.859,53.814 9.452,54.413 10.181,54.413 C10.910,54.413 11.504,53.814 11.504,53.078 C11.504,52.342 10.910,51.743 10.181,51.743 ZM30.328,23.575 C30.328,23.976 30.004,24.304 29.606,24.304 C29.208,24.304 28.884,23.976 28.884,23.575 L28.884,22.846 L27.561,22.846 C27.163,22.846 26.839,22.519 26.839,22.117 C26.839,21.715 27.163,21.388 27.561,21.388 L31.651,21.388 C32.049,21.388 32.373,21.715 32.373,22.117 C32.373,22.519 32.049,22.846 31.651,22.846 L30.328,22.846 L30.328,23.575 ZM27.261,33.469 C27.261,33.872 26.937,34.198 26.539,34.198 L22.449,34.198 C22.051,34.198 21.727,33.872 21.727,33.469 C21.727,33.068 22.051,32.740 22.449,32.740 L26.539,32.740 C26.937,32.740 27.261,33.068 27.261,33.469 ZM25.517,30.070 L23.472,30.070 C23.074,30.070 22.750,29.743 22.750,29.341 C22.750,28.940 23.074,28.613 23.472,28.613 L25.517,28.613 C25.915,28.613 26.239,28.940 26.239,29.341 C26.239,29.743 25.915,30.070 25.517,30.070 ZM21.427,22.846 L20.105,22.846 L20.105,23.575 C20.105,23.976 19.781,24.304 19.382,24.304 C18.984,24.304 18.660,23.976 18.660,23.575 L18.660,22.846 L17.338,22.846 C16.940,22.846 16.616,22.519 16.616,22.117 C16.616,21.715 16.940,21.388 17.338,21.388 L21.427,21.388 C21.825,21.388 22.149,21.715 22.149,22.117 C22.149,22.519 21.825,22.846 21.427,22.846 Z"/>
</svg>