<svg 
 xmlns="http://www.w3.org/2000/svg"
 xmlns:xlink="http://www.w3.org/1999/xlink"
 width="24px" height="24px">
<path fill-rule="evenodd"  fill="rgb(255, 255, 255)"
 d="M23.947,1.109 L16.387,20.210 C16.246,20.522 15.965,20.720 15.656,20.720 L15.628,20.720 C15.263,20.692 14.982,20.465 14.897,20.153 L12.340,11.809 L4.049,9.226 C3.740,9.112 3.487,8.800 3.487,8.488 C3.487,8.176 3.684,7.835 3.993,7.722 L22.907,0.059 C23.188,-0.055 23.497,0.002 23.750,0.257 C24.003,0.484 24.059,0.825 23.947,1.109 ZM5.265,13.037 L1.111,17.231 L-0.001,16.107 L4.152,11.913 L5.265,13.037 ZM7.516,17.549 L3.363,21.743 L2.250,20.619 L6.404,16.425 L7.516,17.549 ZM11.976,19.804 L7.822,23.999 L6.709,22.875 L10.863,18.681 L11.976,19.804 Z"/>
</svg>