<svg 
 xmlns="http://www.w3.org/2000/svg"
 xmlns:xlink="http://www.w3.org/1999/xlink"
 width="76px" height="70px">
<path fill-rule="evenodd"  fill="rgb(255, 255, 255)"
 d="M23.024,69.998 C10.324,69.998 -0.008,59.584 -0.008,46.783 C-0.008,35.455 7.998,25.837 19.028,23.910 L19.657,23.801 L19.228,23.324 C14.244,17.789 14.428,9.330 19.648,4.069 C22.253,1.444 25.719,-0.001 29.409,-0.001 C33.099,-0.001 36.565,1.444 39.170,4.069 L71.958,37.118 C74.562,39.743 75.997,43.237 75.997,46.957 C75.997,50.675 74.562,54.170 71.958,56.796 C69.353,59.420 65.887,60.866 62.197,60.866 C58.507,60.866 55.040,59.420 52.436,56.796 L45.835,50.143 L45.716,50.807 C43.719,61.927 34.175,69.998 23.024,69.998 ZM24.140,67.602 L24.517,67.574 C35.247,66.769 43.652,57.637 43.652,46.783 C43.652,36.019 35.248,26.886 24.520,25.992 L24.140,25.960 L24.140,67.602 ZM21.359,25.992 C10.629,26.790 2.224,35.922 2.224,46.783 C2.224,57.644 10.629,66.776 21.359,67.574 L21.736,67.602 L21.736,25.964 L21.359,25.992 ZM42.953,35.066 L43.079,35.299 C45.055,38.919 46.056,42.782 46.056,46.783 L46.056,47.103 L54.097,55.208 C56.188,57.404 59.067,58.616 62.197,58.616 C65.196,58.616 68.148,57.374 70.296,55.208 C72.445,53.043 73.676,50.085 73.765,46.880 C73.765,43.847 72.532,40.871 70.383,38.705 L54.863,23.062 L42.953,35.066 ZM29.323,2.335 C26.325,2.335 23.372,3.577 21.223,5.744 C16.776,10.315 16.777,17.679 21.223,22.159 L22.620,23.567 L22.938,23.567 C30.116,23.567 36.809,26.940 41.297,32.822 L41.544,33.145 L52.940,21.385 L37.422,5.744 C35.331,3.548 32.453,2.335 29.323,2.335 Z"/>
</svg>