<svg 
 xmlns="http://www.w3.org/2000/svg"
 xmlns:xlink="http://www.w3.org/1999/xlink"
 width="18px" height="14px">
<path fill-rule="evenodd"  fill="rgb(48, 79, 110)"
 d="M17.460,1.909 C16.841,2.176 16.175,2.358 15.477,2.438 C16.190,2.021 16.737,1.363 16.995,0.576 C16.328,0.961 15.589,1.242 14.803,1.393 C14.173,0.739 13.276,0.330 12.282,0.330 C10.376,0.330 8.830,1.838 8.830,3.697 C8.830,3.961 8.861,4.217 8.920,4.464 C6.051,4.324 3.507,2.983 1.804,0.946 C1.507,1.443 1.337,2.021 1.337,2.639 C1.337,3.806 1.946,4.837 2.872,5.441 C2.307,5.424 1.774,5.272 1.309,5.020 C1.308,5.034 1.308,5.048 1.308,5.062 C1.308,6.694 2.499,8.055 4.078,8.363 C3.789,8.440 3.483,8.482 3.169,8.482 C2.946,8.482 2.730,8.461 2.519,8.421 C2.958,9.760 4.233,10.733 5.744,10.760 C4.562,11.663 3.074,12.201 1.456,12.201 C1.178,12.201 0.903,12.185 0.633,12.154 C2.160,13.110 3.975,13.667 5.924,13.667 C12.274,13.667 15.747,8.537 15.747,4.087 C15.747,3.941 15.743,3.796 15.737,3.651 C16.412,3.176 16.997,2.584 17.460,1.909 L17.460,1.909 Z"/>
</svg>