<svg 
 xmlns="http://www.w3.org/2000/svg"
 xmlns:xlink="http://www.w3.org/1999/xlink"
 width="60px" height="46px">
<path fill-rule="evenodd"  fill="rgb(255, 91, 79)"
 d="M59.118,45.999 C58.633,45.999 58.239,45.605 58.239,45.117 L58.239,38.614 C58.239,37.874 57.828,37.208 57.167,36.877 L54.232,35.405 L53.211,36.378 C52.497,37.058 51.580,37.398 50.664,37.398 C49.748,37.398 48.831,37.058 48.117,36.378 L47.096,35.405 L45.736,36.087 C46.438,36.912 46.846,37.973 46.846,39.100 L46.846,45.117 C46.846,45.605 46.453,45.998 45.967,45.998 C45.482,45.998 45.088,45.605 45.088,45.117 L45.088,39.100 C45.088,37.958 44.415,36.922 43.373,36.461 L38.349,34.239 C36.776,37.402 33.569,39.410 29.998,39.410 C26.441,39.410 23.223,37.397 21.648,34.238 L16.623,36.461 C15.581,36.922 14.908,37.958 14.908,39.100 L14.908,45.117 C14.908,45.605 14.514,45.998 14.029,45.998 C13.544,45.998 13.150,45.605 13.150,45.117 L13.150,39.100 C13.150,37.579 13.894,36.175 15.102,35.315 L14.211,35.060 C13.992,34.998 13.693,34.911 13.393,34.764 L11.150,37.012 L11.150,45.118 C11.150,45.605 10.757,45.999 10.272,45.999 C9.786,45.999 9.393,45.605 9.393,45.118 L9.393,37.012 L7.165,34.780 C7.047,34.841 6.923,34.891 6.792,34.929 L3.163,35.967 C2.335,36.204 1.757,36.973 1.757,37.835 L1.757,45.118 C1.757,45.605 1.363,45.999 0.878,45.999 C0.393,45.999 -0.001,45.605 -0.001,45.118 L-0.001,37.835 C-0.001,36.191 1.102,34.726 2.680,34.274 L6.309,33.235 C6.465,33.190 6.575,33.046 6.575,32.882 L6.575,31.610 C4.877,30.380 3.756,28.335 3.756,26.056 L3.756,24.619 L3.307,23.718 C2.986,23.076 2.817,22.357 2.817,21.639 L2.817,21.587 C2.817,18.506 5.318,16.000 8.393,16.000 L16.679,16.000 C16.756,15.066 16.834,14.086 16.910,13.051 C17.197,9.153 18.596,5.862 20.955,3.533 C23.297,1.221 26.424,-0.001 29.998,-0.001 C33.572,-0.001 36.699,1.221 39.041,3.533 C41.400,5.862 42.799,9.153 43.086,13.051 C43.304,16.005 43.531,18.541 43.749,20.686 C44.260,19.414 45.110,18.314 46.188,17.501 C46.082,17.148 46.028,16.783 46.028,16.410 C46.028,14.108 48.108,12.235 50.664,12.235 C53.220,12.235 55.300,14.108 55.300,16.410 C55.300,16.782 55.245,17.147 55.140,17.501 C56.947,18.865 58.118,21.033 58.118,23.470 C58.118,24.777 57.772,26.062 57.115,27.200 C56.856,29.070 55.822,30.663 54.361,31.672 L54.361,33.464 C54.361,33.487 54.373,33.508 54.394,33.518 L57.953,35.301 C59.214,35.933 59.997,37.203 59.997,38.614 L59.997,45.117 C59.997,45.605 59.603,45.999 59.118,45.999 ZM49.328,35.101 C50.077,35.814 51.251,35.815 51.999,35.101 L52.816,34.324 C52.678,34.065 52.603,33.771 52.603,33.464 L52.603,32.527 C51.989,32.718 51.338,32.821 50.664,32.821 C49.989,32.821 49.338,32.718 48.725,32.527 L48.725,33.464 C48.725,33.771 48.649,34.065 48.511,34.324 L49.328,35.101 ZM29.998,37.649 C32.868,37.649 35.448,36.050 36.739,33.526 L35.459,32.959 C34.461,32.518 33.816,31.525 33.816,30.432 L33.816,28.319 C32.635,28.794 31.347,29.056 29.998,29.056 C28.649,29.056 27.361,28.794 26.180,28.319 L26.180,30.432 C26.180,31.525 25.535,32.518 24.537,32.959 L23.257,33.526 C24.549,36.047 27.138,37.649 29.998,37.649 ZM10.272,35.402 L12.265,33.404 C12.230,33.246 12.211,33.072 12.211,32.881 L12.211,32.528 C11.591,32.720 10.941,32.821 10.274,32.821 C10.207,32.821 10.139,32.820 10.072,32.818 C9.469,32.800 8.885,32.692 8.333,32.511 L8.333,32.882 C8.333,33.057 8.310,33.229 8.269,33.395 L10.272,35.402 ZM15.968,17.761 L8.393,17.761 C6.288,17.761 4.575,19.477 4.575,21.587 L4.575,21.639 C4.575,22.085 4.680,22.531 4.879,22.929 L5.421,24.017 C5.483,24.139 5.514,24.274 5.514,24.411 L5.514,26.056 C5.514,28.738 7.582,30.981 10.125,31.058 C11.424,31.097 12.653,30.620 13.584,29.714 C14.516,28.809 15.029,27.594 15.029,26.293 L15.029,24.411 C15.029,24.274 15.061,24.139 15.122,24.017 L15.565,23.128 C15.829,22.599 15.968,22.008 15.968,21.417 L15.968,17.761 ZM15.943,31.156 C15.663,30.975 15.447,30.724 15.305,30.437 C15.151,30.625 14.986,30.806 14.808,30.978 C14.545,31.235 14.264,31.463 13.969,31.669 L13.968,32.882 C13.968,33.078 13.968,33.159 14.694,33.367 L17.470,34.162 L19.932,33.072 C17.977,32.372 16.647,31.613 15.943,31.156 ZM41.333,13.181 C41.078,9.715 39.858,6.813 37.807,4.787 C35.801,2.807 33.101,1.760 29.998,1.760 C26.895,1.760 24.195,2.807 22.189,4.787 C20.137,6.813 18.918,9.715 18.663,13.181 C17.971,22.574 17.183,27.812 16.877,29.627 C16.872,29.654 16.881,29.667 16.898,29.677 C17.733,30.219 19.546,31.231 22.377,31.990 L23.827,31.348 C24.188,31.188 24.422,30.828 24.422,30.432 L24.422,27.404 C21.598,25.569 19.726,22.381 19.726,18.763 L19.726,18.027 C19.726,17.065 20.255,16.162 21.107,15.671 C21.942,15.189 23.039,14.307 23.528,12.837 C23.682,12.376 24.180,12.127 24.640,12.280 C25.100,12.434 25.349,12.933 25.196,13.394 C24.532,15.389 23.083,16.563 21.984,17.197 C21.671,17.378 21.483,17.688 21.483,18.026 L21.483,18.763 C21.483,23.467 25.303,27.295 29.998,27.295 C34.693,27.295 38.513,23.467 38.513,18.763 L38.513,17.112 C38.513,16.549 38.278,16.021 37.868,15.663 C36.259,14.262 32.599,11.814 26.153,11.168 C25.670,11.120 25.318,10.688 25.366,10.204 C25.414,9.720 25.846,9.368 26.328,9.416 C33.258,10.110 37.255,12.796 39.021,14.334 C39.815,15.026 40.270,16.039 40.270,17.112 L40.270,18.763 C40.270,22.381 38.398,25.569 35.574,27.404 L35.574,30.432 C35.574,30.828 35.808,31.188 36.170,31.348 L37.619,31.990 C40.448,31.231 42.262,30.220 43.098,29.677 C43.115,29.667 43.124,29.654 43.119,29.627 C42.813,27.811 42.025,22.573 41.333,13.181 ZM44.053,31.156 C43.348,31.614 42.019,32.373 40.064,33.072 L44.083,34.850 C44.116,34.865 44.147,34.882 44.180,34.898 L46.934,33.518 C46.954,33.508 46.967,33.487 46.967,33.464 L46.967,31.672 C46.065,31.049 45.326,30.205 44.832,29.209 C44.839,29.251 44.846,29.294 44.853,29.333 C44.973,30.047 44.659,30.763 44.053,31.156 ZM50.664,13.996 C49.077,13.996 47.785,15.079 47.785,16.410 C47.785,16.466 47.790,16.521 47.795,16.576 C48.678,16.206 49.647,16.000 50.664,16.000 C51.680,16.000 52.650,16.206 53.533,16.576 C53.538,16.521 53.542,16.466 53.542,16.410 C53.542,15.079 52.251,13.996 50.664,13.996 ZM55.348,27.114 C53.970,25.163 50.901,24.051 49.422,23.611 C49.252,24.035 48.962,24.538 48.467,25.033 C48.124,25.377 47.568,25.377 47.224,25.033 C46.881,24.690 46.881,24.132 47.224,23.788 C47.866,23.145 47.906,22.534 47.906,22.528 C47.906,22.262 48.027,22.009 48.235,21.842 C48.442,21.675 48.714,21.610 48.974,21.668 C49.186,21.715 53.576,22.710 56.072,25.251 C56.262,24.677 56.360,24.076 56.360,23.470 C56.360,20.322 53.805,17.761 50.664,17.761 C47.523,17.761 44.967,20.322 44.967,23.470 C44.967,24.516 45.259,25.545 45.812,26.447 C45.880,26.559 45.922,26.683 45.936,26.813 C46.198,29.234 48.230,31.060 50.664,31.060 C52.995,31.060 54.957,29.384 55.348,27.114 ZM13.089,23.409 C12.957,23.409 12.823,23.379 12.697,23.316 C11.311,22.622 8.442,22.468 7.453,22.467 C6.968,22.467 6.575,22.073 6.575,21.587 C6.575,21.100 6.968,20.706 7.453,20.706 C7.615,20.706 11.442,20.718 13.483,21.741 C13.917,21.958 14.093,22.487 13.876,22.922 C13.722,23.230 13.411,23.409 13.089,23.409 ZM4.635,38.589 C5.121,38.589 5.514,38.984 5.514,39.470 L5.514,45.118 C5.514,45.605 5.121,45.999 4.635,45.999 C4.150,45.999 3.756,45.605 3.756,45.118 L3.756,39.470 C3.756,38.984 4.150,38.589 4.635,38.589 ZM20.604,40.473 C21.090,40.473 21.483,40.867 21.483,41.353 L21.483,45.117 C21.483,45.605 21.090,45.998 20.604,45.998 C20.119,45.998 19.726,45.605 19.726,45.117 L19.726,41.353 C19.726,40.867 20.119,40.473 20.604,40.473 ZM39.391,40.473 C39.877,40.473 40.270,40.867 40.270,41.353 L40.270,45.117 C40.270,45.605 39.877,45.998 39.391,45.998 C38.906,45.998 38.513,45.605 38.513,45.117 L38.513,41.353 C38.513,40.867 38.906,40.473 39.391,40.473 ZM55.361,39.754 C55.846,39.754 56.239,40.148 56.239,40.635 L56.239,45.118 C56.239,45.605 55.846,45.999 55.361,45.999 C54.875,45.999 54.482,45.605 54.482,45.118 L54.482,40.635 C54.482,40.148 54.875,39.754 55.361,39.754 Z"/>
</svg>