<svg 
 xmlns="http://www.w3.org/2000/svg"
 xmlns:xlink="http://www.w3.org/1999/xlink"
 width="18px" height="18px">
<path fill-rule="evenodd"  fill="rgb(48, 79, 110)"
 d="M13.024,17.334 L4.688,17.334 C2.348,17.334 0.444,15.448 0.444,13.129 L0.444,4.873 C0.444,2.554 2.348,0.668 4.688,0.668 L13.024,0.668 C15.364,0.668 17.268,2.554 17.268,4.873 L17.268,13.129 C17.268,15.448 15.364,17.334 13.024,17.334 ZM15.437,4.873 C15.437,3.554 14.355,2.482 13.024,2.482 L4.688,2.482 C3.357,2.482 2.275,3.554 2.275,4.873 L2.275,13.129 C2.275,14.448 3.357,15.521 4.688,15.521 L13.024,15.521 C14.354,15.521 15.437,14.448 15.437,13.129 L15.437,4.873 ZM13.328,5.596 C12.763,5.596 12.303,5.141 12.303,4.581 C12.303,4.021 12.763,3.566 13.328,3.566 C13.893,3.566 14.353,4.021 14.353,4.581 C14.353,5.141 13.893,5.596 13.328,5.596 ZM8.856,13.294 C6.467,13.294 4.523,11.368 4.523,9.001 C4.523,6.634 6.467,4.709 8.856,4.709 C11.245,4.709 13.189,6.634 13.189,9.001 C13.189,11.368 11.245,13.294 8.856,13.294 ZM8.856,6.522 C7.477,6.522 6.354,7.634 6.354,9.000 C6.354,10.367 7.477,11.480 8.856,11.480 C10.236,11.480 11.358,10.367 11.358,9.000 C11.358,7.634 10.235,6.522 8.856,6.522 Z"/>
</svg>