<svg 
 xmlns="http://www.w3.org/2000/svg"
 xmlns:xlink="http://www.w3.org/1999/xlink"
 width="85px" height="100px">
<path fill-rule="evenodd"  opacity="0.2" fill="rgb(86, 77, 128)"
 d="M59.490,99.998 C48.413,99.998 39.011,92.823 35.497,82.855 L7.078,82.855 C3.178,82.855 -0.005,79.644 -0.005,75.712 L-0.005,7.141 C-0.005,3.208 3.178,-0.002 7.078,-0.002 L52.408,-0.002 C56.307,-0.002 59.490,3.208 59.490,7.141 L59.490,48.569 C73.556,48.569 84.988,60.099 84.988,74.283 C84.988,88.467 73.556,99.998 59.490,99.998 ZM56.657,7.141 C56.657,4.742 54.786,2.855 52.408,2.855 L7.078,2.855 C4.699,2.855 2.828,4.742 2.828,7.141 L2.828,75.712 C2.828,78.110 4.699,79.998 7.078,79.998 L34.656,79.998 C34.240,78.157 33.992,76.250 33.992,74.283 C33.992,61.064 43.920,50.172 56.657,48.748 L56.657,7.141 ZM59.490,51.426 C46.956,51.426 36.825,61.643 36.825,74.283 C36.825,86.924 46.956,97.141 59.490,97.141 C72.025,97.141 82.155,86.924 82.155,74.283 C82.155,61.643 72.025,51.426 59.490,51.426 ZM55.905,72.855 L63.076,72.855 C66.593,72.855 69.406,75.849 69.406,79.283 C69.406,82.733 66.502,85.712 62.899,85.712 L60.907,85.712 L60.907,89.998 C60.907,90.012 60.907,90.025 60.907,90.037 C60.896,90.826 60.253,91.457 59.470,91.447 C58.688,91.435 58.063,90.787 58.074,89.998 L58.074,85.712 L52.408,85.712 C52.394,85.712 52.381,85.712 52.367,85.712 C51.585,85.701 50.960,85.053 50.971,84.263 C50.982,83.473 51.625,82.844 52.408,82.855 L62.899,82.855 C64.946,82.855 66.573,81.059 66.573,79.283 C66.573,77.495 64.887,75.712 63.076,75.712 L55.905,75.712 C52.387,75.712 49.574,72.673 49.574,69.239 C49.574,65.790 52.478,62.854 56.082,62.854 L58.074,62.854 L58.074,58.569 C58.045,57.828 58.584,57.187 59.313,57.097 C59.391,57.086 59.469,57.083 59.547,57.086 C60.329,57.116 60.937,57.780 60.907,58.569 L60.907,62.854 L66.573,62.854 C66.587,62.854 66.600,62.854 66.613,62.854 C67.396,62.866 68.021,63.514 68.010,64.304 C67.999,65.093 67.356,65.723 66.573,65.712 L56.082,65.712 C54.035,65.712 52.408,67.463 52.408,69.239 C52.408,71.028 54.094,72.855 55.905,72.855 ZM23.235,39.846 C23.162,39.057 23.737,38.358 24.519,38.284 C24.607,38.274 24.696,38.274 24.785,38.284 L48.158,38.284 C48.171,38.284 48.185,38.284 48.198,38.284 C48.980,38.295 49.606,38.943 49.594,39.733 C49.583,40.522 48.940,41.152 48.158,41.140 L24.785,41.140 C24.002,41.214 23.309,40.636 23.235,39.846 ZM48.158,27.712 L24.785,27.712 C24.002,27.785 23.309,27.207 23.235,26.418 C23.162,25.628 23.737,24.929 24.519,24.854 C24.607,24.846 24.696,24.846 24.785,24.854 L48.158,24.854 C48.171,24.854 48.185,24.854 48.198,24.854 C48.980,24.866 49.606,25.514 49.594,26.303 C49.583,27.092 48.940,27.723 48.158,27.712 ZM48.158,14.284 L24.785,14.284 C24.002,14.358 23.309,13.777 23.235,12.989 C23.162,12.200 23.737,11.500 24.519,11.426 C24.607,11.419 24.696,11.419 24.785,11.426 L48.158,11.426 C48.171,11.426 48.185,11.426 48.198,11.426 C48.980,11.438 49.606,12.086 49.594,12.875 C49.583,13.664 48.940,14.295 48.158,14.284 ZM14.568,40.701 L12.480,40.701 C12.385,40.701 12.308,40.778 12.308,40.875 L12.308,43.009 C12.308,43.571 11.841,44.024 11.278,43.997 C10.752,43.972 10.347,43.513 10.347,42.980 L10.347,40.875 C10.347,40.778 10.270,40.701 10.175,40.701 L8.086,40.701 C7.559,40.701 7.105,40.293 7.079,39.762 C7.051,39.195 7.501,38.723 8.058,38.723 L10.175,38.723 C10.270,38.723 10.347,38.645 10.347,38.549 L10.347,36.415 C10.347,35.854 10.814,35.400 11.377,35.427 C11.903,35.453 12.308,35.912 12.308,36.443 L12.308,38.549 C12.308,38.645 12.385,38.723 12.480,38.723 L14.597,38.723 C15.154,38.723 15.603,39.195 15.576,39.761 C15.550,40.293 15.096,40.701 14.568,40.701 ZM14.568,27.272 L12.480,27.272 C12.385,27.272 12.308,27.349 12.308,27.446 L12.308,29.580 C12.308,30.142 11.841,30.597 11.278,30.567 C10.752,30.541 10.347,30.084 10.347,29.552 L10.347,27.446 C10.347,27.349 10.270,27.272 10.175,27.272 L8.086,27.272 C7.559,27.272 7.105,26.864 7.079,26.334 C7.051,25.765 7.501,25.295 8.058,25.295 L10.175,25.295 C10.270,25.295 10.347,25.217 10.347,25.121 L10.347,22.985 C10.347,22.425 10.814,21.971 11.377,21.999 C11.903,22.025 12.308,22.484 12.308,23.014 L12.308,25.121 C12.308,25.217 12.385,25.295 12.480,25.295 L14.597,25.295 C15.154,25.295 15.603,25.764 15.576,26.332 C15.550,26.864 15.096,27.272 14.568,27.272 ZM14.568,13.843 L12.480,13.843 C12.385,13.843 12.308,13.922 12.308,14.017 L12.308,16.152 C12.308,16.714 11.841,17.167 11.278,17.139 C10.752,17.113 10.347,16.655 10.347,16.123 L10.347,14.017 C10.347,13.922 10.270,13.843 10.175,13.843 L8.086,13.843 C7.559,13.843 7.105,13.435 7.079,12.904 C7.051,12.336 7.501,11.866 8.058,11.866 L10.175,11.866 C10.270,11.866 10.347,11.788 10.347,11.692 L10.347,9.558 C10.347,8.996 10.814,8.542 11.377,8.570 C11.903,8.597 12.308,9.056 12.308,9.586 L12.308,11.692 C12.308,11.788 12.385,11.866 12.480,11.866 L14.597,11.866 C15.154,11.866 15.603,12.336 15.576,12.904 C15.550,13.435 15.096,13.843 14.568,13.843 Z"/>
</svg>