<svg 
 xmlns="http://www.w3.org/2000/svg"
 xmlns:xlink="http://www.w3.org/1999/xlink"
 width="81px" height="100px">
<path fill-rule="evenodd"  opacity="0.2" fill="rgb(86, 77, 128)"
 d="M76.425,99.998 L4.582,99.998 C4.109,99.998 3.640,99.923 3.189,99.776 C0.789,98.994 -0.540,96.370 0.227,93.926 L2.447,86.843 C5.348,78.862 12.934,73.487 21.315,73.487 L26.300,73.487 L26.407,73.128 C27.420,69.750 27.624,66.128 26.997,62.654 C26.790,60.851 26.484,59.007 26.091,57.205 L26.062,57.074 L25.973,56.975 C23.966,54.738 22.706,51.845 22.424,48.830 L22.368,48.222 L21.792,48.392 C21.616,48.445 21.435,48.475 21.252,48.485 C21.020,48.482 20.769,48.440 20.530,48.358 C18.416,47.641 17.347,43.773 17.347,36.860 C17.208,35.106 17.692,33.409 18.709,32.037 L18.914,31.760 L18.735,31.466 C17.208,28.955 16.237,26.198 15.849,23.270 C15.717,22.361 15.653,21.439 15.657,20.522 C15.657,6.325 29.837,4.684 40.503,4.684 L40.727,4.684 C44.215,4.684 47.821,4.684 51.049,2.878 C53.695,1.397 56.193,-0.002 58.421,-0.002 C59.283,-0.002 60.050,0.207 60.765,0.636 C63.738,2.426 65.349,6.126 65.349,20.520 C65.340,24.390 64.275,28.172 62.267,31.459 L62.087,31.754 L62.293,32.031 C63.314,33.404 63.800,35.103 63.661,36.819 C63.660,43.773 62.590,47.641 60.480,48.356 C60.237,48.440 59.986,48.482 59.730,48.484 C59.572,48.475 59.391,48.445 59.215,48.392 L58.639,48.222 L58.583,48.828 C58.300,51.845 57.040,54.739 55.033,56.975 L54.944,57.074 L54.915,57.205 C54.523,59.009 54.216,60.849 54.005,62.675 C53.382,66.123 53.586,69.747 54.600,73.128 L54.707,73.487 L59.691,73.487 C60.586,73.494 61.493,73.562 62.385,73.690 L62.509,73.708 C69.795,74.728 75.950,79.742 78.540,86.785 L80.781,93.926 C80.925,94.383 80.998,94.860 80.998,95.341 C80.998,97.910 78.946,99.998 76.425,99.998 ZM20.956,45.652 L21.258,46.187 L21.713,45.782 C22.009,45.518 22.278,45.223 22.513,44.904 L22.608,44.776 L22.613,44.616 C22.715,41.236 22.390,37.853 21.647,34.554 L21.609,34.384 L21.475,34.275 C21.379,34.195 21.278,34.124 21.173,34.057 L21.087,34.003 L20.987,33.987 C20.902,33.974 20.817,33.949 20.737,33.918 L20.252,33.721 L20.083,34.224 C19.794,35.086 19.677,35.983 19.735,36.894 C19.734,43.011 20.669,45.144 20.956,45.652 ZM62.962,20.521 C62.962,6.001 61.201,3.723 59.550,2.728 C59.226,2.532 58.835,2.435 58.390,2.435 C56.802,2.435 54.568,3.683 52.203,5.005 C48.721,6.952 44.682,7.115 40.503,7.115 C20.597,7.115 18.044,14.278 18.044,20.520 C18.040,21.320 18.096,22.133 18.211,22.930 C18.554,25.502 19.408,27.934 20.748,30.147 L21.122,30.767 L29.250,20.196 C29.305,20.119 29.346,20.062 29.389,20.007 C30.157,19.012 31.312,18.441 32.556,18.441 C33.465,18.441 34.323,18.744 35.039,19.318 C36.601,20.538 38.540,21.210 40.504,21.210 C42.485,21.209 44.366,20.562 45.942,19.337 C46.008,19.284 46.067,19.239 46.127,19.195 C46.810,18.703 47.613,18.444 48.448,18.444 C49.756,18.444 50.987,19.092 51.742,20.177 L59.141,29.800 L60.450,29.840 L60.597,29.577 C62.139,26.823 62.957,23.690 62.962,20.521 ZM58.400,44.780 L58.496,44.909 C58.731,45.224 59.000,45.520 59.293,45.782 L59.749,46.187 L60.051,45.652 C60.338,45.144 61.273,43.011 61.273,36.860 C61.330,35.983 61.213,35.085 60.923,34.220 L60.765,33.751 L60.301,33.904 C60.234,33.925 60.166,33.941 60.096,33.951 L60.005,33.963 L59.925,34.010 C59.795,34.081 59.671,34.163 59.554,34.256 L59.413,34.365 L59.373,34.542 C58.623,37.842 58.295,41.233 58.395,44.619 L58.400,44.780 ZM56.205,48.764 C56.205,48.368 56.189,47.975 56.159,47.595 C55.684,42.655 56.059,37.720 57.275,32.921 C57.290,32.847 57.314,32.761 57.338,32.675 L57.432,32.326 C57.456,32.230 57.470,32.152 57.484,32.073 L57.565,31.691 L49.878,21.696 C49.881,21.696 49.852,21.650 49.819,21.606 C49.499,21.167 48.983,20.902 48.442,20.902 C48.072,20.902 47.718,21.021 47.420,21.246 C45.414,22.812 43.024,23.638 40.504,23.638 C37.991,23.638 35.607,22.817 33.610,21.265 C33.561,21.228 33.512,21.193 33.461,21.161 C33.194,20.995 32.883,20.906 32.566,20.906 C31.962,20.906 31.412,21.218 31.097,21.743 L23.432,31.702 L23.547,32.182 L23.606,32.403 C24.930,37.423 25.341,42.509 24.849,47.602 C24.817,47.973 24.802,48.368 24.802,48.764 C24.802,52.249 28.401,57.138 34.936,62.526 C36.506,63.823 38.483,64.536 40.504,64.536 C42.523,64.536 44.499,63.823 46.067,62.530 C52.604,57.139 56.205,52.249 56.205,48.764 ZM40.503,80.367 C43.663,80.367 46.797,79.549 49.568,78.002 L49.704,77.925 L49.773,77.784 C50.404,76.492 51.208,75.296 52.165,74.230 L52.353,74.020 L52.275,73.747 C51.221,70.092 50.998,66.175 51.631,62.423 C51.643,62.315 51.700,61.920 51.700,61.920 L51.866,60.549 L50.871,61.489 C49.702,62.594 48.655,63.523 47.575,64.414 C45.581,66.058 43.069,66.964 40.503,66.964 C37.936,66.964 35.423,66.058 33.429,64.411 C32.340,63.513 31.293,62.584 30.134,61.487 L29.140,60.548 L29.304,61.918 C29.304,61.918 29.363,62.323 29.372,62.402 C30.008,66.181 29.785,70.094 28.732,73.747 L28.654,74.020 L28.842,74.230 C29.799,75.296 30.604,76.492 31.233,77.784 L31.303,77.925 L31.439,78.002 C34.209,79.549 37.344,80.367 40.503,80.367 ZM33.120,81.538 L33.616,82.571 C36.536,88.643 38.705,92.408 40.503,92.408 C42.301,92.408 44.471,88.643 47.390,82.571 L47.887,81.538 L46.804,81.865 C44.757,82.484 42.638,82.797 40.504,82.797 C38.369,82.797 36.249,82.484 34.203,81.865 L33.120,81.538 ZM78.508,94.667 L76.285,87.581 C74.257,82.149 69.773,78.033 64.284,76.544 L63.660,76.375 L63.660,83.805 L64.155,83.807 C66.674,83.809 68.726,85.897 68.728,88.462 L68.728,91.902 C68.728,92.572 68.193,93.117 67.535,93.117 L65.845,93.117 C65.187,93.117 64.652,92.572 64.652,91.902 C64.652,91.232 65.187,90.687 65.845,90.687 L66.341,90.687 L66.341,88.462 C66.340,87.236 65.360,86.238 64.157,86.236 L60.777,86.236 C59.573,86.238 58.593,87.236 58.591,88.460 L58.591,90.687 L59.087,90.687 C59.746,90.687 60.281,91.232 60.281,91.902 C60.281,92.572 59.746,93.117 59.087,93.117 L57.398,93.117 C56.740,93.117 56.204,92.572 56.205,91.902 L56.205,88.462 C56.207,85.897 58.259,83.809 60.777,83.807 L61.273,83.805 L61.273,76.001 L60.573,75.956 C60.280,75.935 59.988,75.916 59.691,75.916 L53.807,75.916 L53.659,76.130 C52.123,78.342 50.807,80.722 49.745,83.201 C46.876,89.177 44.160,94.837 40.503,94.837 C36.847,94.837 34.130,89.177 31.254,83.183 C30.199,80.723 28.883,78.343 27.351,76.130 L27.203,75.916 L22.307,75.916 L22.169,76.034 C19.923,77.945 18.491,80.627 18.137,83.587 L18.089,83.981 L18.456,84.120 C19.742,84.607 20.735,85.648 21.179,86.972 C21.991,89.396 20.715,92.039 18.334,92.868 C17.856,93.034 17.361,93.119 16.861,93.119 C14.909,93.119 13.174,91.854 12.543,89.973 C11.731,87.549 13.006,84.903 15.388,84.075 L15.691,83.969 L15.721,83.644 C15.934,81.309 16.735,79.054 18.037,77.120 L18.744,76.070 L17.522,76.343 C11.615,77.651 6.823,81.874 4.702,87.639 L2.501,94.665 C2.432,94.885 2.397,95.113 2.397,95.343 C2.397,96.570 3.377,97.567 4.580,97.567 L76.425,97.567 C76.648,97.567 76.871,97.531 77.087,97.462 C78.237,97.089 78.873,95.835 78.508,94.667 ZM16.851,86.236 L16.850,86.236 C15.646,86.238 14.666,87.236 14.665,88.460 C14.665,89.688 15.645,90.687 16.851,90.687 C18.056,90.687 19.036,89.688 19.036,88.462 C19.036,87.236 18.056,86.236 16.851,86.236 ZM50.144,38.075 L50.144,39.290 C50.144,39.960 49.609,40.505 48.951,40.505 C48.292,40.505 47.757,39.960 47.757,39.290 L47.757,38.075 L45.572,38.075 C44.913,38.075 44.378,37.530 44.378,36.860 C44.378,36.191 44.913,35.646 45.572,35.646 L52.330,35.646 C52.988,35.646 53.523,36.191 53.523,36.860 C53.523,37.530 52.988,38.075 52.330,38.075 L50.144,38.075 ZM45.076,55.781 C45.076,56.451 44.541,56.995 43.882,56.995 L37.124,56.995 C36.466,56.995 35.931,56.451 35.931,55.781 C35.931,55.111 36.466,54.566 37.124,54.566 L43.882,54.566 C44.541,54.566 45.076,55.111 45.076,55.781 ZM42.193,50.115 L38.814,50.115 C38.156,50.115 37.620,49.570 37.620,48.901 C37.620,48.232 38.156,47.686 38.814,47.686 L42.193,47.686 C42.851,47.686 43.386,48.232 43.386,48.901 C43.386,49.570 42.851,50.115 42.193,50.115 ZM35.435,38.075 L33.249,38.075 L33.249,39.290 C33.249,39.960 32.714,40.505 32.056,40.505 C31.398,40.505 30.863,39.960 30.863,39.290 L30.863,38.075 L28.677,38.075 C28.019,38.075 27.484,37.530 27.484,36.860 C27.484,36.191 28.019,35.646 28.677,35.646 L35.435,35.646 C36.093,35.646 36.628,36.191 36.628,36.860 C36.628,37.530 36.093,38.075 35.435,38.075 Z"/>
</svg>