<svg 
 xmlns="http://www.w3.org/2000/svg"
 xmlns:xlink="http://www.w3.org/1999/xlink"
 width="40px" height="70px">
<path fill-rule="evenodd"  fill="rgb(255, 255, 255)"
 d="M39.491,31.340 C39.002,32.283 38.191,33.020 37.206,33.415 L37.097,33.459 L37.097,69.992 L34.808,69.992 L34.808,33.669 L34.669,33.640 C34.245,33.552 33.853,33.412 33.504,33.227 L27.675,30.141 L19.592,45.694 C18.642,47.524 16.937,48.807 14.913,49.215 L14.772,49.243 L14.772,63.954 C14.772,67.284 12.089,69.993 8.791,69.993 C5.494,69.993 2.811,67.284 2.811,63.954 L2.811,44.455 L2.741,44.402 C1.586,43.533 0.749,42.343 0.321,40.960 C-0.218,39.211 -0.051,37.357 0.791,35.736 L9.841,18.319 C11.017,16.055 13.323,14.649 15.857,14.649 C16.946,14.649 18.035,14.921 19.006,15.435 L25.787,19.026 C25.923,19.098 26.054,19.176 26.182,19.256 C26.297,19.304 26.371,19.335 26.443,19.375 L37.625,25.295 C38.673,25.850 39.444,26.785 39.798,27.929 C40.151,29.071 40.042,30.283 39.491,31.340 ZM5.100,63.954 C5.100,66.009 6.757,67.681 8.792,67.681 C10.828,67.681 12.485,66.009 12.485,63.954 L12.485,49.260 L12.343,49.233 C11.648,49.101 11.004,48.880 10.430,48.576 L5.100,45.754 L5.100,63.954 ZM36.561,27.342 L25.377,21.420 C25.304,21.397 25.267,21.382 25.230,21.366 L25.047,21.268 C24.950,21.204 24.839,21.134 24.720,21.072 L17.941,17.481 C17.289,17.135 16.587,16.960 15.856,16.960 C14.175,16.960 12.647,17.893 11.866,19.394 L2.817,36.809 C2.259,37.882 2.149,39.111 2.507,40.270 C2.864,41.428 3.647,42.376 4.711,42.941 L11.493,46.531 C12.146,46.876 12.848,47.052 13.579,47.052 C15.260,47.052 16.788,46.120 17.567,44.621 L26.713,27.021 L34.568,31.181 C34.863,31.337 35.198,31.419 35.538,31.419 C36.346,31.419 37.103,30.968 37.467,30.268 C38.016,29.209 37.610,27.896 36.561,27.342 ZM24.781,15.061 C20.668,15.061 17.322,11.683 17.322,7.531 C17.322,3.378 20.668,-0.000 24.781,-0.000 C28.894,-0.000 32.241,3.378 32.241,7.531 C32.241,11.683 28.894,15.061 24.781,15.061 ZM24.781,2.312 C21.930,2.312 19.611,4.653 19.611,7.531 C19.611,10.409 21.930,12.751 24.781,12.751 C27.632,12.751 29.951,10.409 29.951,7.531 C29.951,4.653 27.632,2.312 24.781,2.312 Z"/>
</svg>