<svg 
 xmlns="http://www.w3.org/2000/svg"
 xmlns:xlink="http://www.w3.org/1999/xlink"
 width="44px" height="20px">
<path fill-rule="evenodd"  fill="rgb(182, 206, 229)"
 d="M43.397,10.601 L2.026,10.601 L10.475,18.998 C10.703,19.226 10.703,19.596 10.476,19.825 C10.364,19.936 10.216,19.996 10.058,19.996 C9.902,19.996 9.754,19.936 9.642,19.825 L0.172,10.412 C0.061,10.300 -0.000,10.153 -0.000,9.997 C-0.000,9.840 0.059,9.694 0.167,9.586 L9.642,0.172 C9.755,0.061 9.902,0.001 10.058,0.001 C10.215,0.001 10.363,0.061 10.474,0.171 C10.703,0.399 10.703,0.770 10.476,0.999 L2.024,9.395 L43.397,9.395 C43.729,9.395 44.000,9.666 44.000,10.002 C44.000,10.330 43.729,10.601 43.397,10.601 Z"/>
</svg>