<svg 
 xmlns="http://www.w3.org/2000/svg"
 xmlns:xlink="http://www.w3.org/1999/xlink"
 width="70px" height="70px">
<path fill-rule="evenodd"  fill="rgb(255, 255, 255)"
 d="M51.389,48.599 C48.930,60.794 38.457,69.998 25.956,69.998 C11.649,69.998 -0.004,57.942 -0.004,43.115 C-0.004,28.618 25.956,-0.002 25.956,-0.002 C25.956,-0.002 33.276,8.046 39.263,16.341 C44.249,8.445 51.931,-0.002 51.931,-0.002 C51.931,-0.002 70.321,19.910 70.001,29.927 C69.515,44.727 57.236,48.903 51.389,48.599 ZM25.956,3.361 C21.650,8.239 2.246,30.934 2.246,43.115 C2.246,56.701 12.886,67.752 25.956,67.752 C39.041,67.752 49.680,56.701 49.666,43.115 C49.666,30.934 30.262,8.239 25.956,3.361 ZM40.680,18.325 C46.499,26.634 51.931,36.238 51.931,43.115 C51.931,44.217 51.861,45.306 51.736,46.366 C60.528,46.587 67.737,38.994 67.737,29.927 C67.737,21.963 55.306,7.219 51.931,3.361 C49.889,5.689 44.583,11.960 40.680,18.325 ZM25.970,57.680 C17.872,57.680 11.288,51.149 11.288,43.115 C11.288,35.081 17.872,28.550 25.970,28.550 C34.068,28.550 40.652,35.081 40.652,43.115 C40.652,51.149 34.068,57.680 25.970,57.680 ZM25.970,30.796 C19.122,30.796 13.552,36.321 13.552,43.115 C13.552,49.908 19.122,55.433 25.970,55.433 C32.818,55.433 38.388,49.908 38.388,43.115 C38.388,36.321 32.818,30.796 25.970,30.796 ZM27.095,50.956 L24.831,50.956 L24.831,44.231 L18.053,44.231 L18.053,41.998 L24.831,41.998 L24.831,35.274 L27.095,35.274 L27.095,41.998 L33.873,41.998 L33.873,44.231 L27.095,44.231 L27.095,50.956 ZM24.831,19.593 L27.095,19.593 L27.095,21.839 L24.831,21.839 L24.831,19.593 ZM24.831,15.115 L27.095,15.115 L27.095,17.360 L24.831,17.360 L24.831,15.115 ZM24.831,10.622 L27.095,10.622 L27.095,12.868 L24.831,12.868 L24.831,10.622 Z"/>
</svg>