<svg 
 xmlns="http://www.w3.org/2000/svg"
 xmlns:xlink="http://www.w3.org/1999/xlink"
 width="40px" height="50px">
<path fill-rule="evenodd"  fill="rgb(255, 255, 255)"
 d="M33.476,25.833 C30.151,25.833 27.404,28.380 27.001,31.663 L17.963,31.663 L17.963,26.561 C18.812,26.345 19.545,25.796 20.007,24.999 L30.557,6.790 C31.176,5.728 31.184,4.454 30.586,3.380 C29.988,2.306 28.907,1.667 27.695,1.667 L25.840,1.667 C25.378,0.682 24.405,-0.001 23.269,-0.001 C21.965,-0.001 18.775,1.020 18.775,2.916 C18.775,4.808 21.965,5.834 23.269,5.834 C24.704,5.834 25.884,4.744 26.084,3.331 L27.695,3.331 C28.309,3.331 28.859,3.657 29.166,4.206 C29.469,4.751 29.465,5.403 29.150,5.944 L18.600,24.153 C18.293,24.681 17.747,24.999 17.145,24.999 C16.539,24.999 15.997,24.681 15.681,24.144 L4.836,5.944 C4.522,5.403 4.518,4.751 4.821,4.206 C5.127,3.657 5.677,3.331 6.291,3.331 L8.201,3.331 C8.404,4.744 9.585,5.834 11.021,5.834 C12.324,5.834 15.510,4.808 15.510,2.916 C15.510,1.020 12.324,-0.001 11.021,-0.001 C9.885,-0.001 8.907,0.682 8.448,1.667 L6.291,1.667 C5.083,1.667 4.003,2.306 3.401,3.380 C2.803,4.454 2.815,5.728 3.437,6.798 L14.282,25.003 C14.744,25.796 15.478,26.345 16.327,26.561 L16.327,31.663 L8.979,31.663 C4.027,31.663 -0.004,35.778 -0.004,40.831 C-0.004,45.885 4.027,49.999 8.979,49.999 C13.931,49.999 17.963,45.885 17.963,40.831 L17.963,33.332 L27.001,33.332 C27.404,36.615 30.151,39.167 33.476,39.167 C37.077,39.167 40.007,36.176 40.007,32.497 C40.007,28.823 37.077,25.833 33.476,25.833 L33.476,25.833 ZM16.327,40.831 C16.327,44.970 13.030,48.330 8.979,48.330 C4.928,48.330 1.631,44.970 1.631,40.831 C1.631,36.696 4.928,33.332 8.979,33.332 L16.327,33.332 L16.327,40.831 ZM33.476,35.830 C31.674,35.830 30.211,34.337 30.211,32.497 C30.211,30.659 31.674,29.166 33.476,29.166 C35.278,29.166 36.742,30.659 36.742,32.497 C36.742,34.337 35.278,35.830 33.476,35.830 L33.476,35.830 Z"/>
</svg>