<svg 
 xmlns="http://www.w3.org/2000/svg"
 xmlns:xlink="http://www.w3.org/1999/xlink"
 width="16px" height="16px">
<path fill-rule="evenodd"  fill="rgb(134, 160, 185)"
 d="M14.667,15.998 L1.333,15.998 C0.598,15.998 -0.000,15.400 -0.000,14.662 L-0.000,2.830 C-0.000,2.096 0.598,1.497 1.333,1.497 L3.501,1.497 L3.501,0.498 C3.501,0.223 3.723,-0.001 3.998,-0.001 C4.275,-0.001 4.499,0.223 4.499,0.498 L4.499,1.497 L7.499,1.497 L7.499,0.498 C7.499,0.223 7.724,-0.001 8.000,-0.001 C8.276,-0.001 8.500,0.223 8.500,0.498 L8.500,1.497 L11.498,1.497 L11.498,0.498 C11.498,0.223 11.723,-0.001 11.998,-0.001 C12.275,-0.001 12.499,0.223 12.499,0.498 L12.499,1.497 L14.667,1.497 C15.402,1.497 16.000,2.096 16.000,2.830 L16.000,14.662 C16.000,15.400 15.402,15.998 14.667,15.998 ZM14.999,2.830 C14.999,2.647 14.850,2.498 14.667,2.498 L12.499,2.498 L12.499,3.499 C12.499,3.775 12.275,3.997 11.998,3.997 C11.723,3.997 11.498,3.775 11.498,3.499 L11.498,2.498 L8.500,2.498 L8.500,3.499 C8.500,3.775 8.276,3.997 8.000,3.997 C7.724,3.997 7.499,3.775 7.499,3.499 L7.499,2.498 L4.499,2.498 L4.499,3.499 C4.499,3.775 4.275,3.997 3.998,3.997 C3.723,3.997 3.501,3.775 3.501,3.499 L3.501,2.498 L1.333,2.498 C1.150,2.498 1.001,2.647 1.001,2.830 L1.001,14.662 C1.001,14.847 1.150,14.997 1.333,14.997 L14.667,14.997 C14.850,14.997 14.999,14.847 14.999,14.662 L14.999,2.830 ZM10.500,10.999 L12.499,10.999 L12.499,12.497 L10.500,12.497 L10.500,10.999 ZM10.500,8.499 L12.499,8.499 L12.499,9.997 L10.500,9.997 L10.500,8.499 ZM10.500,5.999 L12.499,5.999 L12.499,7.497 L10.500,7.497 L10.500,5.999 ZM6.999,10.999 L8.998,10.999 L8.998,12.497 L6.999,12.497 L6.999,10.999 ZM6.999,8.499 L8.998,8.499 L8.998,9.997 L6.999,9.997 L6.999,8.499 ZM6.999,5.999 L8.998,5.999 L8.998,7.497 L6.999,7.497 L6.999,5.999 ZM3.501,10.999 L5.500,10.999 L5.500,12.497 L3.501,12.497 L3.501,10.999 ZM3.501,8.499 L5.500,8.499 L5.500,9.997 L3.501,9.997 L3.501,8.499 ZM3.501,5.999 L5.500,5.999 L5.500,7.497 L3.501,7.497 L3.501,5.999 Z"/>
</svg>