<svg 
 xmlns="http://www.w3.org/2000/svg"
 xmlns:xlink="http://www.w3.org/1999/xlink"
 width="60px" height="54px">
<path fill-rule="evenodd"  fill="rgb(255, 91, 79)"
 d="M54.796,29.716 L29.998,53.999 L6.907,31.386 L9.632,31.386 L29.998,51.330 L53.434,28.381 C56.423,25.454 58.069,21.557 58.069,17.407 C58.069,13.255 56.423,9.358 53.434,6.432 C50.440,3.501 46.459,1.886 42.226,1.886 C38.461,1.886 34.780,3.258 31.861,5.751 L29.998,7.456 L28.151,5.765 C25.219,3.260 21.537,1.887 17.770,1.887 C13.536,1.887 9.556,3.501 6.562,6.432 C2.601,10.311 1.080,15.949 2.502,21.299 L0.516,21.299 C-0.878,15.382 0.856,9.353 5.200,5.097 C8.558,1.810 13.022,-0.001 17.770,-0.001 C22.103,-0.001 26.311,1.606 29.620,4.525 L29.998,4.858 L30.376,4.525 C33.684,1.606 37.893,-0.001 42.226,-0.001 C46.974,-0.001 51.438,1.810 54.796,5.097 C61.726,11.885 61.726,22.929 54.796,29.716 ZM0.957,25.397 L12.531,25.397 L18.405,11.022 C18.551,10.663 18.907,10.431 19.314,10.431 L19.383,10.434 C19.800,10.467 20.147,10.763 20.240,11.169 L25.047,32.350 L26.142,32.382 L30.602,17.099 C30.717,16.700 31.080,16.426 31.507,16.416 L31.573,16.411 C31.599,16.407 31.625,16.406 31.651,16.406 C31.975,16.406 32.314,16.687 32.441,17.061 L35.278,25.397 L46.811,25.397 C47.342,25.397 47.774,25.820 47.774,26.340 C47.774,26.860 47.342,27.284 46.811,27.284 L34.584,27.284 C34.168,27.284 33.800,27.024 33.668,26.638 L31.598,20.552 L26.338,38.575 C26.220,38.978 25.840,39.259 25.413,39.259 L25.368,39.259 C24.943,39.246 24.567,38.941 24.471,38.520 L19.036,14.559 L14.079,26.690 C13.935,27.046 13.577,27.284 13.188,27.284 L0.957,27.284 C0.426,27.284 -0.006,26.860 -0.006,26.340 C-0.006,25.820 0.426,25.397 0.957,25.397 Z"/>
</svg>