<svg 
 xmlns="http://www.w3.org/2000/svg"
 xmlns:xlink="http://www.w3.org/1999/xlink"
 width="51px" height="50px">
<path fill-rule="evenodd"  fill="rgb(48, 79, 110)"
 d="M37.279,34.713 C35.523,43.424 28.042,49.999 19.113,49.999 C8.894,49.999 0.569,41.387 0.569,30.796 C0.569,20.441 19.113,-0.001 19.113,-0.001 C19.113,-0.001 24.341,5.747 28.618,11.671 C32.180,6.032 37.666,-0.001 37.666,-0.001 C37.666,-0.001 50.802,14.221 50.574,21.377 C50.227,31.948 41.456,34.930 37.279,34.713 ZM19.113,2.400 C16.037,5.884 2.177,22.095 2.177,30.796 C2.177,40.501 9.776,48.395 19.113,48.395 C28.459,48.395 36.059,40.501 36.049,30.796 C36.049,22.095 22.188,5.884 19.113,2.400 ZM29.630,13.089 C33.787,19.024 37.666,25.885 37.666,30.796 C37.666,31.583 37.617,32.361 37.527,33.119 C43.808,33.277 48.957,27.853 48.957,21.377 C48.957,15.687 40.077,5.155 37.666,2.400 C36.208,4.063 32.418,8.541 29.630,13.089 ZM19.123,41.200 C13.338,41.200 8.635,36.535 8.635,30.796 C8.635,25.058 13.338,20.392 19.123,20.392 C24.907,20.392 29.610,25.058 29.610,30.796 C29.610,36.535 24.907,41.200 19.123,41.200 ZM19.123,21.997 C14.231,21.997 10.253,25.944 10.253,30.796 C10.253,35.648 14.231,39.595 19.123,39.595 C24.014,39.595 27.993,35.648 27.993,30.796 C27.993,25.944 24.014,21.997 19.123,21.997 ZM19.926,36.397 L18.309,36.397 L18.309,31.593 L13.467,31.593 L13.467,29.999 L18.309,29.999 L18.309,25.196 L19.926,25.196 L19.926,29.999 L24.768,29.999 L24.768,31.593 L19.926,31.593 L19.926,36.397 ZM18.309,13.994 L19.926,13.994 L19.926,15.599 L18.309,15.599 L18.309,13.994 ZM18.309,10.796 L19.926,10.796 L19.926,12.400 L18.309,12.400 L18.309,10.796 ZM18.309,7.586 L19.926,7.586 L19.926,9.191 L18.309,9.191 L18.309,7.586 Z"/>
</svg>