<svg 
 xmlns="http://www.w3.org/2000/svg"
 xmlns:xlink="http://www.w3.org/1999/xlink"
 width="57px" height="70px">
<path fill-rule="evenodd"  fill="rgb(255, 255, 255)"
 d="M47.704,36.166 C42.965,36.166 39.051,39.733 38.476,44.329 L25.597,44.329 L25.597,37.186 C26.807,36.884 27.851,36.115 28.510,34.998 L43.544,9.507 C44.426,8.020 44.437,6.235 43.585,4.732 C42.732,3.229 41.192,2.335 39.466,2.335 L36.823,2.335 C36.164,0.956 34.778,-0.002 33.159,-0.002 C31.300,-0.002 26.754,1.427 26.754,4.084 C26.754,6.731 31.300,8.168 33.159,8.168 C35.204,8.168 36.885,6.642 37.170,4.664 L39.466,4.664 C40.340,4.664 41.124,5.120 41.562,5.889 C41.994,6.651 41.988,7.564 41.538,8.322 L26.506,33.815 C26.068,34.554 25.290,34.998 24.432,34.998 C23.568,34.998 22.795,34.554 22.346,33.802 L6.891,8.322 C6.443,7.564 6.438,6.651 6.870,5.889 C7.306,5.120 8.090,4.664 8.965,4.664 L11.687,4.664 C11.976,6.642 13.659,8.168 15.704,8.168 C17.562,8.168 22.101,6.731 22.101,4.084 C22.101,1.427 17.562,-0.002 15.704,-0.002 C14.085,-0.002 12.692,0.956 12.039,2.335 L8.965,2.335 C7.243,2.335 5.704,3.229 4.846,4.732 C3.994,6.235 4.011,8.020 4.897,9.518 L20.352,35.005 C21.011,36.115 22.056,36.884 23.266,37.186 L23.266,44.329 L12.795,44.329 C5.738,44.329 -0.006,50.089 -0.006,57.163 C-0.006,64.239 5.738,69.998 12.795,69.998 C19.851,69.998 25.597,64.239 25.597,57.163 L25.597,46.665 L38.476,46.665 C39.051,51.262 42.965,54.835 47.704,54.835 C52.834,54.835 57.010,50.647 57.010,45.497 C57.010,40.353 52.834,36.166 47.704,36.166 L47.704,36.166 ZM23.266,57.163 C23.266,62.958 18.568,67.663 12.795,67.663 C7.022,67.663 2.324,62.958 2.324,57.163 C2.324,51.375 7.022,46.665 12.795,46.665 L23.266,46.665 L23.266,57.163 ZM47.704,50.162 C45.135,50.162 43.051,48.073 43.051,45.497 C43.051,42.923 45.135,40.832 47.704,40.832 C50.271,40.832 52.357,42.923 52.357,45.497 C52.357,48.073 50.271,50.162 47.704,50.162 L47.704,50.162 Z"/>
</svg>