<svg 
 xmlns="http://www.w3.org/2000/svg"
 xmlns:xlink="http://www.w3.org/1999/xlink"
 width="16px" height="16px">
<path fill-rule="evenodd"  fill="rgb(48, 79, 110)"
 d="M15.521,9.696 L15.521,15.499 L12.276,15.499 L12.276,10.084 C12.276,8.724 11.807,7.796 10.632,7.796 C9.735,7.796 9.203,8.421 8.967,9.027 C8.882,9.242 8.860,9.543 8.860,9.847 L8.860,15.498 L5.614,15.498 C5.614,15.498 5.658,6.328 5.614,5.379 L8.860,5.379 L8.860,6.813 C8.854,6.825 8.844,6.835 8.839,6.846 L8.860,6.846 L8.860,6.813 C9.292,6.124 10.061,5.142 11.785,5.142 C13.921,5.142 15.521,6.587 15.521,9.696 L15.521,9.696 ZM2.219,0.500 C1.109,0.500 0.382,1.256 0.382,2.249 C0.382,3.221 1.088,3.998 2.176,3.998 L2.197,3.998 C3.329,3.998 4.033,3.221 4.033,2.249 C4.012,1.256 3.329,0.500 2.219,0.500 L2.219,0.500 ZM0.575,15.499 L3.820,15.499 L3.820,5.379 L0.575,5.379 L0.575,15.499 Z"/>
</svg>