<svg 
 xmlns="http://www.w3.org/2000/svg"
 xmlns:xlink="http://www.w3.org/1999/xlink"
 width="56px" height="50px">
<path fill-rule="evenodd"  fill="rgb(255, 255, 255)"
 d="M50.430,27.513 L28.000,49.996 L7.113,29.060 L9.578,29.060 L28.000,47.525 L49.198,26.277 C51.902,23.567 53.391,19.958 53.391,16.116 C53.391,12.272 51.902,8.664 49.198,5.955 C46.490,3.240 42.890,1.746 39.060,1.746 C35.655,1.746 32.325,3.017 29.685,5.324 L28.000,6.903 L26.328,5.338 C23.676,3.018 20.347,1.747 16.939,1.747 C13.109,1.747 9.509,3.241 6.801,5.955 C3.218,9.546 1.842,14.766 3.129,19.721 L1.332,19.721 C0.070,14.241 1.639,8.659 5.569,4.719 C8.606,1.675 12.644,-0.001 16.939,-0.001 C20.858,-0.001 24.665,1.487 27.658,4.189 L28.000,4.498 L28.342,4.189 C31.334,1.487 35.141,-0.001 39.060,-0.001 C43.355,-0.001 47.393,1.675 50.430,4.719 C56.699,11.003 56.699,21.228 50.430,27.513 ZM1.731,23.514 L12.200,23.514 L17.513,10.205 C17.645,9.872 17.968,9.658 18.336,9.658 L18.398,9.660 C18.775,9.691 19.089,9.965 19.173,10.341 L23.521,29.951 L24.511,29.981 L28.546,15.832 C28.650,15.462 28.979,15.208 29.364,15.200 L29.424,15.194 C29.448,15.190 29.472,15.189 29.495,15.189 C29.788,15.189 30.095,15.449 30.210,15.796 L32.775,23.514 L43.208,23.514 C43.688,23.514 44.079,23.906 44.079,24.387 C44.079,24.869 43.688,25.261 43.208,25.261 L32.148,25.261 C31.772,25.261 31.439,25.021 31.320,24.664 L29.447,19.028 L24.689,35.716 C24.583,36.088 24.239,36.348 23.852,36.348 L23.811,36.348 C23.427,36.336 23.087,36.054 23.001,35.663 L18.084,13.479 L13.600,24.712 C13.470,25.041 13.146,25.261 12.794,25.261 L1.731,25.261 C1.250,25.261 0.859,24.869 0.859,24.387 C0.859,23.906 1.250,23.514 1.731,23.514 Z"/>
</svg>