<svg 
 xmlns="http://www.w3.org/2000/svg"
 xmlns:xlink="http://www.w3.org/1999/xlink"
 width="72px" height="70px">
<path fill-rule="evenodd"  fill="rgb(255, 255, 255)"
 d="M64.301,49.177 C61.118,61.249 49.234,69.996 35.989,69.996 C22.753,69.996 10.874,61.249 7.689,49.177 C3.435,49.033 -0.003,45.512 -0.003,41.268 C-0.003,36.900 3.576,33.345 7.974,33.345 L8.519,33.345 C12.185,23.625 21.331,16.765 31.995,15.376 C29.918,13.593 28.596,10.965 28.596,8.031 C28.596,3.604 32.222,0.002 36.679,0.002 C40.381,0.002 43.394,2.995 43.394,6.672 C43.394,9.753 40.871,12.258 37.770,12.258 C35.148,12.258 33.016,10.145 33.016,7.548 C33.016,6.853 33.580,6.288 34.272,6.288 C34.972,6.288 35.541,6.853 35.541,7.548 C35.541,8.769 36.540,9.762 37.770,9.762 C39.479,9.762 40.870,8.376 40.870,6.672 C40.870,4.377 38.990,2.509 36.679,2.509 C33.614,2.509 31.120,4.987 31.120,8.031 C31.120,11.705 33.904,14.711 37.477,15.157 C49.204,15.720 59.520,22.871 63.470,33.345 L64.015,33.345 C68.414,33.345 71.993,36.900 71.993,41.268 C71.993,45.512 68.555,49.033 64.301,49.177 ZM64.015,35.852 L62.575,35.852 C62.033,35.852 61.552,35.509 61.380,34.998 C58.109,25.342 49.077,18.637 38.468,17.725 C38.435,17.727 38.407,17.743 38.374,17.743 C37.939,17.743 37.513,17.705 37.092,17.650 C36.725,17.636 36.360,17.609 35.989,17.609 C24.328,17.609 14.125,24.597 10.599,34.998 C10.429,35.509 9.949,35.852 9.404,35.852 L7.974,35.852 C4.967,35.852 2.521,38.282 2.521,41.268 C2.521,44.250 4.967,46.676 7.974,46.676 L8.685,46.676 C9.275,46.676 9.792,47.092 9.914,47.666 C12.475,59.158 23.441,67.499 35.989,67.499 C48.546,67.499 59.517,59.158 62.075,47.664 C62.197,47.092 62.715,46.676 63.307,46.676 L64.015,46.676 C67.023,46.676 69.471,44.250 69.471,41.268 C69.471,38.282 67.023,35.852 64.015,35.852 ZM45.086,48.202 C43.545,48.202 42.291,46.957 42.291,45.428 C42.291,43.893 43.545,42.644 45.086,42.644 C46.632,42.644 47.890,43.893 47.890,45.428 C47.890,46.957 46.632,48.202 45.086,48.202 ZM42.864,55.103 C43.064,54.982 43.293,54.919 43.526,54.919 C43.966,54.919 44.366,55.139 44.596,55.507 C44.956,56.105 44.769,56.877 44.180,57.231 L43.756,57.493 C41.401,58.930 38.715,59.689 35.989,59.689 C33.245,59.689 30.560,58.930 28.223,57.493 L27.799,57.228 C27.515,57.060 27.315,56.787 27.237,56.464 C27.158,56.139 27.214,55.802 27.393,55.517 C27.622,55.143 28.024,54.919 28.467,54.919 C28.698,54.919 28.927,54.983 29.127,55.102 L29.553,55.365 C31.501,56.557 33.727,57.188 35.991,57.188 C38.254,57.188 40.484,56.557 42.438,55.365 L42.864,55.103 ZM27.903,48.202 C26.356,48.202 25.098,46.957 25.098,45.428 C25.098,43.893 26.356,42.644 27.903,42.644 C29.443,42.644 30.697,43.893 30.697,45.428 C30.697,46.957 29.443,48.202 27.903,48.202 Z"/>
</svg>