<svg 
 xmlns="http://www.w3.org/2000/svg"
 xmlns:xlink="http://www.w3.org/1999/xlink"
 width="60px" height="71px">
<path fill-rule="evenodd"  fill="rgb(255, 91, 79)"
 d="M56.612,70.999 L3.385,70.999 C3.035,70.999 2.687,70.946 2.353,70.841 C0.575,70.287 -0.410,68.423 0.159,66.688 L1.803,61.659 C3.953,55.993 9.573,52.176 15.783,52.176 L19.475,52.176 L19.555,51.922 C20.305,49.523 20.457,46.951 19.992,44.484 C19.839,43.204 19.612,41.895 19.321,40.617 L19.300,40.523 L19.234,40.452 C17.747,38.864 16.813,36.810 16.604,34.670 L16.562,34.238 L16.136,34.359 C16.006,34.395 15.871,34.418 15.736,34.425 C15.564,34.424 15.378,34.393 15.201,34.335 C13.635,33.826 12.842,31.080 12.842,26.171 C12.739,24.926 13.098,23.720 13.852,22.746 L14.003,22.550 L13.871,22.342 C12.739,20.558 12.020,18.601 11.733,16.522 C11.635,15.877 11.587,15.222 11.591,14.571 C11.591,4.492 22.096,3.326 29.998,3.326 L30.165,3.326 C32.749,3.326 35.420,3.326 37.812,2.044 C39.772,0.992 41.623,-0.001 43.273,-0.001 C43.912,-0.001 44.481,0.147 45.010,0.453 C47.213,1.724 48.406,4.350 48.406,14.570 C48.400,17.318 47.610,20.003 46.123,22.336 L45.989,22.545 L46.142,22.743 C46.899,23.716 47.259,24.924 47.156,26.142 C47.155,31.080 46.362,33.826 44.799,34.333 C44.619,34.393 44.433,34.424 44.243,34.424 C44.126,34.418 43.992,34.395 43.861,34.359 L43.435,34.238 L43.393,34.669 C43.184,36.810 42.250,38.865 40.764,40.452 L40.697,40.523 L40.676,40.617 C40.385,41.897 40.158,43.203 40.002,44.500 C39.541,46.947 39.692,49.521 40.442,51.922 L40.522,52.176 L44.215,52.176 C44.877,52.181 45.549,52.229 46.210,52.321 L46.303,52.333 C51.700,53.058 56.260,56.617 58.179,61.617 L59.839,66.688 C59.946,67.013 60.000,67.351 60.000,67.693 C60.000,69.516 58.480,70.999 56.612,70.999 ZM15.516,32.414 L15.740,32.793 L16.077,32.505 C16.296,32.318 16.496,32.108 16.670,31.882 L16.741,31.791 L16.744,31.678 C16.820,29.279 16.579,26.875 16.028,24.534 L16.000,24.412 L15.901,24.335 C15.830,24.279 15.755,24.228 15.677,24.181 L15.613,24.143 L15.539,24.131 C15.476,24.122 15.414,24.105 15.354,24.082 L14.995,23.942 L14.870,24.299 C14.656,24.911 14.569,25.548 14.611,26.195 C14.611,30.538 15.304,32.053 15.516,32.414 ZM46.638,14.570 C46.638,4.261 45.333,2.644 44.110,1.938 C43.870,1.799 43.580,1.729 43.250,1.729 C42.074,1.729 40.419,2.615 38.667,3.554 C36.087,4.937 33.095,5.051 29.998,5.051 C15.250,5.051 13.359,10.138 13.359,14.570 C13.356,15.138 13.398,15.714 13.483,16.280 C13.736,18.107 14.369,19.833 15.362,21.405 L15.639,21.844 L21.662,14.340 C21.702,14.285 21.733,14.245 21.765,14.205 C22.334,13.499 23.189,13.094 24.111,13.094 C24.784,13.094 25.420,13.309 25.950,13.716 C27.107,14.582 28.544,15.059 29.999,15.059 C31.467,15.058 32.860,14.599 34.028,13.730 C34.077,13.692 34.121,13.660 34.165,13.629 C34.671,13.281 35.266,13.096 35.885,13.096 C36.854,13.096 37.766,13.556 38.325,14.326 L43.807,21.158 L44.776,21.187 L44.886,20.999 C46.028,19.044 46.634,16.821 46.638,14.570 ZM43.258,31.794 L43.329,31.885 C43.503,32.110 43.702,32.319 43.920,32.505 L44.257,32.793 L44.481,32.414 C44.693,32.053 45.387,30.538 45.387,26.171 C45.429,25.549 45.342,24.910 45.127,24.297 L45.010,23.963 L44.666,24.072 C44.617,24.087 44.566,24.099 44.514,24.105 L44.447,24.114 L44.388,24.146 C44.292,24.197 44.200,24.257 44.113,24.322 L44.008,24.400 L43.978,24.525 C43.423,26.868 43.180,29.275 43.254,31.680 L43.258,31.794 ZM41.632,34.623 C41.632,34.342 41.620,34.062 41.597,33.794 C41.245,30.285 41.523,26.782 42.424,23.374 C42.436,23.322 42.453,23.260 42.471,23.200 L42.541,22.951 C42.559,22.884 42.569,22.827 42.579,22.773 L42.639,22.501 L36.944,15.405 C36.947,15.405 36.925,15.372 36.900,15.341 C36.663,15.028 36.281,14.841 35.880,14.841 C35.606,14.841 35.344,14.926 35.123,15.086 C33.637,16.197 31.866,16.783 29.999,16.783 C28.137,16.783 26.371,16.201 24.892,15.099 C24.855,15.072 24.819,15.047 24.781,15.025 C24.583,14.907 24.353,14.843 24.118,14.843 C23.670,14.843 23.263,15.066 23.029,15.438 L17.351,22.509 L17.436,22.850 L17.480,23.007 C18.460,26.570 18.765,30.183 18.401,33.797 C18.377,34.061 18.366,34.341 18.366,34.623 C18.366,37.096 21.032,40.568 25.874,44.394 C27.037,45.315 28.502,45.821 29.999,45.821 C31.495,45.821 32.959,45.315 34.121,44.396 C38.964,40.569 41.632,37.096 41.632,34.623 ZM29.998,57.061 C32.340,57.061 34.662,56.480 36.714,55.381 L36.815,55.328 L36.866,55.226 C37.333,54.309 37.930,53.460 38.638,52.703 L38.778,52.555 L38.720,52.361 C37.939,49.765 37.774,46.985 38.243,44.321 C38.252,44.244 38.294,43.964 38.294,43.964 L38.417,42.990 L37.680,43.658 C36.814,44.442 36.038,45.102 35.238,45.734 C33.760,46.902 31.900,47.545 29.998,47.545 C28.096,47.545 26.235,46.901 24.758,45.732 C23.951,45.094 23.175,44.435 22.316,43.657 L21.579,42.989 L21.701,43.963 C21.701,43.963 21.745,44.250 21.751,44.307 C22.223,46.990 22.058,49.767 21.278,52.361 L21.219,52.555 L21.359,52.703 C22.068,53.460 22.664,54.309 23.131,55.226 L23.182,55.328 L23.283,55.381 C25.335,56.480 27.658,57.061 29.998,57.061 ZM24.528,57.892 L24.896,58.626 C27.059,62.937 28.667,65.610 29.998,65.610 C31.330,65.610 32.938,62.937 35.101,58.626 L35.469,57.892 L34.666,58.125 C33.150,58.564 31.580,58.786 29.999,58.786 C28.417,58.786 26.847,58.564 25.331,58.125 L24.528,57.892 ZM58.155,67.213 L56.508,62.183 C55.006,58.326 51.684,55.404 47.617,54.346 L47.155,54.226 L47.155,59.502 L47.522,59.503 C49.388,59.506 50.908,60.987 50.910,62.809 L50.910,65.251 C50.910,65.726 50.513,66.114 50.026,66.114 L48.774,66.114 C48.287,66.114 47.890,65.726 47.890,65.251 C47.890,64.775 48.287,64.389 48.774,64.389 L49.142,64.389 L49.142,62.808 C49.140,61.938 48.414,61.230 47.523,61.229 L45.019,61.229 C44.127,61.230 43.401,61.938 43.400,62.807 L43.400,64.389 L43.767,64.389 C44.255,64.389 44.651,64.775 44.651,65.251 C44.651,65.726 44.255,66.114 43.767,66.114 L42.516,66.114 C42.028,66.113 41.631,65.726 41.632,65.251 L41.632,62.808 C41.633,60.987 43.153,59.506 45.019,59.503 L45.387,59.502 L45.387,53.961 L44.868,53.929 C44.651,53.915 44.434,53.901 44.215,53.901 L39.855,53.901 L39.745,54.052 C38.608,55.623 37.632,57.313 36.845,59.073 C34.720,63.316 32.708,67.335 29.998,67.335 C27.290,67.335 25.277,63.316 23.146,59.060 C22.364,57.314 21.390,55.624 20.254,54.052 L20.145,53.901 L16.518,53.901 L16.416,53.984 C14.751,55.341 13.690,57.246 13.427,59.346 L13.393,59.627 L13.664,59.726 C14.617,60.072 15.353,60.810 15.681,61.751 C16.283,63.471 15.338,65.348 13.574,65.936 C13.220,66.054 12.853,66.114 12.482,66.114 C11.036,66.114 9.751,65.217 9.283,63.881 C8.682,62.160 9.627,60.282 11.391,59.694 L11.616,59.619 L11.638,59.387 C11.796,57.730 12.389,56.128 13.353,54.756 L13.878,54.010 L12.972,54.202 C8.596,55.132 5.045,58.130 3.474,62.224 L1.843,67.213 C1.792,67.369 1.766,67.531 1.766,67.694 C1.767,68.565 2.492,69.273 3.384,69.273 L56.612,69.273 C56.778,69.273 56.942,69.248 57.102,69.198 C57.955,68.933 58.426,68.043 58.155,67.213 ZM12.475,61.229 L12.475,61.229 C11.583,61.230 10.857,61.938 10.855,62.807 C10.855,63.679 11.582,64.389 12.475,64.389 C13.368,64.389 14.094,63.679 14.094,62.808 C14.094,61.938 13.368,61.229 12.475,61.229 ZM37.141,27.896 C37.141,28.372 36.745,28.760 36.257,28.760 C35.769,28.760 35.373,28.372 35.373,27.896 L35.373,27.035 L33.754,27.035 C33.266,27.035 32.869,26.647 32.869,26.171 C32.869,25.695 33.266,25.309 33.754,25.309 L38.761,25.309 C39.248,25.309 39.645,25.695 39.645,26.171 C39.645,26.647 39.248,27.035 38.761,27.035 L37.141,27.035 L37.141,27.896 ZM33.386,39.605 C33.386,40.080 32.990,40.468 32.502,40.468 L27.495,40.468 C27.008,40.468 26.611,40.080 26.611,39.605 C26.611,39.129 27.008,38.742 27.495,38.742 L32.502,38.742 C32.990,38.742 33.386,39.129 33.386,39.605 ZM31.250,35.582 L28.747,35.582 C28.259,35.582 27.863,35.195 27.863,34.720 C27.863,34.244 28.259,33.858 28.747,33.858 L31.250,33.858 C31.738,33.858 32.134,34.244 32.134,34.720 C32.134,35.195 31.738,35.582 31.250,35.582 ZM26.243,27.035 L24.624,27.035 L24.624,27.896 C24.624,28.372 24.228,28.760 23.740,28.760 C23.253,28.760 22.856,28.372 22.856,27.896 L22.856,27.035 L21.237,27.035 C20.749,27.035 20.353,26.647 20.353,26.171 C20.353,25.695 20.749,25.309 21.237,25.309 L26.243,25.309 C26.731,25.309 27.128,25.695 27.128,26.171 C27.128,26.647 26.731,27.035 26.243,27.035 Z"/>
</svg>