<svg 
 xmlns="http://www.w3.org/2000/svg"
 xmlns:xlink="http://www.w3.org/1999/xlink"
 width="44px" height="20px">
<path fill-rule="evenodd"  fill="rgb(182, 206, 229)"
 d="M43.833,10.414 L34.358,19.828 C34.245,19.938 34.098,19.999 33.942,19.999 C33.785,19.999 33.637,19.938 33.526,19.829 C33.297,19.601 33.297,19.229 33.524,19.001 L41.976,10.604 L0.603,10.604 C0.271,10.604 -0.000,10.334 -0.000,9.998 C-0.000,9.670 0.271,9.399 0.603,9.399 L41.974,9.399 L33.525,1.002 C33.297,0.774 33.297,0.403 33.524,0.175 C33.636,0.064 33.784,0.004 33.942,0.004 C34.098,0.004 34.246,0.064 34.358,0.174 L43.828,9.588 C43.939,9.699 44.000,9.846 44.000,10.003 C44.000,10.159 43.941,10.305 43.833,10.414 Z"/>
</svg>