<svg 
 xmlns="http://www.w3.org/2000/svg"
 xmlns:xlink="http://www.w3.org/1999/xlink"
 width="54px" height="100px">
<path fill-rule="evenodd"  opacity="0.2" fill="rgb(86, 77, 128)"
 d="M46.617,99.998 L7.386,99.998 C3.317,99.998 -0.005,96.668 -0.005,92.561 L-0.005,7.434 C-0.005,3.340 3.304,-0.002 7.386,-0.002 L46.604,-0.002 C50.686,-0.002 53.995,3.327 54.008,7.434 L54.008,92.561 C54.008,96.655 50.699,99.998 46.617,99.998 ZM51.741,7.434 C51.741,4.584 49.437,2.265 46.604,2.265 L7.373,2.265 C4.540,2.265 2.236,4.584 2.236,7.434 L2.236,13.911 L51.741,13.911 L51.741,7.434 ZM51.741,16.165 L2.236,16.165 L2.236,83.765 L51.741,83.765 L51.741,16.165 ZM51.754,86.020 L2.248,86.020 L2.248,92.548 C2.248,95.399 4.553,97.717 7.386,97.717 L46.617,97.717 C49.450,97.717 51.754,95.399 51.754,92.548 L51.754,86.020 ZM27.986,92.898 L25.991,92.898 C25.373,92.898 24.871,92.393 24.871,91.772 C24.871,91.149 25.373,90.644 25.991,90.644 L27.986,90.644 C28.604,90.644 29.107,91.149 29.107,91.772 C29.107,92.393 28.604,92.898 27.986,92.898 ZM11.931,34.354 L13.733,34.354 L13.733,32.075 C13.733,31.452 14.235,30.948 14.853,30.948 C15.472,30.948 15.974,31.452 15.974,32.075 L15.974,34.354 L21.832,34.354 L21.832,32.075 C21.832,31.452 22.334,30.948 22.952,30.948 C23.570,30.948 24.072,31.452 24.072,32.075 L24.072,34.354 L29.943,34.354 L29.943,32.075 C29.943,31.452 30.446,30.948 31.064,30.948 C31.682,30.948 32.184,31.452 32.184,32.075 L32.184,34.354 L38.055,34.354 L38.055,32.075 C38.055,31.452 38.557,30.948 39.175,30.948 C39.793,30.948 40.295,31.452 40.295,32.075 L40.295,34.354 L42.059,34.354 C44.982,34.354 47.364,36.752 47.364,39.692 L47.364,62.519 C47.364,65.459 44.982,67.856 42.059,67.856 L11.931,67.856 C9.008,67.856 6.639,65.459 6.626,62.531 L6.626,39.692 C6.626,36.752 9.008,34.354 11.931,34.354 ZM8.879,62.519 C8.879,64.216 10.244,65.589 11.931,65.589 L42.046,65.589 C43.733,65.589 45.098,64.216 45.098,62.519 L45.098,45.016 L8.879,45.016 L8.879,62.519 ZM8.879,42.749 L45.111,42.749 L45.111,39.692 C45.111,37.994 43.746,36.622 42.059,36.622 L40.257,36.622 L40.257,39.471 C40.257,40.093 39.755,40.598 39.136,40.598 C38.518,40.598 38.016,40.093 38.016,39.471 L38.016,36.622 L32.145,36.622 L32.145,39.471 C32.145,40.093 31.643,40.598 31.025,40.598 C30.407,40.598 29.905,40.093 29.905,39.471 L29.905,36.622 L24.034,36.622 L24.034,39.471 C24.034,40.093 23.531,40.598 22.913,40.598 C22.295,40.598 21.793,40.093 21.793,39.471 L21.793,36.622 L15.935,36.622 L15.935,39.471 C15.935,40.093 15.433,40.598 14.815,40.598 C14.197,40.598 13.695,40.093 13.695,39.471 L13.695,36.622 L11.931,36.622 C10.244,36.622 8.879,37.994 8.879,39.692 L8.879,42.749 ZM40.978,58.504 L37.347,58.504 C36.729,58.504 36.227,57.997 36.227,57.375 C36.227,56.754 36.729,56.248 37.347,56.248 L40.978,56.248 C41.609,56.248 42.111,56.754 42.098,57.375 C42.098,57.997 41.596,58.504 40.978,58.504 ZM40.978,54.228 L37.347,54.228 C36.729,54.228 36.227,53.709 36.227,53.100 C36.227,52.478 36.729,51.973 37.347,51.973 L40.978,51.973 C41.596,51.973 42.098,52.478 42.098,53.100 C42.098,53.721 41.596,54.228 40.978,54.228 ZM40.978,49.939 L37.347,49.939 C36.729,49.939 36.227,49.434 36.227,48.812 C36.227,48.191 36.729,47.684 37.347,47.684 L40.978,47.684 C41.596,47.684 42.098,48.191 42.098,48.812 C42.098,49.434 41.596,49.939 40.978,49.939 ZM32.866,62.790 L29.235,62.790 C28.617,62.790 28.115,62.285 28.115,61.663 C28.115,61.042 28.617,60.536 29.235,60.536 L32.866,60.536 C33.484,60.536 33.986,61.042 33.986,61.663 C33.986,62.285 33.484,62.790 32.866,62.790 ZM32.866,58.504 L29.235,58.504 C28.617,58.504 28.115,57.997 28.115,57.375 C28.115,56.754 28.617,56.248 29.235,56.248 L32.866,56.248 C33.484,56.248 33.986,56.754 33.986,57.375 C33.986,57.997 33.484,58.504 32.866,58.504 ZM32.866,54.228 L29.235,54.228 C28.617,54.228 28.115,53.709 28.115,53.100 C28.115,52.478 28.617,51.973 29.235,51.973 L32.866,51.973 C33.484,51.973 33.986,52.478 33.986,53.100 C33.986,53.721 33.484,54.228 32.866,54.228 ZM32.866,49.939 L29.235,49.939 C28.617,49.939 28.115,49.434 28.115,48.812 C28.115,48.191 28.617,47.684 29.235,47.684 L32.866,47.684 C33.484,47.684 33.986,48.191 33.986,48.812 C33.986,49.434 33.484,49.939 32.866,49.939 ZM24.755,62.790 L21.124,62.790 C20.493,62.790 20.004,62.285 20.004,61.663 C20.004,61.042 20.506,60.536 21.124,60.536 L24.755,60.536 C25.373,60.536 25.875,61.042 25.875,61.663 C25.875,62.285 25.373,62.790 24.755,62.790 ZM24.755,58.504 L21.124,58.504 C20.493,58.504 19.991,57.997 20.004,57.375 C20.004,56.754 20.506,56.248 21.124,56.248 L24.755,56.248 C25.373,56.248 25.875,56.754 25.875,57.375 C25.875,57.997 25.373,58.504 24.755,58.504 ZM24.755,54.228 L21.124,54.228 C20.493,54.228 19.991,53.709 20.004,53.100 C20.004,52.478 20.506,51.973 21.124,51.973 L24.755,51.973 C25.373,51.973 25.875,52.478 25.875,53.100 C25.875,53.721 25.373,54.228 24.755,54.228 ZM24.755,49.939 L21.124,49.939 C20.493,49.939 20.004,49.434 20.004,48.812 C20.004,48.191 20.506,47.684 21.124,47.684 L24.755,47.684 C25.373,47.684 25.875,48.191 25.875,48.812 C25.875,49.434 25.373,49.939 24.755,49.939 ZM16.643,62.790 L13.012,62.790 C12.394,62.790 11.892,62.285 11.892,61.663 C11.892,61.042 12.394,60.536 13.012,60.536 L16.643,60.536 C17.261,60.536 17.763,61.042 17.763,61.663 C17.763,62.285 17.261,62.790 16.643,62.790 ZM16.643,58.504 L13.012,58.504 C12.394,58.504 11.892,57.997 11.892,57.375 C11.892,56.754 12.394,56.248 13.012,56.248 L16.643,56.248 C17.261,56.248 17.763,56.754 17.763,57.375 C17.763,57.997 17.261,58.504 16.643,58.504 ZM16.643,54.228 L13.012,54.228 C12.381,54.228 11.879,53.709 11.892,53.100 C11.892,52.478 12.394,51.973 13.012,51.973 L16.643,51.973 C17.261,51.973 17.763,52.478 17.763,53.100 C17.763,53.721 17.261,54.228 16.643,54.228 ZM16.643,49.939 L13.012,49.939 C12.381,49.939 11.892,49.434 11.892,48.812 C11.892,48.191 12.394,47.684 13.012,47.684 L16.643,47.684 C17.261,47.684 17.763,48.191 17.763,48.812 C17.763,49.434 17.261,49.939 16.643,49.939 ZM22.128,7.033 L31.875,7.033 C32.493,7.033 32.995,7.537 32.995,8.160 C32.995,8.781 32.493,9.287 31.875,9.287 L22.128,9.287 C21.510,9.287 21.008,8.781 21.008,8.160 C21.008,7.537 21.510,7.033 22.128,7.033 Z"/>
</svg>