<svg 
 xmlns="http://www.w3.org/2000/svg"
 xmlns:xlink="http://www.w3.org/1999/xlink"
 width="76px" height="70px">
<path fill-rule="evenodd"  fill="rgb(255, 255, 255)"
 d="M69.408,38.518 L38.005,69.994 L8.764,40.684 L12.215,40.684 L38.005,66.534 L67.683,36.788 C71.468,32.994 73.553,27.942 73.553,22.563 C73.553,17.183 71.468,12.130 67.683,8.338 C63.891,4.538 58.851,2.445 53.490,2.445 C48.722,2.445 44.061,4.224 40.365,7.455 L38.005,9.666 L35.666,7.473 C31.953,4.226 27.291,2.447 22.521,2.447 C17.159,2.447 12.119,4.539 8.328,8.338 C3.312,13.366 1.385,20.673 3.187,27.609 L0.671,27.609 C-1.095,19.938 1.102,12.124 6.603,6.608 C10.855,2.346 16.508,-0.001 22.521,-0.001 C28.007,-0.001 33.336,2.082 37.526,5.866 L38.005,6.298 L38.484,5.866 C42.674,2.082 48.003,-0.001 53.490,-0.001 C59.503,-0.001 65.156,2.346 69.408,6.608 C78.184,15.406 78.184,29.721 69.408,38.518 ZM1.230,32.920 L15.886,32.920 L23.325,14.288 C23.509,13.822 23.961,13.522 24.476,13.522 L24.564,13.526 C25.091,13.568 25.531,13.951 25.649,14.478 L31.735,41.933 L33.122,41.974 L38.770,22.165 C38.916,21.646 39.376,21.293 39.916,21.279 L40.000,21.272 C40.033,21.268 40.066,21.266 40.099,21.266 C40.509,21.266 40.938,21.630 41.099,22.115 L44.691,32.920 L59.297,32.920 C59.969,32.920 60.516,33.469 60.516,34.143 C60.516,34.818 59.969,35.365 59.297,35.365 L43.812,35.365 C43.286,35.365 42.820,35.029 42.653,34.529 L40.032,26.639 L33.370,50.002 C33.222,50.522 32.740,50.887 32.199,50.887 L32.142,50.887 C31.604,50.870 31.128,50.476 31.007,49.929 L24.124,18.871 L17.846,34.598 C17.664,35.057 17.211,35.365 16.718,35.365 L1.230,35.365 C0.557,35.365 0.010,34.818 0.010,34.143 C0.010,33.469 0.557,32.920 1.230,32.920 Z"/>
</svg>