<svg 
 xmlns="http://www.w3.org/2000/svg"
 xmlns:xlink="http://www.w3.org/1999/xlink"
 width="60px" height="44px">
<path fill-rule="evenodd"  fill="rgb(255, 91, 79)"
 d="M59.998,22.993 L59.998,43.253 C59.998,43.664 59.670,43.999 59.267,43.999 C58.864,43.999 58.536,43.664 58.536,43.253 L58.536,31.542 L1.461,31.542 L1.461,43.253 C1.461,43.664 1.133,43.999 0.730,43.999 C0.327,43.999 -0.001,43.664 -0.001,43.253 L-0.001,0.744 C-0.001,0.333 0.327,-0.001 0.730,-0.001 C1.133,-0.001 1.461,0.333 1.461,0.744 L1.461,22.227 L16.425,22.227 L16.463,21.923 C16.978,17.748 20.478,14.599 24.604,14.599 L51.787,14.599 C56.308,14.599 59.988,18.344 60.000,22.950 L59.998,22.993 ZM1.461,23.716 L1.461,30.051 L29.266,30.051 L29.266,23.716 L1.461,23.716 ZM24.605,16.089 C21.303,16.089 18.506,18.500 17.955,21.821 L17.888,22.226 L29.266,22.226 L29.267,16.089 L24.605,16.089 ZM51.787,16.090 L30.728,16.090 L30.728,30.051 L58.536,30.051 L58.538,22.956 C58.530,19.169 55.501,16.090 51.787,16.090 ZM9.783,20.561 C6.863,20.561 4.488,18.138 4.487,15.160 C4.487,12.183 6.863,9.762 9.783,9.762 C12.704,9.762 15.081,12.183 15.081,15.160 C15.081,18.138 12.704,20.561 9.783,20.561 ZM9.783,11.253 C7.670,11.253 5.950,13.006 5.949,15.161 C5.949,17.318 7.669,19.072 9.783,19.072 C11.898,19.072 13.619,17.318 13.619,15.161 C13.619,13.006 11.898,11.253 9.783,11.253 Z"/>
</svg>