<svg 
 xmlns="http://www.w3.org/2000/svg"
 xmlns:xlink="http://www.w3.org/1999/xlink"
 width="18px" height="18px">
<path fill-rule="evenodd"  fill="rgb(255, 255, 255)"
 d="M13.024,17.335 L4.688,17.335 C2.348,17.335 0.444,15.449 0.444,13.130 L0.444,4.873 C0.444,2.555 2.348,0.669 4.688,0.669 L13.024,0.669 C15.364,0.669 17.268,2.555 17.268,4.873 L17.268,13.130 C17.268,15.449 15.364,17.335 13.024,17.335 ZM15.437,4.873 C15.437,3.555 14.355,2.483 13.024,2.483 L4.688,2.483 C3.357,2.483 2.275,3.555 2.275,4.873 L2.275,13.130 C2.275,14.449 3.357,15.521 4.688,15.521 L13.024,15.521 C14.354,15.521 15.437,14.449 15.437,13.130 L15.437,4.873 ZM13.328,5.597 C12.763,5.597 12.303,5.142 12.303,4.582 C12.303,4.022 12.763,3.567 13.328,3.567 C13.893,3.567 14.353,4.022 14.353,4.582 C14.353,5.142 13.893,5.597 13.328,5.597 ZM8.856,13.294 C6.467,13.294 4.523,11.369 4.523,9.002 C4.523,6.635 6.467,4.710 8.856,4.710 C11.245,4.710 13.189,6.635 13.189,9.002 C13.189,11.369 11.245,13.294 8.856,13.294 ZM8.856,6.523 C7.477,6.523 6.354,7.635 6.354,9.002 C6.354,10.368 7.477,11.481 8.856,11.481 C10.236,11.481 11.358,10.368 11.358,9.002 C11.358,7.636 10.235,6.523 8.856,6.523 Z"/>
</svg>