<svg 
 xmlns="http://www.w3.org/2000/svg"
 xmlns:xlink="http://www.w3.org/1999/xlink"
 width="15px" height="14px">
<path fill-rule="evenodd"  fill="rgb(87, 113, 136)"
 d="M7.500,13.999 C7.359,13.999 7.224,13.941 7.128,13.837 L1.133,7.383 C1.131,7.381 1.130,7.380 1.128,7.378 C0.401,6.573 -0.000,5.506 -0.000,4.374 C-0.000,3.242 0.401,2.175 1.128,1.370 L1.219,1.270 C1.960,0.451 2.949,-0.000 4.004,-0.000 C5.059,-0.000 6.049,0.451 6.789,1.270 L7.500,2.056 L8.211,1.270 C8.951,0.451 9.940,-0.000 10.995,-0.000 C12.051,-0.000 13.040,0.451 13.780,1.270 L13.871,1.370 C14.599,2.175 15.000,3.242 15.000,4.374 C15.000,5.506 14.599,6.573 13.872,7.378 C13.870,7.380 13.868,7.381 13.867,7.383 L7.872,13.837 C7.776,13.941 7.641,13.999 7.500,13.999 L7.500,13.999 ZM1.879,6.696 L7.500,12.747 L13.121,6.696 C14.277,5.414 14.276,3.331 13.118,2.050 L13.027,1.950 C12.481,1.346 11.760,1.013 10.995,1.013 C10.231,1.013 9.510,1.346 8.964,1.950 L7.876,3.152 C7.780,3.258 7.644,3.319 7.500,3.319 C7.357,3.319 7.220,3.258 7.123,3.152 L6.036,1.950 C5.490,1.346 4.769,1.013 4.005,1.013 C3.240,1.013 2.519,1.346 1.973,1.950 L1.881,2.050 C0.724,3.331 0.723,5.414 1.879,6.696 L1.879,6.696 Z"/>
</svg>