<svg 
 xmlns="http://www.w3.org/2000/svg"
 xmlns:xlink="http://www.w3.org/1999/xlink"
 width="16px" height="16px">
<path fill-rule="evenodd"  fill="rgb(255, 255, 255)"
 d="M15.521,9.696 L15.521,15.500 L12.276,15.500 L12.276,10.085 C12.276,8.725 11.807,7.797 10.632,7.797 C9.736,7.797 9.203,8.422 8.968,9.028 C8.882,9.243 8.860,9.544 8.860,9.847 L8.860,15.499 L5.614,15.499 C5.614,15.499 5.658,6.329 5.614,5.380 L8.860,5.380 L8.860,6.814 C8.854,6.825 8.844,6.836 8.839,6.847 L8.860,6.847 L8.860,6.814 C9.292,6.126 10.061,5.142 11.785,5.142 C13.921,5.142 15.521,6.588 15.521,9.696 L15.521,9.696 ZM2.219,0.501 C1.109,0.501 0.382,1.257 0.382,2.250 C0.382,3.221 1.088,3.999 2.176,3.999 L2.197,3.999 C3.329,3.999 4.033,3.221 4.033,2.250 C4.012,1.257 3.329,0.501 2.219,0.501 L2.219,0.501 ZM0.575,15.500 L3.820,15.500 L3.820,5.380 L0.575,5.380 L0.575,15.500 Z"/>
</svg>