<svg 
 xmlns="http://www.w3.org/2000/svg"
 xmlns:xlink="http://www.w3.org/1999/xlink"
 width="15px" height="20px">
<path fill-rule="evenodd"  fill="rgb(255, 255, 255)"
 d="M13.464,10.632 L8.093,19.714 C7.989,19.890 7.803,19.998 7.601,19.999 C7.600,19.999 7.598,19.999 7.597,19.999 C7.397,19.999 7.211,19.895 7.105,19.723 L1.594,10.728 C0.916,9.618 0.557,8.340 0.557,7.029 C0.557,3.152 3.672,-0.003 7.500,-0.003 C11.328,-0.003 14.443,3.152 14.443,7.029 C14.443,8.301 14.104,9.547 13.464,10.632 ZM7.500,1.162 C4.310,1.162 1.707,3.798 1.707,7.029 C1.707,8.121 2.013,9.186 2.577,10.110 L7.588,18.288 L12.471,10.030 C13.004,9.127 13.290,8.089 13.290,7.029 C13.290,3.798 10.690,1.162 7.500,1.162 ZM7.500,10.233 C5.733,10.233 4.337,8.785 4.337,7.029 C4.337,5.263 5.756,3.826 7.500,3.826 C9.244,3.826 10.663,5.263 10.663,7.029 C10.663,8.766 9.289,10.233 7.500,10.233 ZM7.500,4.887 C6.338,4.887 5.385,5.852 5.385,7.029 C5.385,8.210 6.331,9.172 7.500,9.172 C8.687,9.172 9.612,8.193 9.612,7.029 C9.612,5.852 8.663,4.887 7.500,4.887 Z"/>
</svg>