<svg 
 xmlns="http://www.w3.org/2000/svg"
 xmlns:xlink="http://www.w3.org/1999/xlink"
 width="16px" height="12px">
<path fill-rule="evenodd"  fill="rgb(134, 160, 185)"
 d="M15.570,11.600 C15.290,11.867 14.954,12.000 14.561,12.000 L1.418,12.000 C1.025,12.000 0.688,11.867 0.408,11.600 C0.128,11.332 -0.011,11.012 -0.011,10.636 L-0.011,3.869 C0.250,4.148 0.551,4.395 0.890,4.611 C3.045,6.008 4.524,6.989 5.328,7.551 C5.667,7.790 5.943,7.976 6.154,8.109 C6.365,8.243 6.647,8.380 6.998,8.518 C7.349,8.658 7.676,8.727 7.980,8.727 L7.998,8.727 C8.302,8.727 8.629,8.658 8.981,8.518 C9.332,8.380 9.613,8.243 9.824,8.109 C10.035,7.976 10.311,7.790 10.650,7.551 C11.662,6.852 13.144,5.872 15.097,4.611 C15.436,4.389 15.733,4.142 15.990,3.869 L15.990,10.636 C15.990,11.012 15.850,11.332 15.570,11.600 ZM14.463,3.699 C12.224,5.182 10.831,6.105 10.284,6.469 C10.225,6.508 10.098,6.595 9.904,6.729 C9.711,6.862 9.550,6.970 9.422,7.052 C9.294,7.135 9.139,7.227 8.958,7.330 C8.777,7.431 8.605,7.509 8.445,7.560 C8.284,7.611 8.135,7.636 7.998,7.636 L7.980,7.636 C7.843,7.636 7.695,7.611 7.533,7.560 C7.373,7.509 7.202,7.432 7.020,7.330 C6.838,7.227 6.684,7.135 6.556,7.052 C6.428,6.970 6.267,6.862 6.074,6.729 C5.881,6.595 5.754,6.508 5.694,6.469 C5.153,6.105 4.373,5.587 3.355,4.913 C2.337,4.240 1.727,3.836 1.525,3.699 C1.155,3.461 0.807,3.132 0.480,2.715 C0.152,2.297 -0.011,1.909 -0.011,1.551 C-0.011,1.108 0.112,0.738 0.359,0.443 C0.606,0.148 0.959,-0.000 1.418,-0.000 L14.561,-0.000 C14.948,-0.000 15.283,0.133 15.565,0.400 C15.848,0.667 15.990,0.989 15.990,1.364 C15.990,1.813 15.843,2.241 15.552,2.650 C15.260,3.060 14.898,3.409 14.463,3.699 Z"/>
</svg>