<svg xmlns="http://www.w3.org/2000/svg" xmlns:xlink="http://www.w3.org/1999/xlink" width="37px" height="26px">
<path fill-rule="evenodd"  fill="rgb(41, 182, 246)"
 d="M33.382,25.837 L3.616,25.837 C1.899,25.837 0.503,24.443 0.503,22.731 L0.503,3.269 C0.503,1.556 1.899,0.163 3.616,0.163 L33.382,0.163 C35.098,0.163 36.495,1.556 36.495,3.269 L36.495,22.731 C36.495,24.443 35.098,25.837 33.382,25.837 ZM2.153,22.731 C2.153,23.535 2.809,24.190 3.616,24.190 L33.382,24.190 C34.188,24.190 34.844,23.535 34.844,22.731 L34.844,3.269 C34.844,3.206 34.816,3.152 34.808,3.092 L20.768,15.300 C20.163,15.829 19.358,16.121 18.501,16.121 C17.642,16.121 16.837,15.831 16.235,15.305 L2.188,3.096 C2.181,3.155 2.153,3.208 2.153,3.269 L2.153,22.731 ZM3.616,1.810 C3.503,1.810 3.403,1.850 3.298,1.874 L17.315,14.062 C17.619,14.326 18.050,14.477 18.499,14.477 C18.948,14.477 19.379,14.326 19.683,14.062 L33.698,1.874 C33.593,1.850 33.494,1.810 33.382,1.810 L3.616,1.810 Z"/>
</svg>