<svg 
 xmlns="http://www.w3.org/2000/svg"
 xmlns:xlink="http://www.w3.org/1999/xlink"
 width="70px" height="54px">
<path fill-rule="evenodd"  fill="rgb(250, 250, 250)"
 d="M68.971,53.999 C68.405,53.999 67.946,53.536 67.946,52.965 L67.946,45.330 C67.946,44.461 67.467,43.679 66.695,43.291 L63.270,41.564 L62.079,42.705 C61.246,43.503 60.177,43.902 59.108,43.902 C58.039,43.902 56.970,43.503 56.137,42.705 L54.946,41.564 L53.359,42.363 C54.177,43.332 54.654,44.578 54.654,45.900 L54.654,52.965 C54.654,53.536 54.195,53.999 53.628,53.999 C53.062,53.999 52.603,53.536 52.603,52.965 L52.603,45.900 C52.603,44.560 51.817,43.344 50.602,42.803 L44.741,40.194 C42.905,43.907 39.164,46.264 34.998,46.264 C30.847,46.264 27.094,43.902 25.256,40.193 L19.394,42.803 C18.178,43.344 17.393,44.560 17.393,45.900 L17.393,52.965 C17.393,53.536 16.933,53.999 16.367,53.999 C15.801,53.999 15.342,53.536 15.342,52.965 L15.342,45.900 C15.342,44.115 16.210,42.468 17.619,41.458 L16.579,41.158 C16.324,41.085 15.975,40.984 15.626,40.811 L13.009,43.449 L13.009,52.965 C13.009,53.536 12.550,53.999 11.984,53.999 C11.417,53.999 10.958,53.536 10.958,52.965 L10.958,43.449 L8.360,40.829 C8.222,40.900 8.076,40.959 7.924,41.004 L3.691,42.223 C2.725,42.501 2.050,43.404 2.050,44.416 L2.050,52.965 C2.050,53.536 1.591,53.999 1.024,53.999 C0.458,53.999 -0.001,53.536 -0.001,52.965 L-0.001,44.416 C-0.001,42.486 1.285,40.766 3.127,40.235 L7.360,39.016 C7.543,38.963 7.670,38.793 7.670,38.601 L7.670,37.109 C5.690,35.664 4.383,33.264 4.383,30.589 L4.383,28.901 L3.858,27.843 C3.484,27.089 3.287,26.246 3.287,25.404 L3.287,25.342 C3.287,21.726 6.205,18.783 9.792,18.783 L19.458,18.783 C19.549,17.687 19.639,16.536 19.728,15.321 C20.063,10.746 21.695,6.882 24.448,4.148 C27.179,1.434 30.828,-0.001 34.998,-0.001 C39.168,-0.001 42.816,1.434 45.548,4.148 C48.300,6.882 49.933,10.746 50.267,15.321 C50.521,18.789 50.786,21.766 51.040,24.284 C51.637,22.791 52.628,21.500 53.886,20.546 C53.762,20.131 53.699,19.703 53.699,19.265 C53.699,16.562 56.126,14.364 59.108,14.364 C62.090,14.364 64.517,16.562 64.517,19.265 C64.517,19.702 64.453,20.130 64.330,20.545 C66.438,22.146 67.805,24.691 67.805,27.552 C67.805,29.086 67.401,30.595 66.634,31.931 C66.332,34.126 65.126,35.997 63.421,37.181 L63.421,39.285 C63.421,39.312 63.436,39.336 63.460,39.348 L67.612,41.441 C69.083,42.182 69.996,43.673 69.997,45.330 L69.997,52.965 C69.997,53.536 69.537,53.999 68.971,53.999 ZM57.549,41.206 C58.423,42.044 59.792,42.044 60.666,41.206 L61.619,40.294 C61.458,39.990 61.370,39.645 61.370,39.284 L61.370,38.184 C60.654,38.408 59.894,38.530 59.108,38.530 C58.321,38.530 57.562,38.408 56.845,38.184 L56.845,39.284 C56.845,39.645 56.757,39.990 56.596,40.294 L57.549,41.206 ZM34.998,44.197 C38.346,44.197 41.356,42.320 42.862,39.357 L41.369,38.692 C40.205,38.173 39.452,37.009 39.452,35.725 L39.452,33.244 C38.074,33.803 36.571,34.110 34.998,34.110 C33.424,34.110 31.921,33.803 30.543,33.244 L30.543,35.725 C30.543,37.009 29.791,38.173 28.626,38.692 L27.134,39.357 C28.640,42.317 31.662,44.197 34.998,44.197 ZM11.984,41.559 L14.309,39.214 C14.269,39.029 14.246,38.825 14.246,38.601 L14.246,38.186 C13.523,38.411 12.764,38.530 11.987,38.530 C11.908,38.530 11.829,38.529 11.751,38.526 C11.047,38.505 10.366,38.379 9.721,38.165 L9.721,38.601 C9.721,38.807 9.695,39.009 9.647,39.203 L11.984,41.559 ZM18.630,20.851 L9.792,20.851 C7.336,20.851 5.337,22.865 5.337,25.342 L5.337,25.404 C5.337,25.927 5.460,26.450 5.692,26.918 L6.325,28.194 C6.396,28.338 6.433,28.496 6.433,28.657 L6.433,30.589 C6.433,33.736 8.846,36.370 11.812,36.460 C13.328,36.506 14.762,35.946 15.848,34.882 C16.935,33.819 17.534,32.393 17.534,30.866 L17.534,28.656 C17.534,28.496 17.571,28.338 17.642,28.194 L18.159,27.151 C18.467,26.531 18.630,25.836 18.630,25.142 L18.630,20.851 ZM18.600,36.575 C18.274,36.362 18.021,36.068 17.856,35.731 C17.676,35.952 17.483,36.164 17.277,36.366 C16.970,36.668 16.641,36.936 16.297,37.177 L16.296,38.601 C16.296,38.831 16.296,38.926 17.143,39.170 L20.382,40.103 L23.254,38.824 C20.973,38.003 19.422,37.112 18.600,36.575 ZM48.222,15.474 C47.924,11.405 46.502,7.998 44.108,5.620 C41.768,3.296 38.618,2.067 34.998,2.067 C31.377,2.067 28.227,3.296 25.887,5.620 C23.494,7.998 22.071,11.405 21.774,15.474 C20.966,26.500 20.047,32.649 19.689,34.780 C19.684,34.812 19.695,34.827 19.714,34.839 C20.688,35.475 22.804,36.663 26.107,37.554 L27.798,36.800 C28.220,36.612 28.493,36.191 28.493,35.725 L28.493,32.170 C25.198,30.016 23.013,26.274 23.013,22.027 L23.013,21.162 C23.013,20.034 23.631,18.974 24.625,18.397 C25.599,17.832 26.879,16.795 27.450,15.070 C27.629,14.529 28.210,14.236 28.747,14.417 C29.284,14.597 29.574,15.183 29.395,15.724 C28.621,18.066 26.930,19.445 25.648,20.189 C25.283,20.401 25.064,20.765 25.064,21.162 L25.064,22.027 C25.064,27.550 29.520,32.043 34.998,32.043 C40.475,32.043 44.932,27.550 44.932,22.027 L44.932,20.088 C44.932,19.427 44.657,18.807 44.179,18.388 C42.303,16.743 38.032,13.869 30.512,13.111 C29.949,13.054 29.538,12.548 29.594,11.979 C29.650,11.411 30.154,10.997 30.716,11.054 C38.801,11.869 43.465,15.022 45.525,16.828 C46.451,17.640 46.982,18.829 46.982,20.088 L46.982,22.027 C46.982,26.274 44.798,30.016 41.503,32.170 L41.503,35.725 C41.503,36.191 41.776,36.612 42.198,36.800 L43.889,37.554 C47.190,36.663 49.306,35.476 50.281,34.839 C50.301,34.827 50.312,34.812 50.306,34.780 C49.948,32.648 49.029,26.499 48.222,15.474 ZM51.396,36.575 C50.573,37.113 49.022,38.004 46.742,38.824 L51.430,40.912 C51.469,40.929 51.505,40.949 51.543,40.968 L54.756,39.348 C54.780,39.336 54.795,39.312 54.795,39.284 L54.795,37.181 C53.743,36.450 52.881,35.458 52.304,34.289 C52.312,34.339 52.320,34.389 52.328,34.435 C52.469,35.273 52.103,36.114 51.396,36.575 ZM59.108,16.431 C57.256,16.431 55.750,17.702 55.750,19.265 C55.750,19.330 55.755,19.395 55.761,19.460 C56.791,19.025 57.922,18.783 59.108,18.783 C60.294,18.783 61.425,19.025 62.456,19.460 C62.461,19.395 62.466,19.330 62.466,19.265 C62.466,17.702 60.959,16.431 59.108,16.431 ZM64.573,31.830 C62.966,29.540 59.385,28.235 57.659,27.718 C57.461,28.216 57.122,28.806 56.545,29.387 C56.145,29.791 55.496,29.791 55.095,29.387 C54.695,28.984 54.695,28.329 55.095,27.926 C55.844,27.170 55.891,26.454 55.891,26.447 C55.891,26.134 56.032,25.837 56.274,25.641 C56.516,25.445 56.833,25.369 57.137,25.437 C57.384,25.492 62.505,26.661 65.417,29.643 C65.639,28.969 65.754,28.264 65.754,27.552 C65.754,23.857 62.772,20.851 59.108,20.851 C55.443,20.851 52.462,23.857 52.462,27.552 C52.462,28.780 52.802,29.989 53.447,31.047 C53.526,31.178 53.576,31.324 53.592,31.477 C53.898,34.319 56.269,36.462 59.108,36.462 C61.827,36.462 64.117,34.495 64.573,31.830 ZM15.270,27.480 C15.116,27.480 14.960,27.446 14.813,27.372 C13.196,26.557 9.849,26.376 8.695,26.376 C8.129,26.375 7.670,25.912 7.670,25.342 C7.671,24.771 8.130,24.308 8.696,24.308 C8.885,24.308 13.349,24.322 15.730,25.523 C16.236,25.778 16.442,26.399 16.188,26.909 C16.009,27.271 15.646,27.480 15.270,27.480 ZM5.408,45.302 C5.974,45.302 6.433,45.765 6.433,46.335 L6.433,52.965 C6.433,53.536 5.974,53.999 5.408,53.999 C4.842,53.999 4.383,53.536 4.383,52.965 L4.383,46.335 C4.383,45.765 4.842,45.302 5.408,45.302 ZM24.039,47.512 C24.605,47.512 25.064,47.975 25.064,48.546 L25.064,52.965 C25.064,53.536 24.605,53.999 24.039,53.999 C23.472,53.999 23.013,53.536 23.013,52.965 L23.013,48.546 C23.013,47.975 23.472,47.512 24.039,47.512 ZM45.957,47.512 C46.523,47.512 46.982,47.975 46.982,48.546 L46.982,52.965 C46.982,53.536 46.523,53.999 45.957,53.999 C45.391,53.999 44.932,53.536 44.932,52.965 L44.932,48.546 C44.932,47.975 45.391,47.512 45.957,47.512 ZM64.588,46.668 C65.154,46.668 65.613,47.131 65.613,47.702 L65.613,52.965 C65.613,53.536 65.154,53.999 64.588,53.999 C64.021,53.999 63.562,53.536 63.562,52.965 L63.562,47.702 C63.562,47.131 64.021,46.668 64.588,46.668 Z"/>
</svg>