<svg 
 xmlns="http://www.w3.org/2000/svg"
 xmlns:xlink="http://www.w3.org/1999/xlink"
 width="76px" height="70px">
<path fill-rule="evenodd"  fill="rgb(41, 182, 246)"
 d="M23.024,69.999 C10.324,69.999 -0.008,59.585 -0.008,46.784 C-0.008,35.457 7.998,25.837 19.028,23.910 L19.657,23.802 L19.228,23.325 C14.244,17.790 14.428,9.331 19.648,4.070 C22.253,1.445 25.719,-0.001 29.409,-0.001 C33.099,-0.001 36.565,1.445 39.170,4.070 L71.958,37.118 C74.562,39.744 75.997,43.238 75.997,46.957 C75.997,50.676 74.562,54.171 71.958,56.797 C69.353,59.421 65.887,60.867 62.197,60.867 C58.508,60.867 55.041,59.421 52.436,56.797 L45.835,50.144 L45.716,50.808 C43.719,61.928 34.175,69.999 23.024,69.999 ZM24.140,67.602 L24.517,67.574 C35.247,66.770 43.652,57.638 43.652,46.784 C43.652,36.019 35.248,26.887 24.520,25.993 L24.140,25.961 L24.140,67.602 ZM21.359,25.993 C10.629,26.790 2.224,35.923 2.224,46.784 C2.224,57.644 10.629,66.777 21.359,67.574 L21.736,67.602 L21.736,25.965 L21.359,25.993 ZM42.953,35.067 L43.080,35.300 C45.055,38.919 46.056,42.784 46.056,46.784 L46.056,47.104 L54.097,55.209 C56.189,57.405 59.067,58.617 62.197,58.617 C65.196,58.617 68.148,57.375 70.296,55.209 C72.445,53.044 73.676,50.086 73.765,46.880 C73.765,43.848 72.532,40.872 70.383,38.706 L54.863,23.063 L42.953,35.067 ZM29.323,2.336 C26.325,2.336 23.372,3.578 21.223,5.744 C16.777,10.316 16.777,17.679 21.223,22.160 L22.620,23.568 L22.938,23.568 C30.116,23.568 36.809,26.941 41.297,32.823 L41.544,33.146 L52.940,21.385 L37.423,5.744 C35.331,3.549 32.453,2.336 29.323,2.336 Z"/>
</svg>