<svg xmlns="http://www.w3.org/2000/svg" xmlns:xlink="http://www.w3.org/1999/xlink" width="36px" height="36px">
<path fill-rule="evenodd"  fill="rgb(255, 255, 255)"
 d="M34.906,33.240 L34.906,33.241 L34.028,34.095 C33.372,34.600 32.612,35.028 31.832,35.333 C30.923,35.685 30.154,35.894 29.479,35.974 C29.452,35.977 29.253,35.998 28.891,35.998 C26.777,35.998 19.161,35.282 9.941,26.060 C2.216,18.329 -0.634,12.658 0.107,6.488 L0.109,6.473 C0.191,5.731 0.378,4.980 0.682,4.177 C0.994,3.381 1.420,2.622 1.918,1.972 L1.993,1.886 L2.773,1.093 C3.467,0.388 4.394,-0.001 5.383,-0.001 C6.361,-0.001 7.281,0.380 7.973,1.072 L11.109,4.209 C11.800,4.902 12.181,5.821 12.181,6.800 C12.181,7.779 11.800,8.699 11.108,9.391 L10.917,9.583 L8.903,11.476 C8.766,11.605 8.734,11.809 8.825,11.972 C8.868,12.051 8.899,12.117 8.931,12.184 C8.968,12.262 9.013,12.356 9.078,12.471 C10.024,14.177 12.551,17.905 15.326,20.683 C18.103,23.460 21.746,25.931 23.518,26.914 C23.643,26.984 23.763,27.047 23.881,27.109 L24.108,27.230 C24.266,27.316 24.465,27.287 24.592,27.160 L26.732,25.020 C27.424,24.328 28.343,23.947 29.322,23.947 C30.300,23.947 31.219,24.328 31.911,25.020 L34.928,28.038 C35.623,28.733 36.004,29.658 36.000,30.643 C35.996,31.628 35.607,32.550 34.906,33.240 ZM33.626,29.339 L30.610,26.322 C30.266,25.977 29.808,25.788 29.322,25.788 C28.835,25.788 28.377,25.977 28.033,26.322 L25.894,28.461 C25.193,29.162 24.097,29.321 23.226,28.845 L23.021,28.737 C22.893,28.669 22.757,28.598 22.621,28.521 C20.763,27.490 16.935,24.896 14.025,21.984 C11.116,19.073 8.463,15.157 7.473,13.372 C7.386,13.217 7.322,13.086 7.272,12.979 C7.251,12.937 7.235,12.902 7.213,12.861 C6.716,11.962 6.893,10.840 7.642,10.136 L9.806,8.090 C10.151,7.745 10.341,7.287 10.341,6.800 C10.341,6.313 10.151,5.855 9.807,5.511 L6.672,2.374 C6.327,2.030 5.870,1.840 5.383,1.840 C4.891,1.840 4.430,2.033 4.085,2.385 L3.345,3.135 C2.965,3.641 2.638,4.229 2.399,4.839 C2.155,5.485 2.003,6.088 1.938,6.673 C1.266,12.239 3.962,17.472 11.242,24.759 C19.962,33.479 26.955,34.157 28.891,34.157 C29.122,34.157 29.255,34.147 29.278,34.144 C29.783,34.085 30.405,33.912 31.165,33.617 C31.766,33.383 32.352,33.055 32.862,32.669 L33.616,31.928 C33.965,31.584 34.158,31.125 34.160,30.635 C34.162,30.146 33.972,29.686 33.626,29.339 ZM31.939,9.807 L28.678,9.807 C28.529,9.807 28.408,9.928 28.408,10.076 L28.408,13.384 C28.408,14.254 27.680,14.956 26.801,14.913 C25.978,14.873 25.347,14.163 25.347,13.339 L25.347,10.076 C25.347,9.928 25.226,9.807 25.077,9.807 L21.815,9.807 C20.992,9.807 20.282,9.175 20.242,8.353 C20.199,7.473 20.902,6.744 21.771,6.744 L25.077,6.744 C25.226,6.744 25.347,6.623 25.347,6.474 L25.347,3.167 C25.347,2.297 26.075,1.594 26.954,1.638 C27.777,1.678 28.408,2.388 28.408,3.212 L28.408,6.474 C28.408,6.623 28.529,6.744 28.678,6.744 L31.984,6.744 C32.853,6.744 33.556,7.473 33.513,8.352 C33.472,9.175 32.763,9.807 31.939,9.807 Z"/>
</svg>