<svg 
 xmlns="http://www.w3.org/2000/svg"
 xmlns:xlink="http://www.w3.org/1999/xlink"
 width="20px" height="20px">
<path fill-rule="evenodd"  fill="rgb(255, 255, 255)"
 d="M19.392,18.466 L19.392,18.467 L18.904,18.941 C18.540,19.221 18.118,19.459 17.684,19.629 C17.179,19.824 16.752,19.940 16.377,19.985 C16.362,19.986 16.252,19.998 16.051,19.998 C14.876,19.998 10.645,19.600 5.523,14.477 C1.231,10.182 -0.352,7.031 0.060,3.604 L0.061,3.595 C0.106,3.183 0.210,2.766 0.379,2.320 C0.552,1.878 0.789,1.456 1.065,1.095 L1.107,1.047 L1.541,0.606 C1.926,0.215 2.441,-0.002 2.991,-0.002 C3.534,-0.002 4.045,0.210 4.429,0.595 L6.171,2.338 C6.556,2.722 6.767,3.234 6.767,3.777 C6.767,4.320 6.556,4.832 6.171,5.216 L6.065,5.323 L4.946,6.375 C4.870,6.446 4.852,6.559 4.903,6.650 C4.926,6.694 4.944,6.731 4.962,6.767 C4.982,6.811 5.007,6.863 5.043,6.927 C5.569,7.875 6.973,9.946 8.515,11.490 C10.057,13.032 12.081,14.405 13.065,14.951 C13.135,14.990 13.202,15.025 13.267,15.060 L13.394,15.127 C13.481,15.175 13.591,15.159 13.662,15.088 L14.851,13.899 C15.235,13.515 15.746,13.303 16.290,13.303 C16.833,13.303 17.344,13.515 17.728,13.899 L19.404,15.575 C19.791,15.962 20.002,16.476 20.000,17.023 C19.998,17.570 19.782,18.082 19.392,18.466 ZM18.681,16.299 L17.005,14.622 C16.814,14.431 16.560,14.326 16.290,14.326 C16.019,14.326 15.765,14.431 15.574,14.622 L14.385,15.811 C13.996,16.200 13.387,16.289 12.904,16.024 L12.790,15.964 C12.718,15.926 12.643,15.887 12.567,15.844 C11.535,15.271 9.409,13.830 7.792,12.213 C6.176,10.595 4.702,8.419 4.152,7.428 C4.103,7.342 4.068,7.269 4.040,7.210 C4.028,7.186 4.020,7.167 4.007,7.144 C3.731,6.645 3.829,6.021 4.246,5.630 L5.448,4.494 C5.640,4.302 5.745,4.047 5.745,3.777 C5.745,3.506 5.640,3.252 5.448,3.061 L3.706,1.318 C3.515,1.127 3.261,1.022 2.991,1.022 C2.717,1.022 2.461,1.129 2.269,1.324 L1.858,1.741 C1.647,2.022 1.466,2.348 1.333,2.688 C1.197,3.047 1.113,3.382 1.077,3.706 C0.703,6.798 2.201,9.706 6.246,13.754 C11.090,18.599 14.975,18.975 16.050,18.975 C16.179,18.975 16.253,18.969 16.266,18.968 C16.546,18.935 16.892,18.838 17.314,18.676 C17.648,18.545 17.973,18.363 18.257,18.149 L18.675,17.737 C18.869,17.546 18.977,17.291 18.978,17.018 C18.979,16.747 18.874,16.491 18.681,16.299 ZM17.744,5.448 L15.932,5.448 C15.849,5.448 15.782,5.515 15.782,5.597 L15.782,7.435 C15.782,7.918 15.378,8.308 14.889,8.285 C14.432,8.262 14.081,7.867 14.081,7.410 L14.081,5.597 C14.081,5.515 14.014,5.448 13.932,5.448 L12.120,5.448 C11.662,5.448 11.268,5.096 11.246,4.640 C11.222,4.150 11.612,3.746 12.095,3.746 L13.932,3.746 C14.014,3.746 14.081,3.678 14.081,3.595 L14.081,1.758 C14.081,1.276 14.486,0.884 14.975,0.909 C15.432,0.931 15.782,1.325 15.782,1.784 L15.782,3.595 C15.782,3.678 15.849,3.746 15.932,3.746 L17.769,3.746 C18.252,3.746 18.642,4.150 18.618,4.639 C18.596,5.096 18.201,5.448 17.744,5.448 Z"/>
</svg>