<svg 
 xmlns="http://www.w3.org/2000/svg"
 xmlns:xlink="http://www.w3.org/1999/xlink"
 width="16px" height="16px">
<path fill-rule="evenodd"  fill="rgb(134, 160, 185)"
 d="M15.633,12.657 L13.164,10.180 C12.672,9.689 11.858,9.704 11.350,10.214 L10.105,11.462 C10.027,11.419 9.945,11.373 9.860,11.325 C9.074,10.888 7.999,10.291 6.867,9.155 C5.732,8.017 5.135,6.936 4.699,6.148 C4.652,6.065 4.608,5.985 4.566,5.907 L5.400,5.072 L5.811,4.659 C6.320,4.148 6.335,3.332 5.844,2.839 L3.374,0.362 C2.884,-0.130 2.070,-0.115 1.559,0.396 L0.864,1.098 L0.882,1.117 C0.649,1.416 0.454,1.760 0.310,2.131 C0.176,2.485 0.092,2.823 0.055,3.160 C-0.272,5.871 0.963,8.348 4.315,11.711 C8.948,16.357 12.683,16.007 12.844,15.989 C13.195,15.947 13.531,15.863 13.873,15.730 C14.240,15.587 14.584,15.392 14.880,15.158 L14.895,15.172 L15.601,14.479 C16.109,13.967 16.124,13.151 15.633,12.657 L15.633,12.657 Z"/>
</svg>