<svg 
 xmlns="http://www.w3.org/2000/svg"
 xmlns:xlink="http://www.w3.org/1999/xlink"
 width="38px" height="32px">
<path fill-rule="evenodd"  fill="rgb(208, 191, 255)"
 d="M37.071,24.878 C36.456,26.309 35.622,27.549 34.571,28.594 C33.521,29.639 32.277,30.469 30.838,31.082 C29.400,31.696 27.890,32.002 26.307,32.002 L24.845,32.002 C24.450,32.002 24.106,31.858 23.817,31.571 C23.529,31.284 23.384,30.941 23.384,30.548 L23.384,27.639 C23.384,27.245 23.529,26.905 23.817,26.616 C24.106,26.329 24.450,26.184 24.845,26.184 L26.307,26.184 C27.920,26.184 29.298,25.616 30.439,24.480 C31.580,23.344 32.152,21.973 32.152,20.366 L32.152,19.639 C32.152,19.033 31.939,18.518 31.512,18.094 C31.086,17.670 30.569,17.457 29.960,17.457 L24.845,17.457 C23.627,17.457 22.593,17.033 21.740,16.185 C20.888,15.336 20.462,14.307 20.462,13.095 L20.462,4.368 C20.462,3.156 20.888,2.125 21.740,1.276 C22.593,0.429 23.627,0.004 24.845,0.004 L33.612,0.004 C34.830,0.004 35.866,0.429 36.717,1.276 C37.571,2.125 37.996,3.154 37.996,4.367 L37.996,20.366 C37.996,21.942 37.688,23.446 37.071,24.878 ZM14.115,28.594 C13.064,29.639 11.820,30.469 10.382,31.082 C8.944,31.696 7.432,32.002 5.850,32.002 L4.389,32.002 C3.992,32.002 3.650,31.858 3.361,31.571 C3.071,31.284 2.927,30.941 2.927,30.548 L2.927,27.639 C2.927,27.245 3.071,26.905 3.361,26.616 C3.650,26.329 3.992,26.184 4.389,26.184 L5.850,26.184 C7.463,26.184 8.840,25.616 9.982,24.480 C11.123,23.344 11.694,21.973 11.694,20.366 L11.694,19.639 C11.694,19.033 11.481,18.518 11.055,18.094 C10.628,17.670 10.111,17.457 9.502,17.457 L4.389,17.457 C3.171,17.457 2.135,17.033 1.282,16.185 C0.430,15.336 0.004,14.307 0.004,13.095 L0.004,4.368 C0.004,3.156 0.431,2.125 1.282,1.276 C2.135,0.429 3.171,0.004 4.389,0.004 L13.155,0.004 C14.373,0.004 15.408,0.429 16.260,1.276 C17.113,2.125 17.540,3.154 17.540,4.367 L17.540,20.366 C17.540,21.942 17.230,23.446 16.615,24.878 C15.997,26.309 15.164,27.549 14.115,28.594 Z"/>
</svg>