<svg 
 xmlns="http://www.w3.org/2000/svg"
 xmlns:xlink="http://www.w3.org/1999/xlink"
 width="22px" height="22px">
<path fill-rule="evenodd"  fill="rgb(39, 210, 207)"
 d="M21.795,21.798 C21.666,21.927 21.494,21.999 21.312,21.999 C21.130,21.999 20.958,21.927 20.830,21.798 L15.332,16.300 C13.648,17.757 11.526,18.559 9.277,18.559 C6.798,18.559 4.468,17.594 2.715,15.842 C0.963,14.088 -0.002,11.758 -0.002,9.279 C-0.002,6.800 0.963,4.469 2.715,2.717 C4.468,0.964 6.798,-0.002 9.277,-0.002 C11.755,-0.002 14.085,0.964 15.838,2.717 C17.591,4.469 18.556,6.800 18.556,9.279 C18.556,11.529 17.754,13.650 16.297,15.335 L21.795,20.834 C22.060,21.100 22.060,21.532 21.795,21.798 ZM9.277,1.363 C4.913,1.363 1.362,4.915 1.362,9.279 C1.362,13.644 4.913,17.194 9.277,17.194 C11.456,17.194 13.433,16.308 14.866,14.878 C14.867,14.876 14.868,14.874 14.869,14.873 C14.871,14.871 14.873,14.871 14.874,14.869 C16.305,13.436 17.191,11.459 17.191,9.279 C17.191,4.915 13.641,1.363 9.277,1.363 Z"/>
</svg>