<svg 
 xmlns="http://www.w3.org/2000/svg"
 xmlns:xlink="http://www.w3.org/1999/xlink"
 width="22px" height="22px">
<path fill-rule="evenodd"  fill="rgb(41, 182, 246)"
 d="M21.795,21.799 C21.666,21.928 21.494,22.000 21.312,22.000 C21.130,22.000 20.958,21.928 20.830,21.799 L15.332,16.301 C13.648,17.758 11.526,18.560 9.277,18.560 C6.798,18.560 4.468,17.595 2.715,15.842 C0.963,14.089 -0.002,11.759 -0.002,9.280 C-0.002,6.801 0.963,4.470 2.715,2.718 C4.468,0.965 6.798,-0.001 9.277,-0.001 C11.755,-0.001 14.085,0.965 15.838,2.718 C17.591,4.470 18.556,6.801 18.556,9.280 C18.556,11.529 17.754,13.651 16.297,15.336 L21.795,20.835 C22.060,21.101 22.060,21.533 21.795,21.799 ZM9.277,1.364 C4.913,1.364 1.362,4.915 1.362,9.280 C1.362,13.644 4.913,17.195 9.277,17.195 C11.456,17.195 13.433,16.309 14.866,14.878 C14.867,14.877 14.868,14.875 14.869,14.873 C14.871,14.872 14.873,14.871 14.874,14.870 C16.305,13.437 17.191,11.460 17.191,9.280 C17.191,4.915 13.641,1.364 9.277,1.364 Z"/>
</svg>