<svg 
 xmlns="http://www.w3.org/2000/svg"
 xmlns:xlink="http://www.w3.org/1999/xlink"
 width="22px" height="22px">
<path fill-rule="evenodd"  fill="rgb(48, 207, 146)"
 d="M21.795,21.798 C21.666,21.926 21.494,21.998 21.312,21.998 C21.130,21.998 20.958,21.926 20.830,21.798 L15.332,16.300 C13.648,17.756 11.526,18.558 9.277,18.558 C6.798,18.558 4.468,17.593 2.715,15.841 C0.963,14.088 -0.002,11.757 -0.002,9.279 C-0.002,6.800 0.963,4.469 2.715,2.716 C4.468,0.963 6.798,-0.002 9.277,-0.002 C11.755,-0.002 14.085,0.963 15.838,2.716 C17.591,4.469 18.556,6.800 18.556,9.279 C18.556,11.528 17.754,13.650 16.297,15.335 L21.795,20.833 C22.060,21.099 22.060,21.531 21.795,21.798 ZM9.277,1.363 C4.913,1.363 1.362,4.914 1.362,9.279 C1.362,13.643 4.913,17.194 9.277,17.194 C11.456,17.194 13.432,16.308 14.865,14.878 C14.867,14.876 14.867,14.874 14.869,14.872 C14.871,14.870 14.874,14.869 14.875,14.868 C16.305,13.435 17.191,11.458 17.191,9.279 C17.191,4.914 13.641,1.363 9.277,1.363 Z"/>
</svg>