<svg 
 xmlns="http://www.w3.org/2000/svg"
 xmlns:xlink="http://www.w3.org/1999/xlink"
 width="100px" height="32px">
<path fill-rule="evenodd"  fill="rgb(255, 255, 255)"
 d="M50.525,31.924 C49.997,31.924 49.522,31.590 49.342,31.094 L49.327,31.053 L36.631,4.850 L29.648,19.677 C29.356,20.297 29.279,20.297 28.951,20.297 L1.694,20.297 C0.946,20.297 -0.004,19.754 -0.004,19.142 C-0.004,18.449 0.559,17.885 1.253,17.885 L27.711,17.885 L35.757,0.796 C35.977,0.330 36.376,0.074 36.883,0.074 L36.955,0.075 C37.465,0.100 37.905,0.424 38.078,0.903 L38.093,0.946 L50.486,26.318 L60.851,6.203 L60.870,6.149 C61.042,5.665 61.486,5.337 62.002,5.314 L62.032,5.314 C62.554,5.314 62.990,5.589 63.200,6.049 L68.107,16.838 L98.747,16.838 C99.440,16.838 100.004,17.401 100.004,18.095 C100.004,19.250 99.454,19.250 99.190,19.250 L67.740,19.250 C67.084,19.250 66.298,18.936 66.153,18.615 L62.339,10.230 L51.728,31.036 L51.710,31.088 C51.532,31.587 51.058,31.923 50.529,31.924 L50.525,31.924 Z"/>
</svg>