<svg 
 xmlns="http://www.w3.org/2000/svg"
 xmlns:xlink="http://www.w3.org/1999/xlink"
 width="19px" height="20px">
<path fill-rule="evenodd"  fill="rgb(141, 164, 194)"
 d="M18.710,18.215 L14.028,13.266 C15.232,11.811 15.892,9.980 15.892,8.074 C15.892,3.622 12.328,-0.001 7.946,-0.001 C3.567,-0.001 0.003,3.622 0.003,8.074 C0.003,12.527 3.567,16.150 7.946,16.150 C9.591,16.150 11.159,15.646 12.498,14.687 L17.217,19.676 C17.414,19.885 17.679,20.000 17.964,20.000 C18.233,20.000 18.487,19.895 18.681,19.705 C19.094,19.302 19.106,18.635 18.710,18.215 L18.710,18.215 ZM7.946,2.107 C11.185,2.107 13.819,4.784 13.819,8.074 C13.819,11.365 11.185,14.043 7.946,14.043 C4.710,14.043 2.076,11.365 2.076,8.074 C2.076,4.784 4.710,2.107 7.946,2.107 L7.946,2.107 Z"/>
</svg>