<svg 
 xmlns="http://www.w3.org/2000/svg"
 xmlns:xlink="http://www.w3.org/1999/xlink"
 width="36px" height="36px">
<path fill-rule="evenodd"  fill="rgb(255, 255, 255)"
 d="M34.563,24.990 C32.664,29.418 29.439,32.659 24.977,34.563 C22.749,35.514 20.411,35.998 17.971,35.998 C15.529,35.998 13.210,35.519 10.984,34.563 C6.559,32.663 3.319,29.425 1.416,24.990 C0.465,22.768 -0.000,20.422 -0.000,17.980 C-0.000,15.537 0.465,13.210 1.416,10.989 C3.319,6.554 6.559,3.336 10.984,1.436 C13.210,0.481 15.529,-0.002 17.971,-0.002 C20.411,-0.002 22.749,0.485 24.977,1.436 C29.441,3.340 32.666,6.561 34.563,10.989 C35.520,13.216 36.000,15.537 36.000,17.980 C36.000,20.422 35.518,22.762 34.563,24.990 ZM31.690,10.063 C30.271,7.640 28.340,5.714 25.902,4.293 C23.478,2.879 20.825,2.165 17.971,2.165 C15.117,2.165 12.478,2.875 10.059,4.293 C7.637,5.710 5.702,7.636 4.291,10.063 C2.887,12.480 2.185,15.124 2.185,17.980 C2.185,20.125 2.590,22.199 3.426,24.143 C4.262,26.098 5.384,27.796 6.791,29.205 C8.199,30.613 9.880,31.725 11.830,32.573 C13.778,33.420 15.826,33.834 17.971,33.834 C20.825,33.834 23.480,33.121 25.902,31.707 C28.342,30.285 30.278,28.361 31.690,25.936 C33.111,23.497 33.814,20.835 33.814,17.980 C33.814,15.124 33.107,12.485 31.690,10.063 ZM23.107,24.913 L17.223,19.025 C16.987,18.786 16.889,18.491 16.928,18.136 C16.928,18.079 16.889,17.999 16.889,17.980 L16.889,7.620 C16.889,7.009 17.399,6.516 17.971,6.516 C18.580,6.516 19.111,7.009 19.111,7.620 L19.111,17.822 L24.623,23.375 C25.047,23.802 25.076,24.458 24.623,24.913 C24.231,25.307 23.501,25.307 23.107,24.913 Z"/>
</svg>