<svg 
 xmlns="http://www.w3.org/2000/svg"
 xmlns:xlink="http://www.w3.org/1999/xlink"
 width="42px" height="50px">
<path fill-rule="evenodd"  fill="rgb(255, 255, 255)"
 d="M29.395,49.998 C23.922,49.998 19.276,46.411 17.540,41.427 L3.497,41.427 C1.570,41.427 -0.003,39.822 -0.003,37.856 L-0.003,3.570 C-0.003,1.603 1.570,-0.002 3.497,-0.002 L25.895,-0.002 C27.822,-0.002 29.395,1.603 29.395,3.570 L29.395,24.284 C36.345,24.284 41.994,30.049 41.994,37.141 C41.994,44.233 36.345,49.998 29.395,49.998 ZM27.995,3.570 C27.995,2.370 27.071,1.427 25.895,1.427 L3.497,1.427 C2.322,1.427 1.397,2.370 1.397,3.570 L1.397,37.856 C1.397,39.055 2.322,39.998 3.497,39.998 L17.124,39.998 C16.919,39.077 16.796,38.124 16.796,37.141 C16.796,30.531 21.702,25.086 27.995,24.373 L27.995,3.570 ZM29.395,25.712 C23.202,25.712 18.196,30.821 18.196,37.141 C18.196,43.462 23.202,48.570 29.395,48.570 C35.589,48.570 40.594,43.462 40.594,37.141 C40.594,30.821 35.589,25.712 29.395,25.712 ZM27.624,36.427 L31.167,36.427 C32.905,36.427 34.295,37.924 34.295,39.641 C34.295,41.365 32.860,42.856 31.079,42.856 L30.095,42.856 L30.095,44.999 C30.095,45.005 30.095,45.012 30.095,45.019 C30.090,45.413 29.772,45.728 29.385,45.722 C28.999,45.717 28.690,45.393 28.695,44.999 L28.695,42.856 L25.895,42.856 C25.889,42.856 25.882,42.856 25.876,42.856 C25.489,42.850 25.180,42.526 25.186,42.131 C25.191,41.737 25.509,41.421 25.895,41.427 L31.079,41.427 C32.091,41.427 32.895,40.529 32.895,39.641 C32.895,38.746 32.062,37.856 31.167,37.856 L27.624,37.856 C25.886,37.856 24.496,36.336 24.496,34.619 C24.496,32.895 25.930,31.426 27.711,31.426 L28.695,31.426 L28.695,29.284 C28.681,28.913 28.947,28.594 29.308,28.548 C29.346,28.542 29.385,28.541 29.423,28.542 C29.809,28.558 30.110,28.890 30.095,29.284 L30.095,31.426 L32.895,31.426 C32.902,31.426 32.908,31.426 32.915,31.426 C33.301,31.432 33.610,31.757 33.605,32.151 C33.599,32.546 33.282,32.861 32.895,32.855 L27.711,32.855 C26.700,32.855 25.895,33.731 25.895,34.619 C25.895,35.514 26.729,36.427 27.624,36.427 ZM11.481,19.923 C11.445,19.528 11.729,19.178 12.115,19.141 C12.159,19.137 12.203,19.137 12.247,19.141 L23.796,19.141 C23.802,19.141 23.809,19.141 23.815,19.141 C24.202,19.146 24.511,19.471 24.506,19.866 C24.500,20.260 24.182,20.576 23.796,20.570 L12.247,20.570 C11.860,20.607 11.517,20.317 11.481,19.923 ZM23.796,13.855 L12.247,13.855 C11.860,13.893 11.517,13.602 11.481,13.208 C11.445,12.813 11.729,12.464 12.115,12.426 C12.159,12.423 12.203,12.423 12.247,12.426 L23.796,12.426 C23.802,12.426 23.809,12.426 23.815,12.426 C24.202,12.432 24.511,12.757 24.506,13.152 C24.500,13.546 24.182,13.861 23.796,13.855 ZM23.796,7.141 L12.247,7.141 C11.860,7.178 11.517,6.888 11.481,6.494 C11.445,6.100 11.729,5.749 12.115,5.712 C12.159,5.708 12.203,5.708 12.247,5.712 L23.796,5.712 C23.802,5.712 23.809,5.712 23.815,5.712 C24.202,5.719 24.511,6.043 24.506,6.437 C24.500,6.831 24.182,7.147 23.796,7.141 ZM7.198,20.350 L6.167,20.350 C6.120,20.350 6.081,20.389 6.081,20.437 L6.081,21.504 C6.081,21.785 5.851,22.012 5.573,21.997 C5.312,21.985 5.113,21.756 5.113,21.489 L5.113,20.437 C5.113,20.389 5.075,20.350 5.027,20.350 L3.996,20.350 C3.735,20.350 3.511,20.146 3.498,19.880 C3.484,19.597 3.707,19.361 3.982,19.361 L5.027,19.361 C5.075,19.361 5.113,19.322 5.113,19.274 L5.113,18.207 C5.113,17.926 5.343,17.699 5.621,17.713 C5.882,17.726 6.081,17.955 6.081,18.221 L6.081,19.274 C6.081,19.322 6.120,19.361 6.167,19.361 L7.212,19.361 C7.488,19.361 7.710,19.597 7.696,19.880 C7.684,20.146 7.459,20.350 7.198,20.350 ZM7.198,13.636 L6.167,13.636 C6.120,13.636 6.081,13.674 6.081,13.722 L6.081,14.789 C6.081,15.071 5.851,15.298 5.573,15.284 C5.312,15.270 5.113,15.041 5.113,14.776 L5.113,13.722 C5.113,13.674 5.075,13.636 5.027,13.636 L3.996,13.636 C3.735,13.636 3.511,13.432 3.498,13.166 C3.484,12.882 3.707,12.647 3.982,12.647 L5.027,12.647 C5.075,12.647 5.113,12.608 5.113,12.559 L5.113,11.492 C5.113,11.212 5.343,10.985 5.621,10.999 C5.882,11.012 6.081,11.241 6.081,11.507 L6.081,12.559 C6.081,12.608 6.120,12.647 6.167,12.647 L7.212,12.647 C7.488,12.647 7.710,12.882 7.696,13.166 C7.684,13.432 7.459,13.636 7.198,13.636 ZM7.198,6.921 L6.167,6.921 C6.120,6.921 6.081,6.960 6.081,7.008 L6.081,8.075 C6.081,8.357 5.851,8.583 5.573,8.569 C5.312,8.556 5.113,8.327 5.113,8.061 L5.113,7.008 C5.113,6.960 5.075,6.921 5.027,6.921 L3.996,6.921 C3.735,6.921 3.511,6.717 3.498,6.452 C3.484,6.168 3.707,5.932 3.982,5.932 L5.027,5.932 C5.075,5.932 5.113,5.893 5.113,5.846 L5.113,4.778 C5.113,4.497 5.343,4.271 5.621,4.285 C5.882,4.298 6.081,4.527 6.081,4.793 L6.081,5.845 C6.081,5.893 6.120,5.932 6.167,5.932 L7.212,5.932 C7.488,5.932 7.710,6.168 7.696,6.452 C7.684,6.717 7.459,6.921 7.198,6.921 Z"/>
</svg>