<svg 
 xmlns="http://www.w3.org/2000/svg"
 xmlns:xlink="http://www.w3.org/1999/xlink"
 width="18px" height="14px">
<path fill-rule="evenodd"  fill="rgb(255, 255, 255)"
 d="M17.460,1.910 C16.841,2.177 16.175,2.358 15.477,2.439 C16.190,2.022 16.737,1.364 16.995,0.577 C16.328,0.963 15.589,1.243 14.803,1.394 C14.173,0.739 13.276,0.331 12.282,0.331 C10.376,0.331 8.830,1.839 8.830,3.698 C8.830,3.961 8.861,4.218 8.920,4.465 C6.051,4.325 3.507,2.984 1.804,0.947 C1.507,1.444 1.337,2.022 1.337,2.640 C1.337,3.807 1.947,4.838 2.872,5.442 C2.307,5.425 1.774,5.273 1.309,5.020 C1.309,5.035 1.309,5.049 1.309,5.063 C1.309,6.694 2.499,8.055 4.078,8.365 C3.789,8.441 3.483,8.483 3.169,8.483 C2.946,8.483 2.730,8.462 2.519,8.422 C2.958,9.760 4.233,10.734 5.744,10.761 C4.562,11.664 3.074,12.202 1.456,12.202 C1.178,12.202 0.903,12.186 0.633,12.155 C2.160,13.111 3.975,13.668 5.924,13.668 C12.274,13.668 15.747,8.538 15.747,4.088 C15.747,3.942 15.743,3.796 15.737,3.652 C16.412,3.178 16.997,2.585 17.460,1.910 L17.460,1.910 Z"/>
</svg>