<svg 
 xmlns="http://www.w3.org/2000/svg"
 xmlns:xlink="http://www.w3.org/1999/xlink"
 width="21px" height="12px">
<path fill-rule="evenodd"  fill="rgb(144, 164, 185)"
 d="M10.496,-0.001 C6.599,-0.001 3.065,2.104 0.457,5.522 C0.244,5.801 0.244,6.193 0.457,6.473 C3.065,9.895 6.599,12.000 10.496,12.000 C14.394,12.000 17.928,9.895 20.536,6.477 C20.749,6.197 20.749,5.806 20.536,5.526 C17.928,2.104 14.394,-0.001 10.496,-0.001 L10.496,-0.001 ZM10.776,10.225 C8.189,10.386 6.052,8.281 6.215,5.723 C6.349,3.615 8.080,1.906 10.217,1.774 C12.804,1.613 14.941,3.718 14.778,6.276 C14.640,8.380 12.908,10.089 10.776,10.225 L10.776,10.225 ZM10.647,8.273 C9.253,8.359 8.101,7.227 8.193,5.851 C8.264,4.715 9.199,3.797 10.350,3.722 C11.744,3.636 12.896,4.768 12.804,6.144 C12.729,7.284 11.794,8.202 10.647,8.273 L10.647,8.273 Z"/>
</svg>